M48
;DRILL file {KiCad (5.0.1)-4} date 12.09.2019 15:38:36
;FORMAT={-:-/ absolute / inch / decimal}
FMAT,2
INCH,TZ
T1C0.0157
T2C0.0276
T3C0.0394
T4C0.0409
%
G90
G05
M72
T1
X2.55Y-4.65
X4.55Y-4.8
X4.85Y-4.1
X5.2Y-4.5
X5.425Y-4.85
X5.7Y-4.8
T2
X2.6Y-4.8
X2.8Y-4.8
T3
X4.95Y-4.1
X4.95Y-4.2
X4.95Y-4.3
X4.95Y-4.4
X5.6Y-4.75
X5.6Y-4.85
X5.6Y-4.95
X5.75Y-3.25
X5.75Y-3.35
X5.75Y-3.45
X5.75Y-3.55
X5.75Y-3.65
X5.75Y-3.75
X4.85Y-4.65
X4.85Y-4.75
X5.25Y-3.85
X5.35Y-3.85
X5.1Y-4.65
X5.1Y-4.75
X5.1Y-4.85
X5.1Y-4.95
X5.35Y-3.25
X5.35Y-3.35
X5.35Y-3.45
X5.35Y-3.55
X5.35Y-3.65
X5.75Y-4.1
X5.75Y-4.2
X5.75Y-4.3
X5.75Y-4.4
X4.85Y-4.85
X4.85Y-4.95
X5.35Y-4.65
X5.35Y-4.75
X5.35Y-4.85
X5.35Y-4.95
X5.35Y-4.1
X5.35Y-4.2
X5.35Y-4.3
X5.35Y-4.4
T4
X2.6Y-4.
X2.6Y-5.
X2.7Y-4.
X2.7Y-5.
X2.8Y-4.
X2.8Y-5.
X2.9Y-4.
X2.9Y-5.
X3.Y-4.
X3.Y-5.
X3.1Y-4.
X3.1Y-5.
X3.2Y-4.
X3.2Y-5.
X3.3Y-4.
X3.3Y-5.
X3.4Y-4.
X3.4Y-5.
X3.5Y-4.
X3.5Y-5.
X3.6Y-4.
X3.6Y-5.
X3.7Y-4.
X3.7Y-5.
X3.8Y-4.
X3.8Y-5.
X3.9Y-4.
X3.9Y-5.
X4.Y-4.
X4.Y-5.
X4.1Y-4.
X4.1Y-5.
X4.2Y-4.
X4.2Y-5.
X4.3Y-4.
X4.3Y-5.
X4.4Y-4.
X4.4Y-5.
T0
M30
