G04 #@! TF.GenerationSoftware,KiCad,Pcbnew,(5.0.1)-4*
G04 #@! TF.CreationDate,2019-04-17T16:34:36+02:00*
G04 #@! TF.ProjectId,esp32roomlabel,6573703332726F6F6D6C6162656C2E6B,rev?*
G04 #@! TF.SameCoordinates,Original*
G04 #@! TF.FileFunction,Copper,L1,Top,Signal*
G04 #@! TF.FilePolarity,Positive*
%FSLAX46Y46*%
G04 Gerber Fmt 4.6, Leading zero omitted, Abs format (unit mm)*
G04 Created by KiCad (PCBNEW (5.0.1)-4) date 17.04.2019 16:34:36*
%MOMM*%
%LPD*%
G01*
G04 APERTURE LIST*
G04 #@! TA.AperFunction,ComponentPad*
%ADD10C,1.560000*%
G04 #@! TD*
G04 #@! TA.AperFunction,ComponentPad*
%ADD11R,1.560000X1.560000*%
G04 #@! TD*
G04 #@! TA.AperFunction,ComponentPad*
%ADD12O,1.700000X1.700000*%
G04 #@! TD*
G04 #@! TA.AperFunction,ComponentPad*
%ADD13R,1.700000X1.700000*%
G04 #@! TD*
G04 #@! TA.AperFunction,ComponentPad*
%ADD14O,1.400000X1.400000*%
G04 #@! TD*
G04 #@! TA.AperFunction,ComponentPad*
%ADD15C,1.400000*%
G04 #@! TD*
G04 #@! TA.AperFunction,ViaPad*
%ADD16C,0.800000*%
G04 #@! TD*
G04 #@! TA.AperFunction,Conductor*
%ADD17C,0.250000*%
G04 #@! TD*
G04 #@! TA.AperFunction,Conductor*
%ADD18C,0.254000*%
G04 #@! TD*
G04 APERTURE END LIST*
D10*
G04 #@! TO.P,U1,38*
G04 #@! TO.N,Net-(U1-Pad38)*
X66040000Y-127000000D03*
G04 #@! TO.P,U1,37*
G04 #@! TO.N,Net-(U1-Pad37)*
X68580000Y-127000000D03*
G04 #@! TO.P,U1,36*
G04 #@! TO.N,Net-(U1-Pad36)*
X71120000Y-127000000D03*
G04 #@! TO.P,U1,35*
G04 #@! TO.N,Net-(U1-Pad35)*
X73660000Y-127000000D03*
G04 #@! TO.P,U1,34*
G04 #@! TO.N,Net-(R1-Pad2)*
X76200000Y-127000000D03*
G04 #@! TO.P,U1,33*
G04 #@! TO.N,Net-(U1-Pad33)*
X78740000Y-127000000D03*
G04 #@! TO.P,U1,32*
G04 #@! TO.N,Net-(U1-Pad32)*
X81280000Y-127000000D03*
G04 #@! TO.P,U1,31*
G04 #@! TO.N,Net-(U1-Pad31)*
X83820000Y-127000000D03*
G04 #@! TO.P,U1,30*
G04 #@! TO.N,Net-(U1-Pad30)*
X86360000Y-127000000D03*
G04 #@! TO.P,U1,29*
G04 #@! TO.N,Net-(U1-Pad29)*
X88900000Y-127000000D03*
G04 #@! TO.P,U1,28*
G04 #@! TO.N,DTA*
X91440000Y-127000000D03*
G04 #@! TO.P,U1,27*
G04 #@! TO.N,CLK*
X93980000Y-127000000D03*
G04 #@! TO.P,U1,26*
G04 #@! TO.N,GND*
X96520000Y-127000000D03*
G04 #@! TO.P,U1,25*
G04 #@! TO.N,SW1*
X99060000Y-127000000D03*
G04 #@! TO.P,U1,24*
G04 #@! TO.N,Net-(U1-Pad24)*
X101600000Y-127000000D03*
G04 #@! TO.P,U1,23*
G04 #@! TO.N,Net-(U1-Pad23)*
X104140000Y-127000000D03*
G04 #@! TO.P,U1,22*
G04 #@! TO.N,SW2*
X106680000Y-127000000D03*
G04 #@! TO.P,U1,21*
G04 #@! TO.N,DHT22*
X109220000Y-127000000D03*
G04 #@! TO.P,U1,20*
G04 #@! TO.N,GND*
X111760000Y-127000000D03*
G04 #@! TO.P,U1,18*
G04 #@! TO.N,Net-(U1-Pad18)*
X68580000Y-101600000D03*
G04 #@! TO.P,U1,17*
G04 #@! TO.N,Net-(U1-Pad17)*
X71120000Y-101600000D03*
G04 #@! TO.P,U1,16*
G04 #@! TO.N,Net-(U1-Pad16)*
X73660000Y-101600000D03*
G04 #@! TO.P,U1,15*
G04 #@! TO.N,Net-(U1-Pad15)*
X76200000Y-101600000D03*
G04 #@! TO.P,U1,14*
G04 #@! TO.N,GND*
X78740000Y-101600000D03*
G04 #@! TO.P,U1,13*
G04 #@! TO.N,Net-(U1-Pad13)*
X81280000Y-101600000D03*
G04 #@! TO.P,U1,12*
G04 #@! TO.N,Net-(U1-Pad12)*
X83820000Y-101600000D03*
G04 #@! TO.P,U1,11*
G04 #@! TO.N,Net-(U1-Pad11)*
X86360000Y-101600000D03*
G04 #@! TO.P,U1,10*
G04 #@! TO.N,Net-(U1-Pad10)*
X88900000Y-101600000D03*
G04 #@! TO.P,U1,9*
G04 #@! TO.N,Net-(U1-Pad9)*
X91440000Y-101600000D03*
G04 #@! TO.P,U1,8*
G04 #@! TO.N,Net-(U1-Pad8)*
X93980000Y-101600000D03*
G04 #@! TO.P,U1,7*
G04 #@! TO.N,Net-(U1-Pad7)*
X96520000Y-101600000D03*
G04 #@! TO.P,U1,6*
G04 #@! TO.N,Net-(U1-Pad6)*
X99060000Y-101600000D03*
G04 #@! TO.P,U1,5*
G04 #@! TO.N,Net-(U1-Pad5)*
X101600000Y-101600000D03*
G04 #@! TO.P,U1,4*
G04 #@! TO.N,Net-(U1-Pad4)*
X104140000Y-101600000D03*
G04 #@! TO.P,U1,3*
G04 #@! TO.N,Net-(U1-Pad3)*
X106680000Y-101600000D03*
G04 #@! TO.P,U1,19*
G04 #@! TO.N,5V*
X66040000Y-101600000D03*
G04 #@! TO.P,U1,2*
G04 #@! TO.N,Net-(U1-Pad2)*
X109220000Y-101600000D03*
D11*
G04 #@! TO.P,U1,1*
G04 #@! TO.N,3V3*
X111760000Y-101600000D03*
G04 #@! TD*
D12*
G04 #@! TO.P,J1,4*
G04 #@! TO.N,DTA*
X135890000Y-111760000D03*
G04 #@! TO.P,J1,3*
G04 #@! TO.N,CLK*
X135890000Y-109220000D03*
G04 #@! TO.P,J1,2*
G04 #@! TO.N,GND*
X135890000Y-106680000D03*
D13*
G04 #@! TO.P,J1,1*
G04 #@! TO.N,3V3*
X135890000Y-104140000D03*
G04 #@! TD*
D12*
G04 #@! TO.P,J2,4*
G04 #@! TO.N,DTA*
X129540000Y-125730000D03*
G04 #@! TO.P,J2,3*
G04 #@! TO.N,CLK*
X129540000Y-123190000D03*
G04 #@! TO.P,J2,2*
G04 #@! TO.N,GND*
X129540000Y-120650000D03*
D13*
G04 #@! TO.P,J2,1*
G04 #@! TO.N,3V3*
X129540000Y-118110000D03*
G04 #@! TD*
D12*
G04 #@! TO.P,J3,4*
G04 #@! TO.N,CLK*
X129540000Y-111760000D03*
G04 #@! TO.P,J3,3*
G04 #@! TO.N,DTA*
X129540000Y-109220000D03*
G04 #@! TO.P,J3,2*
G04 #@! TO.N,5V*
X129540000Y-106680000D03*
D13*
G04 #@! TO.P,J3,1*
G04 #@! TO.N,GND*
X129540000Y-104140000D03*
G04 #@! TD*
D12*
G04 #@! TO.P,J4,5*
G04 #@! TO.N,3V3*
X135890000Y-82550000D03*
G04 #@! TO.P,J4,4*
G04 #@! TO.N,DTA*
X135890000Y-85090000D03*
G04 #@! TO.P,J4,3*
G04 #@! TO.N,CLK*
X135890000Y-87630000D03*
G04 #@! TO.P,J4,2*
G04 #@! TO.N,Net-(J4-Pad2)*
X135890000Y-90170000D03*
D13*
G04 #@! TO.P,J4,1*
G04 #@! TO.N,GND*
X135890000Y-92710000D03*
G04 #@! TD*
D12*
G04 #@! TO.P,J5,3*
G04 #@! TO.N,DHT22*
X142240000Y-125730000D03*
G04 #@! TO.P,J5,2*
G04 #@! TO.N,GND*
X142240000Y-123190000D03*
D13*
G04 #@! TO.P,J5,1*
G04 #@! TO.N,3V3*
X142240000Y-120650000D03*
G04 #@! TD*
D12*
G04 #@! TO.P,J6,2*
G04 #@! TO.N,GND*
X123190000Y-123190000D03*
D13*
G04 #@! TO.P,J6,1*
G04 #@! TO.N,SW1*
X123190000Y-125730000D03*
G04 #@! TD*
D12*
G04 #@! TO.P,J7,2*
G04 #@! TO.N,GND*
X123190000Y-115570000D03*
D13*
G04 #@! TO.P,J7,1*
G04 #@! TO.N,SW2*
X123190000Y-118110000D03*
G04 #@! TD*
D12*
G04 #@! TO.P,J8,4*
G04 #@! TO.N,DTA*
X135890000Y-125730000D03*
G04 #@! TO.P,J8,3*
G04 #@! TO.N,CLK*
X135890000Y-123190000D03*
G04 #@! TO.P,J8,2*
G04 #@! TO.N,GND*
X135890000Y-120650000D03*
D13*
G04 #@! TO.P,J8,1*
G04 #@! TO.N,3V3*
X135890000Y-118110000D03*
G04 #@! TD*
D12*
G04 #@! TO.P,J9,2*
G04 #@! TO.N,GND*
X135890000Y-97790000D03*
D13*
G04 #@! TO.P,J9,1*
G04 #@! TO.N,Net-(J9-Pad1)*
X133350000Y-97790000D03*
G04 #@! TD*
D14*
G04 #@! TO.P,R1,2*
G04 #@! TO.N,Net-(R1-Pad2)*
X76200000Y-121920000D03*
D15*
G04 #@! TO.P,R1,1*
G04 #@! TO.N,Net-(J9-Pad1)*
X71120000Y-121920000D03*
G04 #@! TD*
D16*
G04 #@! TO.N,SW1*
X115570000Y-121920000D03*
G04 #@! TD*
D17*
G04 #@! TO.N,3V3*
X111760000Y-101600000D02*
X128270000Y-101600000D01*
X135890000Y-103040000D02*
X135890000Y-104140000D01*
X111760000Y-101600000D02*
X134450000Y-101600000D01*
X134450000Y-101600000D02*
X135890000Y-103040000D01*
X138430000Y-120650000D02*
X135890000Y-118110000D01*
X142240000Y-120650000D02*
X138430000Y-120650000D01*
X129540000Y-118110000D02*
X135890000Y-118110000D01*
X136990000Y-104140000D02*
X135890000Y-104140000D01*
X137065001Y-104215001D02*
X136990000Y-104140000D01*
X137065001Y-115834999D02*
X137065001Y-104215001D01*
X135890000Y-117010000D02*
X137065001Y-115834999D01*
X135890000Y-118110000D02*
X135890000Y-117010000D01*
X134525001Y-101524999D02*
X134450000Y-101600000D01*
X134525001Y-83914999D02*
X134525001Y-101524999D01*
X135890000Y-82550000D02*
X134525001Y-83914999D01*
G04 #@! TO.N,5V*
X71120000Y-106680000D02*
X124460000Y-106680000D01*
X66040000Y-101600000D02*
X71120000Y-106680000D01*
X124460000Y-106680000D02*
X129540000Y-106680000D01*
G04 #@! TO.N,DHT22*
X109999999Y-127779999D02*
X109220000Y-127000000D01*
X110490000Y-128270000D02*
X109999999Y-127779999D01*
X139700000Y-128270000D02*
X110490000Y-128270000D01*
X142240000Y-125730000D02*
X139700000Y-128270000D01*
G04 #@! TO.N,SW1*
X104140000Y-121920000D02*
X99060000Y-127000000D01*
X115570000Y-121920000D02*
X104140000Y-121920000D01*
G04 #@! TD*
D18*
G04 #@! TO.N,GND*
G36*
X155127787Y-76954065D02*
X155292920Y-77049405D01*
X155415488Y-77195477D01*
X155491555Y-77404465D01*
X155500000Y-77500996D01*
X155500001Y-128207875D01*
X155455935Y-128457787D01*
X155360596Y-128622919D01*
X155214524Y-128745488D01*
X155005532Y-128821555D01*
X154909004Y-128830000D01*
X140229863Y-128830000D01*
X140247929Y-128817929D01*
X140290331Y-128754470D01*
X141873593Y-127171209D01*
X142093744Y-127215000D01*
X142386256Y-127215000D01*
X142819418Y-127128839D01*
X143310625Y-126800625D01*
X143638839Y-126309418D01*
X143754092Y-125730000D01*
X143638839Y-125150582D01*
X143310625Y-124659375D01*
X142991522Y-124446157D01*
X143121358Y-124385183D01*
X143511645Y-123956924D01*
X143681476Y-123546890D01*
X143560155Y-123317000D01*
X142367000Y-123317000D01*
X142367000Y-123337000D01*
X142113000Y-123337000D01*
X142113000Y-123317000D01*
X140919845Y-123317000D01*
X140798524Y-123546890D01*
X140968355Y-123956924D01*
X141358642Y-124385183D01*
X141488478Y-124446157D01*
X141169375Y-124659375D01*
X140841161Y-125150582D01*
X140725908Y-125730000D01*
X140798791Y-126096407D01*
X139385199Y-127510000D01*
X113080360Y-127510000D01*
X113187060Y-127211997D01*
X113159559Y-126649748D01*
X112997303Y-126258028D01*
X112753255Y-126186350D01*
X111939605Y-127000000D01*
X111953748Y-127014143D01*
X111774143Y-127193748D01*
X111760000Y-127179605D01*
X111745858Y-127193748D01*
X111566253Y-127014143D01*
X111580395Y-127000000D01*
X110766745Y-126186350D01*
X110522697Y-126258028D01*
X110486326Y-126359609D01*
X110419579Y-126198467D01*
X110227857Y-126006745D01*
X110946350Y-126006745D01*
X111760000Y-126820395D01*
X112573650Y-126006745D01*
X112501972Y-125762697D01*
X111971997Y-125572940D01*
X111409748Y-125600441D01*
X111018028Y-125762697D01*
X110946350Y-126006745D01*
X110227857Y-126006745D01*
X110021533Y-125800421D01*
X109501461Y-125585000D01*
X108938539Y-125585000D01*
X108418467Y-125800421D01*
X108020421Y-126198467D01*
X107950000Y-126368478D01*
X107879579Y-126198467D01*
X107481533Y-125800421D01*
X106961461Y-125585000D01*
X106398539Y-125585000D01*
X105878467Y-125800421D01*
X105480421Y-126198467D01*
X105410000Y-126368478D01*
X105339579Y-126198467D01*
X104941533Y-125800421D01*
X104421461Y-125585000D01*
X103858539Y-125585000D01*
X103338467Y-125800421D01*
X102940421Y-126198467D01*
X102870000Y-126368478D01*
X102799579Y-126198467D01*
X102401533Y-125800421D01*
X101881461Y-125585000D01*
X101549801Y-125585000D01*
X102254801Y-124880000D01*
X121692560Y-124880000D01*
X121692560Y-126580000D01*
X121741843Y-126827765D01*
X121882191Y-127037809D01*
X122092235Y-127178157D01*
X122340000Y-127227440D01*
X124040000Y-127227440D01*
X124287765Y-127178157D01*
X124497809Y-127037809D01*
X124638157Y-126827765D01*
X124687440Y-126580000D01*
X124687440Y-124880000D01*
X124638157Y-124632235D01*
X124497809Y-124422191D01*
X124287765Y-124281843D01*
X124184292Y-124261261D01*
X124461645Y-123956924D01*
X124631476Y-123546890D01*
X124510155Y-123317000D01*
X123317000Y-123317000D01*
X123317000Y-123337000D01*
X123063000Y-123337000D01*
X123063000Y-123317000D01*
X121869845Y-123317000D01*
X121748524Y-123546890D01*
X121918355Y-123956924D01*
X122195708Y-124261261D01*
X122092235Y-124281843D01*
X121882191Y-124422191D01*
X121741843Y-124632235D01*
X121692560Y-124880000D01*
X102254801Y-124880000D01*
X103944801Y-123190000D01*
X128025908Y-123190000D01*
X128141161Y-123769418D01*
X128469375Y-124260625D01*
X128767761Y-124460000D01*
X128469375Y-124659375D01*
X128141161Y-125150582D01*
X128025908Y-125730000D01*
X128141161Y-126309418D01*
X128469375Y-126800625D01*
X128960582Y-127128839D01*
X129393744Y-127215000D01*
X129686256Y-127215000D01*
X130119418Y-127128839D01*
X130610625Y-126800625D01*
X130938839Y-126309418D01*
X131054092Y-125730000D01*
X130938839Y-125150582D01*
X130610625Y-124659375D01*
X130312239Y-124460000D01*
X130610625Y-124260625D01*
X130938839Y-123769418D01*
X131054092Y-123190000D01*
X130938839Y-122610582D01*
X130610625Y-122119375D01*
X130291522Y-121906157D01*
X130421358Y-121845183D01*
X130811645Y-121416924D01*
X130981476Y-121006890D01*
X130860155Y-120777000D01*
X129667000Y-120777000D01*
X129667000Y-120797000D01*
X129413000Y-120797000D01*
X129413000Y-120777000D01*
X128219845Y-120777000D01*
X128098524Y-121006890D01*
X128268355Y-121416924D01*
X128658642Y-121845183D01*
X128788478Y-121906157D01*
X128469375Y-122119375D01*
X128141161Y-122610582D01*
X128025908Y-123190000D01*
X103944801Y-123190000D01*
X104454802Y-122680000D01*
X114866289Y-122680000D01*
X114983720Y-122797431D01*
X115364126Y-122955000D01*
X115775874Y-122955000D01*
X116070143Y-122833110D01*
X121748524Y-122833110D01*
X121869845Y-123063000D01*
X123063000Y-123063000D01*
X123063000Y-121869181D01*
X123317000Y-121869181D01*
X123317000Y-123063000D01*
X124510155Y-123063000D01*
X124631476Y-122833110D01*
X124461645Y-122423076D01*
X124071358Y-121994817D01*
X123546892Y-121748514D01*
X123317000Y-121869181D01*
X123063000Y-121869181D01*
X122833108Y-121748514D01*
X122308642Y-121994817D01*
X121918355Y-122423076D01*
X121748524Y-122833110D01*
X116070143Y-122833110D01*
X116156280Y-122797431D01*
X116447431Y-122506280D01*
X116605000Y-122125874D01*
X116605000Y-121714126D01*
X116447431Y-121333720D01*
X116156280Y-121042569D01*
X115775874Y-120885000D01*
X115364126Y-120885000D01*
X114983720Y-121042569D01*
X114866289Y-121160000D01*
X104214847Y-121160000D01*
X104140000Y-121145112D01*
X104065153Y-121160000D01*
X104065148Y-121160000D01*
X103843463Y-121204096D01*
X103592071Y-121372071D01*
X103549671Y-121435527D01*
X99382995Y-125602204D01*
X99341461Y-125585000D01*
X98778539Y-125585000D01*
X98258467Y-125800421D01*
X97860421Y-126198467D01*
X97796527Y-126352722D01*
X97757303Y-126258028D01*
X97513255Y-126186350D01*
X96699605Y-127000000D01*
X97513255Y-127813650D01*
X97757303Y-127741972D01*
X97793674Y-127640391D01*
X97860421Y-127801533D01*
X98258467Y-128199579D01*
X98778539Y-128415000D01*
X99341461Y-128415000D01*
X99861533Y-128199579D01*
X100259579Y-127801533D01*
X100330000Y-127631522D01*
X100400421Y-127801533D01*
X100798467Y-128199579D01*
X101318539Y-128415000D01*
X101881461Y-128415000D01*
X102401533Y-128199579D01*
X102799579Y-127801533D01*
X102870000Y-127631522D01*
X102940421Y-127801533D01*
X103338467Y-128199579D01*
X103858539Y-128415000D01*
X104421461Y-128415000D01*
X104941533Y-128199579D01*
X105339579Y-127801533D01*
X105410000Y-127631522D01*
X105480421Y-127801533D01*
X105878467Y-128199579D01*
X106398539Y-128415000D01*
X106961461Y-128415000D01*
X107481533Y-128199579D01*
X107879579Y-127801533D01*
X107950000Y-127631522D01*
X108020421Y-127801533D01*
X108418467Y-128199579D01*
X108938539Y-128415000D01*
X109501461Y-128415000D01*
X109542995Y-128397796D01*
X109899671Y-128754472D01*
X109942071Y-128817929D01*
X109960137Y-128830000D01*
X63562119Y-128830000D01*
X63312213Y-128785935D01*
X63147081Y-128690596D01*
X63024512Y-128544524D01*
X62948445Y-128335532D01*
X62940000Y-128239004D01*
X62940000Y-126718539D01*
X64625000Y-126718539D01*
X64625000Y-127281461D01*
X64840421Y-127801533D01*
X65238467Y-128199579D01*
X65758539Y-128415000D01*
X66321461Y-128415000D01*
X66841533Y-128199579D01*
X67239579Y-127801533D01*
X67310000Y-127631522D01*
X67380421Y-127801533D01*
X67778467Y-128199579D01*
X68298539Y-128415000D01*
X68861461Y-128415000D01*
X69381533Y-128199579D01*
X69779579Y-127801533D01*
X69850000Y-127631522D01*
X69920421Y-127801533D01*
X70318467Y-128199579D01*
X70838539Y-128415000D01*
X71401461Y-128415000D01*
X71921533Y-128199579D01*
X72319579Y-127801533D01*
X72390000Y-127631522D01*
X72460421Y-127801533D01*
X72858467Y-128199579D01*
X73378539Y-128415000D01*
X73941461Y-128415000D01*
X74461533Y-128199579D01*
X74859579Y-127801533D01*
X74930000Y-127631522D01*
X75000421Y-127801533D01*
X75398467Y-128199579D01*
X75918539Y-128415000D01*
X76481461Y-128415000D01*
X77001533Y-128199579D01*
X77399579Y-127801533D01*
X77470000Y-127631522D01*
X77540421Y-127801533D01*
X77938467Y-128199579D01*
X78458539Y-128415000D01*
X79021461Y-128415000D01*
X79541533Y-128199579D01*
X79939579Y-127801533D01*
X80010000Y-127631522D01*
X80080421Y-127801533D01*
X80478467Y-128199579D01*
X80998539Y-128415000D01*
X81561461Y-128415000D01*
X82081533Y-128199579D01*
X82479579Y-127801533D01*
X82550000Y-127631522D01*
X82620421Y-127801533D01*
X83018467Y-128199579D01*
X83538539Y-128415000D01*
X84101461Y-128415000D01*
X84621533Y-128199579D01*
X85019579Y-127801533D01*
X85090000Y-127631522D01*
X85160421Y-127801533D01*
X85558467Y-128199579D01*
X86078539Y-128415000D01*
X86641461Y-128415000D01*
X87161533Y-128199579D01*
X87559579Y-127801533D01*
X87630000Y-127631522D01*
X87700421Y-127801533D01*
X88098467Y-128199579D01*
X88618539Y-128415000D01*
X89181461Y-128415000D01*
X89701533Y-128199579D01*
X90099579Y-127801533D01*
X90170000Y-127631522D01*
X90240421Y-127801533D01*
X90638467Y-128199579D01*
X91158539Y-128415000D01*
X91721461Y-128415000D01*
X92241533Y-128199579D01*
X92639579Y-127801533D01*
X92710000Y-127631522D01*
X92780421Y-127801533D01*
X93178467Y-128199579D01*
X93698539Y-128415000D01*
X94261461Y-128415000D01*
X94781533Y-128199579D01*
X94987857Y-127993255D01*
X95706350Y-127993255D01*
X95778028Y-128237303D01*
X96308003Y-128427060D01*
X96870252Y-128399559D01*
X97261972Y-128237303D01*
X97333650Y-127993255D01*
X96520000Y-127179605D01*
X95706350Y-127993255D01*
X94987857Y-127993255D01*
X95179579Y-127801533D01*
X95243473Y-127647278D01*
X95282697Y-127741972D01*
X95526745Y-127813650D01*
X96340395Y-127000000D01*
X95526745Y-126186350D01*
X95282697Y-126258028D01*
X95246326Y-126359609D01*
X95179579Y-126198467D01*
X94987857Y-126006745D01*
X95706350Y-126006745D01*
X96520000Y-126820395D01*
X97333650Y-126006745D01*
X97261972Y-125762697D01*
X96731997Y-125572940D01*
X96169748Y-125600441D01*
X95778028Y-125762697D01*
X95706350Y-126006745D01*
X94987857Y-126006745D01*
X94781533Y-125800421D01*
X94261461Y-125585000D01*
X93698539Y-125585000D01*
X93178467Y-125800421D01*
X92780421Y-126198467D01*
X92710000Y-126368478D01*
X92639579Y-126198467D01*
X92241533Y-125800421D01*
X91721461Y-125585000D01*
X91158539Y-125585000D01*
X90638467Y-125800421D01*
X90240421Y-126198467D01*
X90170000Y-126368478D01*
X90099579Y-126198467D01*
X89701533Y-125800421D01*
X89181461Y-125585000D01*
X88618539Y-125585000D01*
X88098467Y-125800421D01*
X87700421Y-126198467D01*
X87630000Y-126368478D01*
X87559579Y-126198467D01*
X87161533Y-125800421D01*
X86641461Y-125585000D01*
X86078539Y-125585000D01*
X85558467Y-125800421D01*
X85160421Y-126198467D01*
X85090000Y-126368478D01*
X85019579Y-126198467D01*
X84621533Y-125800421D01*
X84101461Y-125585000D01*
X83538539Y-125585000D01*
X83018467Y-125800421D01*
X82620421Y-126198467D01*
X82550000Y-126368478D01*
X82479579Y-126198467D01*
X82081533Y-125800421D01*
X81561461Y-125585000D01*
X80998539Y-125585000D01*
X80478467Y-125800421D01*
X80080421Y-126198467D01*
X80010000Y-126368478D01*
X79939579Y-126198467D01*
X79541533Y-125800421D01*
X79021461Y-125585000D01*
X78458539Y-125585000D01*
X77938467Y-125800421D01*
X77540421Y-126198467D01*
X77470000Y-126368478D01*
X77399579Y-126198467D01*
X77001533Y-125800421D01*
X76481461Y-125585000D01*
X75918539Y-125585000D01*
X75398467Y-125800421D01*
X75000421Y-126198467D01*
X74930000Y-126368478D01*
X74859579Y-126198467D01*
X74461533Y-125800421D01*
X73941461Y-125585000D01*
X73378539Y-125585000D01*
X72858467Y-125800421D01*
X72460421Y-126198467D01*
X72390000Y-126368478D01*
X72319579Y-126198467D01*
X71921533Y-125800421D01*
X71401461Y-125585000D01*
X70838539Y-125585000D01*
X70318467Y-125800421D01*
X69920421Y-126198467D01*
X69850000Y-126368478D01*
X69779579Y-126198467D01*
X69381533Y-125800421D01*
X68861461Y-125585000D01*
X68298539Y-125585000D01*
X67778467Y-125800421D01*
X67380421Y-126198467D01*
X67310000Y-126368478D01*
X67239579Y-126198467D01*
X66841533Y-125800421D01*
X66321461Y-125585000D01*
X65758539Y-125585000D01*
X65238467Y-125800421D01*
X64840421Y-126198467D01*
X64625000Y-126718539D01*
X62940000Y-126718539D01*
X62940000Y-121654452D01*
X69785000Y-121654452D01*
X69785000Y-122185548D01*
X69988242Y-122676217D01*
X70363783Y-123051758D01*
X70854452Y-123255000D01*
X71385548Y-123255000D01*
X71876217Y-123051758D01*
X72251758Y-122676217D01*
X72455000Y-122185548D01*
X72455000Y-121920000D01*
X74838846Y-121920000D01*
X74942458Y-122440891D01*
X75237519Y-122882481D01*
X75679109Y-123177542D01*
X76068515Y-123255000D01*
X76331485Y-123255000D01*
X76720891Y-123177542D01*
X77162481Y-122882481D01*
X77457542Y-122440891D01*
X77561154Y-121920000D01*
X77457542Y-121399109D01*
X77162481Y-120957519D01*
X76720891Y-120662458D01*
X76331485Y-120585000D01*
X76068515Y-120585000D01*
X75679109Y-120662458D01*
X75237519Y-120957519D01*
X74942458Y-121399109D01*
X74838846Y-121920000D01*
X72455000Y-121920000D01*
X72455000Y-121654452D01*
X72251758Y-121163783D01*
X71876217Y-120788242D01*
X71385548Y-120585000D01*
X70854452Y-120585000D01*
X70363783Y-120788242D01*
X69988242Y-121163783D01*
X69785000Y-121654452D01*
X62940000Y-121654452D01*
X62940000Y-117260000D01*
X121692560Y-117260000D01*
X121692560Y-118960000D01*
X121741843Y-119207765D01*
X121882191Y-119417809D01*
X122092235Y-119558157D01*
X122340000Y-119607440D01*
X124040000Y-119607440D01*
X124287765Y-119558157D01*
X124497809Y-119417809D01*
X124638157Y-119207765D01*
X124687440Y-118960000D01*
X124687440Y-117260000D01*
X124638157Y-117012235D01*
X124497809Y-116802191D01*
X124287765Y-116661843D01*
X124184292Y-116641261D01*
X124461645Y-116336924D01*
X124631476Y-115926890D01*
X124510155Y-115697000D01*
X123317000Y-115697000D01*
X123317000Y-115717000D01*
X123063000Y-115717000D01*
X123063000Y-115697000D01*
X121869845Y-115697000D01*
X121748524Y-115926890D01*
X121918355Y-116336924D01*
X122195708Y-116641261D01*
X122092235Y-116661843D01*
X121882191Y-116802191D01*
X121741843Y-117012235D01*
X121692560Y-117260000D01*
X62940000Y-117260000D01*
X62940000Y-115213110D01*
X121748524Y-115213110D01*
X121869845Y-115443000D01*
X123063000Y-115443000D01*
X123063000Y-114249181D01*
X123317000Y-114249181D01*
X123317000Y-115443000D01*
X124510155Y-115443000D01*
X124631476Y-115213110D01*
X124461645Y-114803076D01*
X124071358Y-114374817D01*
X123546892Y-114128514D01*
X123317000Y-114249181D01*
X123063000Y-114249181D01*
X122833108Y-114128514D01*
X122308642Y-114374817D01*
X121918355Y-114803076D01*
X121748524Y-115213110D01*
X62940000Y-115213110D01*
X62940000Y-101318539D01*
X64625000Y-101318539D01*
X64625000Y-101881461D01*
X64840421Y-102401533D01*
X65238467Y-102799579D01*
X65758539Y-103015000D01*
X66321461Y-103015000D01*
X66362995Y-102997796D01*
X70529671Y-107164473D01*
X70572071Y-107227929D01*
X70823463Y-107395904D01*
X71045148Y-107440000D01*
X71045153Y-107440000D01*
X71120000Y-107454888D01*
X71194847Y-107440000D01*
X128261822Y-107440000D01*
X128469375Y-107750625D01*
X128767761Y-107950000D01*
X128469375Y-108149375D01*
X128141161Y-108640582D01*
X128025908Y-109220000D01*
X128141161Y-109799418D01*
X128469375Y-110290625D01*
X128767761Y-110490000D01*
X128469375Y-110689375D01*
X128141161Y-111180582D01*
X128025908Y-111760000D01*
X128141161Y-112339418D01*
X128469375Y-112830625D01*
X128960582Y-113158839D01*
X129393744Y-113245000D01*
X129686256Y-113245000D01*
X130119418Y-113158839D01*
X130610625Y-112830625D01*
X130938839Y-112339418D01*
X131054092Y-111760000D01*
X130938839Y-111180582D01*
X130610625Y-110689375D01*
X130312239Y-110490000D01*
X130610625Y-110290625D01*
X130938839Y-109799418D01*
X131054092Y-109220000D01*
X130938839Y-108640582D01*
X130610625Y-108149375D01*
X130312239Y-107950000D01*
X130610625Y-107750625D01*
X130938839Y-107259418D01*
X131054092Y-106680000D01*
X130938839Y-106100582D01*
X130610625Y-105609375D01*
X130588967Y-105594904D01*
X130749698Y-105528327D01*
X130928327Y-105349699D01*
X131025000Y-105116310D01*
X131025000Y-104425750D01*
X130866250Y-104267000D01*
X129667000Y-104267000D01*
X129667000Y-104287000D01*
X129413000Y-104287000D01*
X129413000Y-104267000D01*
X128213750Y-104267000D01*
X128055000Y-104425750D01*
X128055000Y-105116310D01*
X128151673Y-105349699D01*
X128330302Y-105528327D01*
X128491033Y-105594904D01*
X128469375Y-105609375D01*
X128261822Y-105920000D01*
X71434802Y-105920000D01*
X68678492Y-103163690D01*
X128055000Y-103163690D01*
X128055000Y-103854250D01*
X128213750Y-104013000D01*
X129413000Y-104013000D01*
X129413000Y-102813750D01*
X129667000Y-102813750D01*
X129667000Y-104013000D01*
X130866250Y-104013000D01*
X131025000Y-103854250D01*
X131025000Y-103163690D01*
X130928327Y-102930301D01*
X130749698Y-102751673D01*
X130516309Y-102655000D01*
X129825750Y-102655000D01*
X129667000Y-102813750D01*
X129413000Y-102813750D01*
X129254250Y-102655000D01*
X128563691Y-102655000D01*
X128330302Y-102751673D01*
X128151673Y-102930301D01*
X128055000Y-103163690D01*
X68678492Y-103163690D01*
X68529801Y-103015000D01*
X68861461Y-103015000D01*
X69381533Y-102799579D01*
X69779579Y-102401533D01*
X69850000Y-102231522D01*
X69920421Y-102401533D01*
X70318467Y-102799579D01*
X70838539Y-103015000D01*
X71401461Y-103015000D01*
X71921533Y-102799579D01*
X72319579Y-102401533D01*
X72390000Y-102231522D01*
X72460421Y-102401533D01*
X72858467Y-102799579D01*
X73378539Y-103015000D01*
X73941461Y-103015000D01*
X74461533Y-102799579D01*
X74859579Y-102401533D01*
X74930000Y-102231522D01*
X75000421Y-102401533D01*
X75398467Y-102799579D01*
X75918539Y-103015000D01*
X76481461Y-103015000D01*
X77001533Y-102799579D01*
X77207857Y-102593255D01*
X77926350Y-102593255D01*
X77998028Y-102837303D01*
X78528003Y-103027060D01*
X79090252Y-102999559D01*
X79481972Y-102837303D01*
X79553650Y-102593255D01*
X78740000Y-101779605D01*
X77926350Y-102593255D01*
X77207857Y-102593255D01*
X77399579Y-102401533D01*
X77463473Y-102247278D01*
X77502697Y-102341972D01*
X77746745Y-102413650D01*
X78560395Y-101600000D01*
X78919605Y-101600000D01*
X79733255Y-102413650D01*
X79977303Y-102341972D01*
X80013674Y-102240391D01*
X80080421Y-102401533D01*
X80478467Y-102799579D01*
X80998539Y-103015000D01*
X81561461Y-103015000D01*
X82081533Y-102799579D01*
X82479579Y-102401533D01*
X82550000Y-102231522D01*
X82620421Y-102401533D01*
X83018467Y-102799579D01*
X83538539Y-103015000D01*
X84101461Y-103015000D01*
X84621533Y-102799579D01*
X85019579Y-102401533D01*
X85090000Y-102231522D01*
X85160421Y-102401533D01*
X85558467Y-102799579D01*
X86078539Y-103015000D01*
X86641461Y-103015000D01*
X87161533Y-102799579D01*
X87559579Y-102401533D01*
X87630000Y-102231522D01*
X87700421Y-102401533D01*
X88098467Y-102799579D01*
X88618539Y-103015000D01*
X89181461Y-103015000D01*
X89701533Y-102799579D01*
X90099579Y-102401533D01*
X90170000Y-102231522D01*
X90240421Y-102401533D01*
X90638467Y-102799579D01*
X91158539Y-103015000D01*
X91721461Y-103015000D01*
X92241533Y-102799579D01*
X92639579Y-102401533D01*
X92710000Y-102231522D01*
X92780421Y-102401533D01*
X93178467Y-102799579D01*
X93698539Y-103015000D01*
X94261461Y-103015000D01*
X94781533Y-102799579D01*
X95179579Y-102401533D01*
X95250000Y-102231522D01*
X95320421Y-102401533D01*
X95718467Y-102799579D01*
X96238539Y-103015000D01*
X96801461Y-103015000D01*
X97321533Y-102799579D01*
X97719579Y-102401533D01*
X97790000Y-102231522D01*
X97860421Y-102401533D01*
X98258467Y-102799579D01*
X98778539Y-103015000D01*
X99341461Y-103015000D01*
X99861533Y-102799579D01*
X100259579Y-102401533D01*
X100330000Y-102231522D01*
X100400421Y-102401533D01*
X100798467Y-102799579D01*
X101318539Y-103015000D01*
X101881461Y-103015000D01*
X102401533Y-102799579D01*
X102799579Y-102401533D01*
X102870000Y-102231522D01*
X102940421Y-102401533D01*
X103338467Y-102799579D01*
X103858539Y-103015000D01*
X104421461Y-103015000D01*
X104941533Y-102799579D01*
X105339579Y-102401533D01*
X105410000Y-102231522D01*
X105480421Y-102401533D01*
X105878467Y-102799579D01*
X106398539Y-103015000D01*
X106961461Y-103015000D01*
X107481533Y-102799579D01*
X107879579Y-102401533D01*
X107950000Y-102231522D01*
X108020421Y-102401533D01*
X108418467Y-102799579D01*
X108938539Y-103015000D01*
X109501461Y-103015000D01*
X110021533Y-102799579D01*
X110350570Y-102470542D01*
X110381843Y-102627765D01*
X110522191Y-102837809D01*
X110732235Y-102978157D01*
X110980000Y-103027440D01*
X112540000Y-103027440D01*
X112787765Y-102978157D01*
X112997809Y-102837809D01*
X113138157Y-102627765D01*
X113187440Y-102380000D01*
X113187440Y-102360000D01*
X134135199Y-102360000D01*
X134597296Y-102822098D01*
X134582191Y-102832191D01*
X134441843Y-103042235D01*
X134392560Y-103290000D01*
X134392560Y-104990000D01*
X134441843Y-105237765D01*
X134582191Y-105447809D01*
X134792235Y-105588157D01*
X134895708Y-105608739D01*
X134618355Y-105913076D01*
X134448524Y-106323110D01*
X134569845Y-106553000D01*
X135763000Y-106553000D01*
X135763000Y-106533000D01*
X136017000Y-106533000D01*
X136017000Y-106553000D01*
X136037000Y-106553000D01*
X136037000Y-106807000D01*
X136017000Y-106807000D01*
X136017000Y-106827000D01*
X135763000Y-106827000D01*
X135763000Y-106807000D01*
X134569845Y-106807000D01*
X134448524Y-107036890D01*
X134618355Y-107446924D01*
X135008642Y-107875183D01*
X135138478Y-107936157D01*
X134819375Y-108149375D01*
X134491161Y-108640582D01*
X134375908Y-109220000D01*
X134491161Y-109799418D01*
X134819375Y-110290625D01*
X135117761Y-110490000D01*
X134819375Y-110689375D01*
X134491161Y-111180582D01*
X134375908Y-111760000D01*
X134491161Y-112339418D01*
X134819375Y-112830625D01*
X135310582Y-113158839D01*
X135743744Y-113245000D01*
X136036256Y-113245000D01*
X136305001Y-113191543D01*
X136305001Y-115520196D01*
X135405528Y-116419671D01*
X135342072Y-116462071D01*
X135299672Y-116525527D01*
X135299671Y-116525528D01*
X135241518Y-116612560D01*
X135040000Y-116612560D01*
X134792235Y-116661843D01*
X134582191Y-116802191D01*
X134441843Y-117012235D01*
X134392560Y-117260000D01*
X134392560Y-117350000D01*
X131037440Y-117350000D01*
X131037440Y-117260000D01*
X130988157Y-117012235D01*
X130847809Y-116802191D01*
X130637765Y-116661843D01*
X130390000Y-116612560D01*
X128690000Y-116612560D01*
X128442235Y-116661843D01*
X128232191Y-116802191D01*
X128091843Y-117012235D01*
X128042560Y-117260000D01*
X128042560Y-118960000D01*
X128091843Y-119207765D01*
X128232191Y-119417809D01*
X128442235Y-119558157D01*
X128545708Y-119578739D01*
X128268355Y-119883076D01*
X128098524Y-120293110D01*
X128219845Y-120523000D01*
X129413000Y-120523000D01*
X129413000Y-120503000D01*
X129667000Y-120503000D01*
X129667000Y-120523000D01*
X130860155Y-120523000D01*
X130981476Y-120293110D01*
X130811645Y-119883076D01*
X130534292Y-119578739D01*
X130637765Y-119558157D01*
X130847809Y-119417809D01*
X130988157Y-119207765D01*
X131037440Y-118960000D01*
X131037440Y-118870000D01*
X134392560Y-118870000D01*
X134392560Y-118960000D01*
X134441843Y-119207765D01*
X134582191Y-119417809D01*
X134792235Y-119558157D01*
X134895708Y-119578739D01*
X134618355Y-119883076D01*
X134448524Y-120293110D01*
X134569845Y-120523000D01*
X135763000Y-120523000D01*
X135763000Y-120503000D01*
X136017000Y-120503000D01*
X136017000Y-120523000D01*
X136037000Y-120523000D01*
X136037000Y-120777000D01*
X136017000Y-120777000D01*
X136017000Y-120797000D01*
X135763000Y-120797000D01*
X135763000Y-120777000D01*
X134569845Y-120777000D01*
X134448524Y-121006890D01*
X134618355Y-121416924D01*
X135008642Y-121845183D01*
X135138478Y-121906157D01*
X134819375Y-122119375D01*
X134491161Y-122610582D01*
X134375908Y-123190000D01*
X134491161Y-123769418D01*
X134819375Y-124260625D01*
X135117761Y-124460000D01*
X134819375Y-124659375D01*
X134491161Y-125150582D01*
X134375908Y-125730000D01*
X134491161Y-126309418D01*
X134819375Y-126800625D01*
X135310582Y-127128839D01*
X135743744Y-127215000D01*
X136036256Y-127215000D01*
X136469418Y-127128839D01*
X136960625Y-126800625D01*
X137288839Y-126309418D01*
X137404092Y-125730000D01*
X137288839Y-125150582D01*
X136960625Y-124659375D01*
X136662239Y-124460000D01*
X136960625Y-124260625D01*
X137288839Y-123769418D01*
X137404092Y-123190000D01*
X137288839Y-122610582D01*
X136960625Y-122119375D01*
X136641522Y-121906157D01*
X136771358Y-121845183D01*
X137161645Y-121416924D01*
X137331476Y-121006890D01*
X137210156Y-120777002D01*
X137375000Y-120777002D01*
X137375000Y-120669802D01*
X137839673Y-121134476D01*
X137882071Y-121197929D01*
X137945524Y-121240327D01*
X137945526Y-121240329D01*
X138070902Y-121324102D01*
X138133463Y-121365904D01*
X138355148Y-121410000D01*
X138355152Y-121410000D01*
X138429999Y-121424888D01*
X138504846Y-121410000D01*
X140742560Y-121410000D01*
X140742560Y-121500000D01*
X140791843Y-121747765D01*
X140932191Y-121957809D01*
X141142235Y-122098157D01*
X141245708Y-122118739D01*
X140968355Y-122423076D01*
X140798524Y-122833110D01*
X140919845Y-123063000D01*
X142113000Y-123063000D01*
X142113000Y-123043000D01*
X142367000Y-123043000D01*
X142367000Y-123063000D01*
X143560155Y-123063000D01*
X143681476Y-122833110D01*
X143511645Y-122423076D01*
X143234292Y-122118739D01*
X143337765Y-122098157D01*
X143547809Y-121957809D01*
X143688157Y-121747765D01*
X143737440Y-121500000D01*
X143737440Y-119800000D01*
X143688157Y-119552235D01*
X143547809Y-119342191D01*
X143337765Y-119201843D01*
X143090000Y-119152560D01*
X141390000Y-119152560D01*
X141142235Y-119201843D01*
X140932191Y-119342191D01*
X140791843Y-119552235D01*
X140742560Y-119800000D01*
X140742560Y-119890000D01*
X138744803Y-119890000D01*
X137387440Y-118532638D01*
X137387440Y-117260000D01*
X137338157Y-117012235D01*
X137197809Y-116802191D01*
X137182704Y-116792098D01*
X137549477Y-116425326D01*
X137612930Y-116382928D01*
X137655328Y-116319475D01*
X137655330Y-116319473D01*
X137780904Y-116131537D01*
X137780905Y-116131536D01*
X137825001Y-115909851D01*
X137825001Y-115909847D01*
X137839889Y-115835000D01*
X137825001Y-115760153D01*
X137825001Y-104289847D01*
X137839889Y-104215000D01*
X137825001Y-104140153D01*
X137825001Y-104140149D01*
X137780905Y-103918464D01*
X137612930Y-103667072D01*
X137567970Y-103637031D01*
X137537929Y-103592071D01*
X137387440Y-103491517D01*
X137387440Y-103290000D01*
X137338157Y-103042235D01*
X137197809Y-102832191D01*
X136987765Y-102691843D01*
X136740000Y-102642560D01*
X136538483Y-102642560D01*
X136437929Y-102492071D01*
X136374473Y-102449671D01*
X135285001Y-101360200D01*
X135285001Y-99128712D01*
X135533110Y-99231476D01*
X135763000Y-99110155D01*
X135763000Y-97917000D01*
X136017000Y-97917000D01*
X136017000Y-99110155D01*
X136246890Y-99231476D01*
X136656924Y-99061645D01*
X137085183Y-98671358D01*
X137331486Y-98146892D01*
X137210819Y-97917000D01*
X136017000Y-97917000D01*
X135763000Y-97917000D01*
X135743000Y-97917000D01*
X135743000Y-97663000D01*
X135763000Y-97663000D01*
X135763000Y-96469845D01*
X136017000Y-96469845D01*
X136017000Y-97663000D01*
X137210819Y-97663000D01*
X137331486Y-97433108D01*
X137085183Y-96908642D01*
X136656924Y-96518355D01*
X136246890Y-96348524D01*
X136017000Y-96469845D01*
X135763000Y-96469845D01*
X135533110Y-96348524D01*
X135285001Y-96451288D01*
X135285001Y-94195000D01*
X135604250Y-94195000D01*
X135763000Y-94036250D01*
X135763000Y-92837000D01*
X136017000Y-92837000D01*
X136017000Y-94036250D01*
X136175750Y-94195000D01*
X136866309Y-94195000D01*
X137099698Y-94098327D01*
X137278327Y-93919699D01*
X137375000Y-93686310D01*
X137375000Y-92995750D01*
X137216250Y-92837000D01*
X136017000Y-92837000D01*
X135763000Y-92837000D01*
X135743000Y-92837000D01*
X135743000Y-92583000D01*
X135763000Y-92583000D01*
X135763000Y-92563000D01*
X136017000Y-92563000D01*
X136017000Y-92583000D01*
X137216250Y-92583000D01*
X137375000Y-92424250D01*
X137375000Y-91733690D01*
X137278327Y-91500301D01*
X137099698Y-91321673D01*
X136938967Y-91255096D01*
X136960625Y-91240625D01*
X137288839Y-90749418D01*
X137404092Y-90170000D01*
X137288839Y-89590582D01*
X136960625Y-89099375D01*
X136662239Y-88900000D01*
X136960625Y-88700625D01*
X137288839Y-88209418D01*
X137404092Y-87630000D01*
X137288839Y-87050582D01*
X136960625Y-86559375D01*
X136662239Y-86360000D01*
X136960625Y-86160625D01*
X137288839Y-85669418D01*
X137404092Y-85090000D01*
X137288839Y-84510582D01*
X136960625Y-84019375D01*
X136662239Y-83820000D01*
X136960625Y-83620625D01*
X137288839Y-83129418D01*
X137404092Y-82550000D01*
X137288839Y-81970582D01*
X136960625Y-81479375D01*
X136469418Y-81151161D01*
X136036256Y-81065000D01*
X135743744Y-81065000D01*
X135310582Y-81151161D01*
X134819375Y-81479375D01*
X134491161Y-81970582D01*
X134375908Y-82550000D01*
X134448791Y-82916408D01*
X134040531Y-83324668D01*
X133977072Y-83367070D01*
X133809097Y-83618463D01*
X133765001Y-83840148D01*
X133765001Y-83840152D01*
X133750113Y-83914999D01*
X133765001Y-83989846D01*
X133765002Y-96292560D01*
X132500000Y-96292560D01*
X132252235Y-96341843D01*
X132042191Y-96482191D01*
X131901843Y-96692235D01*
X131852560Y-96940000D01*
X131852560Y-98640000D01*
X131901843Y-98887765D01*
X132042191Y-99097809D01*
X132252235Y-99238157D01*
X132500000Y-99287440D01*
X133765002Y-99287440D01*
X133765002Y-100840000D01*
X113187440Y-100840000D01*
X113187440Y-100820000D01*
X113138157Y-100572235D01*
X112997809Y-100362191D01*
X112787765Y-100221843D01*
X112540000Y-100172560D01*
X110980000Y-100172560D01*
X110732235Y-100221843D01*
X110522191Y-100362191D01*
X110381843Y-100572235D01*
X110350570Y-100729458D01*
X110021533Y-100400421D01*
X109501461Y-100185000D01*
X108938539Y-100185000D01*
X108418467Y-100400421D01*
X108020421Y-100798467D01*
X107950000Y-100968478D01*
X107879579Y-100798467D01*
X107481533Y-100400421D01*
X106961461Y-100185000D01*
X106398539Y-100185000D01*
X105878467Y-100400421D01*
X105480421Y-100798467D01*
X105410000Y-100968478D01*
X105339579Y-100798467D01*
X104941533Y-100400421D01*
X104421461Y-100185000D01*
X103858539Y-100185000D01*
X103338467Y-100400421D01*
X102940421Y-100798467D01*
X102870000Y-100968478D01*
X102799579Y-100798467D01*
X102401533Y-100400421D01*
X101881461Y-100185000D01*
X101318539Y-100185000D01*
X100798467Y-100400421D01*
X100400421Y-100798467D01*
X100330000Y-100968478D01*
X100259579Y-100798467D01*
X99861533Y-100400421D01*
X99341461Y-100185000D01*
X98778539Y-100185000D01*
X98258467Y-100400421D01*
X97860421Y-100798467D01*
X97790000Y-100968478D01*
X97719579Y-100798467D01*
X97321533Y-100400421D01*
X96801461Y-100185000D01*
X96238539Y-100185000D01*
X95718467Y-100400421D01*
X95320421Y-100798467D01*
X95250000Y-100968478D01*
X95179579Y-100798467D01*
X94781533Y-100400421D01*
X94261461Y-100185000D01*
X93698539Y-100185000D01*
X93178467Y-100400421D01*
X92780421Y-100798467D01*
X92710000Y-100968478D01*
X92639579Y-100798467D01*
X92241533Y-100400421D01*
X91721461Y-100185000D01*
X91158539Y-100185000D01*
X90638467Y-100400421D01*
X90240421Y-100798467D01*
X90170000Y-100968478D01*
X90099579Y-100798467D01*
X89701533Y-100400421D01*
X89181461Y-100185000D01*
X88618539Y-100185000D01*
X88098467Y-100400421D01*
X87700421Y-100798467D01*
X87630000Y-100968478D01*
X87559579Y-100798467D01*
X87161533Y-100400421D01*
X86641461Y-100185000D01*
X86078539Y-100185000D01*
X85558467Y-100400421D01*
X85160421Y-100798467D01*
X85090000Y-100968478D01*
X85019579Y-100798467D01*
X84621533Y-100400421D01*
X84101461Y-100185000D01*
X83538539Y-100185000D01*
X83018467Y-100400421D01*
X82620421Y-100798467D01*
X82550000Y-100968478D01*
X82479579Y-100798467D01*
X82081533Y-100400421D01*
X81561461Y-100185000D01*
X80998539Y-100185000D01*
X80478467Y-100400421D01*
X80080421Y-100798467D01*
X80016527Y-100952722D01*
X79977303Y-100858028D01*
X79733255Y-100786350D01*
X78919605Y-101600000D01*
X78560395Y-101600000D01*
X77746745Y-100786350D01*
X77502697Y-100858028D01*
X77466326Y-100959609D01*
X77399579Y-100798467D01*
X77207857Y-100606745D01*
X77926350Y-100606745D01*
X78740000Y-101420395D01*
X79553650Y-100606745D01*
X79481972Y-100362697D01*
X78951997Y-100172940D01*
X78389748Y-100200441D01*
X77998028Y-100362697D01*
X77926350Y-100606745D01*
X77207857Y-100606745D01*
X77001533Y-100400421D01*
X76481461Y-100185000D01*
X75918539Y-100185000D01*
X75398467Y-100400421D01*
X75000421Y-100798467D01*
X74930000Y-100968478D01*
X74859579Y-100798467D01*
X74461533Y-100400421D01*
X73941461Y-100185000D01*
X73378539Y-100185000D01*
X72858467Y-100400421D01*
X72460421Y-100798467D01*
X72390000Y-100968478D01*
X72319579Y-100798467D01*
X71921533Y-100400421D01*
X71401461Y-100185000D01*
X70838539Y-100185000D01*
X70318467Y-100400421D01*
X69920421Y-100798467D01*
X69850000Y-100968478D01*
X69779579Y-100798467D01*
X69381533Y-100400421D01*
X68861461Y-100185000D01*
X68298539Y-100185000D01*
X67778467Y-100400421D01*
X67380421Y-100798467D01*
X67310000Y-100968478D01*
X67239579Y-100798467D01*
X66841533Y-100400421D01*
X66321461Y-100185000D01*
X65758539Y-100185000D01*
X65238467Y-100400421D01*
X64840421Y-100798467D01*
X64625000Y-101318539D01*
X62940000Y-101318539D01*
X62940000Y-77532119D01*
X62984065Y-77282213D01*
X63079405Y-77117080D01*
X63225477Y-76994512D01*
X63434465Y-76918445D01*
X63530996Y-76910000D01*
X154877881Y-76910000D01*
X155127787Y-76954065D01*
X155127787Y-76954065D01*
G37*
X155127787Y-76954065D02*
X155292920Y-77049405D01*
X155415488Y-77195477D01*
X155491555Y-77404465D01*
X155500000Y-77500996D01*
X155500001Y-128207875D01*
X155455935Y-128457787D01*
X155360596Y-128622919D01*
X155214524Y-128745488D01*
X155005532Y-128821555D01*
X154909004Y-128830000D01*
X140229863Y-128830000D01*
X140247929Y-128817929D01*
X140290331Y-128754470D01*
X141873593Y-127171209D01*
X142093744Y-127215000D01*
X142386256Y-127215000D01*
X142819418Y-127128839D01*
X143310625Y-126800625D01*
X143638839Y-126309418D01*
X143754092Y-125730000D01*
X143638839Y-125150582D01*
X143310625Y-124659375D01*
X142991522Y-124446157D01*
X143121358Y-124385183D01*
X143511645Y-123956924D01*
X143681476Y-123546890D01*
X143560155Y-123317000D01*
X142367000Y-123317000D01*
X142367000Y-123337000D01*
X142113000Y-123337000D01*
X142113000Y-123317000D01*
X140919845Y-123317000D01*
X140798524Y-123546890D01*
X140968355Y-123956924D01*
X141358642Y-124385183D01*
X141488478Y-124446157D01*
X141169375Y-124659375D01*
X140841161Y-125150582D01*
X140725908Y-125730000D01*
X140798791Y-126096407D01*
X139385199Y-127510000D01*
X113080360Y-127510000D01*
X113187060Y-127211997D01*
X113159559Y-126649748D01*
X112997303Y-126258028D01*
X112753255Y-126186350D01*
X111939605Y-127000000D01*
X111953748Y-127014143D01*
X111774143Y-127193748D01*
X111760000Y-127179605D01*
X111745858Y-127193748D01*
X111566253Y-127014143D01*
X111580395Y-127000000D01*
X110766745Y-126186350D01*
X110522697Y-126258028D01*
X110486326Y-126359609D01*
X110419579Y-126198467D01*
X110227857Y-126006745D01*
X110946350Y-126006745D01*
X111760000Y-126820395D01*
X112573650Y-126006745D01*
X112501972Y-125762697D01*
X111971997Y-125572940D01*
X111409748Y-125600441D01*
X111018028Y-125762697D01*
X110946350Y-126006745D01*
X110227857Y-126006745D01*
X110021533Y-125800421D01*
X109501461Y-125585000D01*
X108938539Y-125585000D01*
X108418467Y-125800421D01*
X108020421Y-126198467D01*
X107950000Y-126368478D01*
X107879579Y-126198467D01*
X107481533Y-125800421D01*
X106961461Y-125585000D01*
X106398539Y-125585000D01*
X105878467Y-125800421D01*
X105480421Y-126198467D01*
X105410000Y-126368478D01*
X105339579Y-126198467D01*
X104941533Y-125800421D01*
X104421461Y-125585000D01*
X103858539Y-125585000D01*
X103338467Y-125800421D01*
X102940421Y-126198467D01*
X102870000Y-126368478D01*
X102799579Y-126198467D01*
X102401533Y-125800421D01*
X101881461Y-125585000D01*
X101549801Y-125585000D01*
X102254801Y-124880000D01*
X121692560Y-124880000D01*
X121692560Y-126580000D01*
X121741843Y-126827765D01*
X121882191Y-127037809D01*
X122092235Y-127178157D01*
X122340000Y-127227440D01*
X124040000Y-127227440D01*
X124287765Y-127178157D01*
X124497809Y-127037809D01*
X124638157Y-126827765D01*
X124687440Y-126580000D01*
X124687440Y-124880000D01*
X124638157Y-124632235D01*
X124497809Y-124422191D01*
X124287765Y-124281843D01*
X124184292Y-124261261D01*
X124461645Y-123956924D01*
X124631476Y-123546890D01*
X124510155Y-123317000D01*
X123317000Y-123317000D01*
X123317000Y-123337000D01*
X123063000Y-123337000D01*
X123063000Y-123317000D01*
X121869845Y-123317000D01*
X121748524Y-123546890D01*
X121918355Y-123956924D01*
X122195708Y-124261261D01*
X122092235Y-124281843D01*
X121882191Y-124422191D01*
X121741843Y-124632235D01*
X121692560Y-124880000D01*
X102254801Y-124880000D01*
X103944801Y-123190000D01*
X128025908Y-123190000D01*
X128141161Y-123769418D01*
X128469375Y-124260625D01*
X128767761Y-124460000D01*
X128469375Y-124659375D01*
X128141161Y-125150582D01*
X128025908Y-125730000D01*
X128141161Y-126309418D01*
X128469375Y-126800625D01*
X128960582Y-127128839D01*
X129393744Y-127215000D01*
X129686256Y-127215000D01*
X130119418Y-127128839D01*
X130610625Y-126800625D01*
X130938839Y-126309418D01*
X131054092Y-125730000D01*
X130938839Y-125150582D01*
X130610625Y-124659375D01*
X130312239Y-124460000D01*
X130610625Y-124260625D01*
X130938839Y-123769418D01*
X131054092Y-123190000D01*
X130938839Y-122610582D01*
X130610625Y-122119375D01*
X130291522Y-121906157D01*
X130421358Y-121845183D01*
X130811645Y-121416924D01*
X130981476Y-121006890D01*
X130860155Y-120777000D01*
X129667000Y-120777000D01*
X129667000Y-120797000D01*
X129413000Y-120797000D01*
X129413000Y-120777000D01*
X128219845Y-120777000D01*
X128098524Y-121006890D01*
X128268355Y-121416924D01*
X128658642Y-121845183D01*
X128788478Y-121906157D01*
X128469375Y-122119375D01*
X128141161Y-122610582D01*
X128025908Y-123190000D01*
X103944801Y-123190000D01*
X104454802Y-122680000D01*
X114866289Y-122680000D01*
X114983720Y-122797431D01*
X115364126Y-122955000D01*
X115775874Y-122955000D01*
X116070143Y-122833110D01*
X121748524Y-122833110D01*
X121869845Y-123063000D01*
X123063000Y-123063000D01*
X123063000Y-121869181D01*
X123317000Y-121869181D01*
X123317000Y-123063000D01*
X124510155Y-123063000D01*
X124631476Y-122833110D01*
X124461645Y-122423076D01*
X124071358Y-121994817D01*
X123546892Y-121748514D01*
X123317000Y-121869181D01*
X123063000Y-121869181D01*
X122833108Y-121748514D01*
X122308642Y-121994817D01*
X121918355Y-122423076D01*
X121748524Y-122833110D01*
X116070143Y-122833110D01*
X116156280Y-122797431D01*
X116447431Y-122506280D01*
X116605000Y-122125874D01*
X116605000Y-121714126D01*
X116447431Y-121333720D01*
X116156280Y-121042569D01*
X115775874Y-120885000D01*
X115364126Y-120885000D01*
X114983720Y-121042569D01*
X114866289Y-121160000D01*
X104214847Y-121160000D01*
X104140000Y-121145112D01*
X104065153Y-121160000D01*
X104065148Y-121160000D01*
X103843463Y-121204096D01*
X103592071Y-121372071D01*
X103549671Y-121435527D01*
X99382995Y-125602204D01*
X99341461Y-125585000D01*
X98778539Y-125585000D01*
X98258467Y-125800421D01*
X97860421Y-126198467D01*
X97796527Y-126352722D01*
X97757303Y-126258028D01*
X97513255Y-126186350D01*
X96699605Y-127000000D01*
X97513255Y-127813650D01*
X97757303Y-127741972D01*
X97793674Y-127640391D01*
X97860421Y-127801533D01*
X98258467Y-128199579D01*
X98778539Y-128415000D01*
X99341461Y-128415000D01*
X99861533Y-128199579D01*
X100259579Y-127801533D01*
X100330000Y-127631522D01*
X100400421Y-127801533D01*
X100798467Y-128199579D01*
X101318539Y-128415000D01*
X101881461Y-128415000D01*
X102401533Y-128199579D01*
X102799579Y-127801533D01*
X102870000Y-127631522D01*
X102940421Y-127801533D01*
X103338467Y-128199579D01*
X103858539Y-128415000D01*
X104421461Y-128415000D01*
X104941533Y-128199579D01*
X105339579Y-127801533D01*
X105410000Y-127631522D01*
X105480421Y-127801533D01*
X105878467Y-128199579D01*
X106398539Y-128415000D01*
X106961461Y-128415000D01*
X107481533Y-128199579D01*
X107879579Y-127801533D01*
X107950000Y-127631522D01*
X108020421Y-127801533D01*
X108418467Y-128199579D01*
X108938539Y-128415000D01*
X109501461Y-128415000D01*
X109542995Y-128397796D01*
X109899671Y-128754472D01*
X109942071Y-128817929D01*
X109960137Y-128830000D01*
X63562119Y-128830000D01*
X63312213Y-128785935D01*
X63147081Y-128690596D01*
X63024512Y-128544524D01*
X62948445Y-128335532D01*
X62940000Y-128239004D01*
X62940000Y-126718539D01*
X64625000Y-126718539D01*
X64625000Y-127281461D01*
X64840421Y-127801533D01*
X65238467Y-128199579D01*
X65758539Y-128415000D01*
X66321461Y-128415000D01*
X66841533Y-128199579D01*
X67239579Y-127801533D01*
X67310000Y-127631522D01*
X67380421Y-127801533D01*
X67778467Y-128199579D01*
X68298539Y-128415000D01*
X68861461Y-128415000D01*
X69381533Y-128199579D01*
X69779579Y-127801533D01*
X69850000Y-127631522D01*
X69920421Y-127801533D01*
X70318467Y-128199579D01*
X70838539Y-128415000D01*
X71401461Y-128415000D01*
X71921533Y-128199579D01*
X72319579Y-127801533D01*
X72390000Y-127631522D01*
X72460421Y-127801533D01*
X72858467Y-128199579D01*
X73378539Y-128415000D01*
X73941461Y-128415000D01*
X74461533Y-128199579D01*
X74859579Y-127801533D01*
X74930000Y-127631522D01*
X75000421Y-127801533D01*
X75398467Y-128199579D01*
X75918539Y-128415000D01*
X76481461Y-128415000D01*
X77001533Y-128199579D01*
X77399579Y-127801533D01*
X77470000Y-127631522D01*
X77540421Y-127801533D01*
X77938467Y-128199579D01*
X78458539Y-128415000D01*
X79021461Y-128415000D01*
X79541533Y-128199579D01*
X79939579Y-127801533D01*
X80010000Y-127631522D01*
X80080421Y-127801533D01*
X80478467Y-128199579D01*
X80998539Y-128415000D01*
X81561461Y-128415000D01*
X82081533Y-128199579D01*
X82479579Y-127801533D01*
X82550000Y-127631522D01*
X82620421Y-127801533D01*
X83018467Y-128199579D01*
X83538539Y-128415000D01*
X84101461Y-128415000D01*
X84621533Y-128199579D01*
X85019579Y-127801533D01*
X85090000Y-127631522D01*
X85160421Y-127801533D01*
X85558467Y-128199579D01*
X86078539Y-128415000D01*
X86641461Y-128415000D01*
X87161533Y-128199579D01*
X87559579Y-127801533D01*
X87630000Y-127631522D01*
X87700421Y-127801533D01*
X88098467Y-128199579D01*
X88618539Y-128415000D01*
X89181461Y-128415000D01*
X89701533Y-128199579D01*
X90099579Y-127801533D01*
X90170000Y-127631522D01*
X90240421Y-127801533D01*
X90638467Y-128199579D01*
X91158539Y-128415000D01*
X91721461Y-128415000D01*
X92241533Y-128199579D01*
X92639579Y-127801533D01*
X92710000Y-127631522D01*
X92780421Y-127801533D01*
X93178467Y-128199579D01*
X93698539Y-128415000D01*
X94261461Y-128415000D01*
X94781533Y-128199579D01*
X94987857Y-127993255D01*
X95706350Y-127993255D01*
X95778028Y-128237303D01*
X96308003Y-128427060D01*
X96870252Y-128399559D01*
X97261972Y-128237303D01*
X97333650Y-127993255D01*
X96520000Y-127179605D01*
X95706350Y-127993255D01*
X94987857Y-127993255D01*
X95179579Y-127801533D01*
X95243473Y-127647278D01*
X95282697Y-127741972D01*
X95526745Y-127813650D01*
X96340395Y-127000000D01*
X95526745Y-126186350D01*
X95282697Y-126258028D01*
X95246326Y-126359609D01*
X95179579Y-126198467D01*
X94987857Y-126006745D01*
X95706350Y-126006745D01*
X96520000Y-126820395D01*
X97333650Y-126006745D01*
X97261972Y-125762697D01*
X96731997Y-125572940D01*
X96169748Y-125600441D01*
X95778028Y-125762697D01*
X95706350Y-126006745D01*
X94987857Y-126006745D01*
X94781533Y-125800421D01*
X94261461Y-125585000D01*
X93698539Y-125585000D01*
X93178467Y-125800421D01*
X92780421Y-126198467D01*
X92710000Y-126368478D01*
X92639579Y-126198467D01*
X92241533Y-125800421D01*
X91721461Y-125585000D01*
X91158539Y-125585000D01*
X90638467Y-125800421D01*
X90240421Y-126198467D01*
X90170000Y-126368478D01*
X90099579Y-126198467D01*
X89701533Y-125800421D01*
X89181461Y-125585000D01*
X88618539Y-125585000D01*
X88098467Y-125800421D01*
X87700421Y-126198467D01*
X87630000Y-126368478D01*
X87559579Y-126198467D01*
X87161533Y-125800421D01*
X86641461Y-125585000D01*
X86078539Y-125585000D01*
X85558467Y-125800421D01*
X85160421Y-126198467D01*
X85090000Y-126368478D01*
X85019579Y-126198467D01*
X84621533Y-125800421D01*
X84101461Y-125585000D01*
X83538539Y-125585000D01*
X83018467Y-125800421D01*
X82620421Y-126198467D01*
X82550000Y-126368478D01*
X82479579Y-126198467D01*
X82081533Y-125800421D01*
X81561461Y-125585000D01*
X80998539Y-125585000D01*
X80478467Y-125800421D01*
X80080421Y-126198467D01*
X80010000Y-126368478D01*
X79939579Y-126198467D01*
X79541533Y-125800421D01*
X79021461Y-125585000D01*
X78458539Y-125585000D01*
X77938467Y-125800421D01*
X77540421Y-126198467D01*
X77470000Y-126368478D01*
X77399579Y-126198467D01*
X77001533Y-125800421D01*
X76481461Y-125585000D01*
X75918539Y-125585000D01*
X75398467Y-125800421D01*
X75000421Y-126198467D01*
X74930000Y-126368478D01*
X74859579Y-126198467D01*
X74461533Y-125800421D01*
X73941461Y-125585000D01*
X73378539Y-125585000D01*
X72858467Y-125800421D01*
X72460421Y-126198467D01*
X72390000Y-126368478D01*
X72319579Y-126198467D01*
X71921533Y-125800421D01*
X71401461Y-125585000D01*
X70838539Y-125585000D01*
X70318467Y-125800421D01*
X69920421Y-126198467D01*
X69850000Y-126368478D01*
X69779579Y-126198467D01*
X69381533Y-125800421D01*
X68861461Y-125585000D01*
X68298539Y-125585000D01*
X67778467Y-125800421D01*
X67380421Y-126198467D01*
X67310000Y-126368478D01*
X67239579Y-126198467D01*
X66841533Y-125800421D01*
X66321461Y-125585000D01*
X65758539Y-125585000D01*
X65238467Y-125800421D01*
X64840421Y-126198467D01*
X64625000Y-126718539D01*
X62940000Y-126718539D01*
X62940000Y-121654452D01*
X69785000Y-121654452D01*
X69785000Y-122185548D01*
X69988242Y-122676217D01*
X70363783Y-123051758D01*
X70854452Y-123255000D01*
X71385548Y-123255000D01*
X71876217Y-123051758D01*
X72251758Y-122676217D01*
X72455000Y-122185548D01*
X72455000Y-121920000D01*
X74838846Y-121920000D01*
X74942458Y-122440891D01*
X75237519Y-122882481D01*
X75679109Y-123177542D01*
X76068515Y-123255000D01*
X76331485Y-123255000D01*
X76720891Y-123177542D01*
X77162481Y-122882481D01*
X77457542Y-122440891D01*
X77561154Y-121920000D01*
X77457542Y-121399109D01*
X77162481Y-120957519D01*
X76720891Y-120662458D01*
X76331485Y-120585000D01*
X76068515Y-120585000D01*
X75679109Y-120662458D01*
X75237519Y-120957519D01*
X74942458Y-121399109D01*
X74838846Y-121920000D01*
X72455000Y-121920000D01*
X72455000Y-121654452D01*
X72251758Y-121163783D01*
X71876217Y-120788242D01*
X71385548Y-120585000D01*
X70854452Y-120585000D01*
X70363783Y-120788242D01*
X69988242Y-121163783D01*
X69785000Y-121654452D01*
X62940000Y-121654452D01*
X62940000Y-117260000D01*
X121692560Y-117260000D01*
X121692560Y-118960000D01*
X121741843Y-119207765D01*
X121882191Y-119417809D01*
X122092235Y-119558157D01*
X122340000Y-119607440D01*
X124040000Y-119607440D01*
X124287765Y-119558157D01*
X124497809Y-119417809D01*
X124638157Y-119207765D01*
X124687440Y-118960000D01*
X124687440Y-117260000D01*
X124638157Y-117012235D01*
X124497809Y-116802191D01*
X124287765Y-116661843D01*
X124184292Y-116641261D01*
X124461645Y-116336924D01*
X124631476Y-115926890D01*
X124510155Y-115697000D01*
X123317000Y-115697000D01*
X123317000Y-115717000D01*
X123063000Y-115717000D01*
X123063000Y-115697000D01*
X121869845Y-115697000D01*
X121748524Y-115926890D01*
X121918355Y-116336924D01*
X122195708Y-116641261D01*
X122092235Y-116661843D01*
X121882191Y-116802191D01*
X121741843Y-117012235D01*
X121692560Y-117260000D01*
X62940000Y-117260000D01*
X62940000Y-115213110D01*
X121748524Y-115213110D01*
X121869845Y-115443000D01*
X123063000Y-115443000D01*
X123063000Y-114249181D01*
X123317000Y-114249181D01*
X123317000Y-115443000D01*
X124510155Y-115443000D01*
X124631476Y-115213110D01*
X124461645Y-114803076D01*
X124071358Y-114374817D01*
X123546892Y-114128514D01*
X123317000Y-114249181D01*
X123063000Y-114249181D01*
X122833108Y-114128514D01*
X122308642Y-114374817D01*
X121918355Y-114803076D01*
X121748524Y-115213110D01*
X62940000Y-115213110D01*
X62940000Y-101318539D01*
X64625000Y-101318539D01*
X64625000Y-101881461D01*
X64840421Y-102401533D01*
X65238467Y-102799579D01*
X65758539Y-103015000D01*
X66321461Y-103015000D01*
X66362995Y-102997796D01*
X70529671Y-107164473D01*
X70572071Y-107227929D01*
X70823463Y-107395904D01*
X71045148Y-107440000D01*
X71045153Y-107440000D01*
X71120000Y-107454888D01*
X71194847Y-107440000D01*
X128261822Y-107440000D01*
X128469375Y-107750625D01*
X128767761Y-107950000D01*
X128469375Y-108149375D01*
X128141161Y-108640582D01*
X128025908Y-109220000D01*
X128141161Y-109799418D01*
X128469375Y-110290625D01*
X128767761Y-110490000D01*
X128469375Y-110689375D01*
X128141161Y-111180582D01*
X128025908Y-111760000D01*
X128141161Y-112339418D01*
X128469375Y-112830625D01*
X128960582Y-113158839D01*
X129393744Y-113245000D01*
X129686256Y-113245000D01*
X130119418Y-113158839D01*
X130610625Y-112830625D01*
X130938839Y-112339418D01*
X131054092Y-111760000D01*
X130938839Y-111180582D01*
X130610625Y-110689375D01*
X130312239Y-110490000D01*
X130610625Y-110290625D01*
X130938839Y-109799418D01*
X131054092Y-109220000D01*
X130938839Y-108640582D01*
X130610625Y-108149375D01*
X130312239Y-107950000D01*
X130610625Y-107750625D01*
X130938839Y-107259418D01*
X131054092Y-106680000D01*
X130938839Y-106100582D01*
X130610625Y-105609375D01*
X130588967Y-105594904D01*
X130749698Y-105528327D01*
X130928327Y-105349699D01*
X131025000Y-105116310D01*
X131025000Y-104425750D01*
X130866250Y-104267000D01*
X129667000Y-104267000D01*
X129667000Y-104287000D01*
X129413000Y-104287000D01*
X129413000Y-104267000D01*
X128213750Y-104267000D01*
X128055000Y-104425750D01*
X128055000Y-105116310D01*
X128151673Y-105349699D01*
X128330302Y-105528327D01*
X128491033Y-105594904D01*
X128469375Y-105609375D01*
X128261822Y-105920000D01*
X71434802Y-105920000D01*
X68678492Y-103163690D01*
X128055000Y-103163690D01*
X128055000Y-103854250D01*
X128213750Y-104013000D01*
X129413000Y-104013000D01*
X129413000Y-102813750D01*
X129667000Y-102813750D01*
X129667000Y-104013000D01*
X130866250Y-104013000D01*
X131025000Y-103854250D01*
X131025000Y-103163690D01*
X130928327Y-102930301D01*
X130749698Y-102751673D01*
X130516309Y-102655000D01*
X129825750Y-102655000D01*
X129667000Y-102813750D01*
X129413000Y-102813750D01*
X129254250Y-102655000D01*
X128563691Y-102655000D01*
X128330302Y-102751673D01*
X128151673Y-102930301D01*
X128055000Y-103163690D01*
X68678492Y-103163690D01*
X68529801Y-103015000D01*
X68861461Y-103015000D01*
X69381533Y-102799579D01*
X69779579Y-102401533D01*
X69850000Y-102231522D01*
X69920421Y-102401533D01*
X70318467Y-102799579D01*
X70838539Y-103015000D01*
X71401461Y-103015000D01*
X71921533Y-102799579D01*
X72319579Y-102401533D01*
X72390000Y-102231522D01*
X72460421Y-102401533D01*
X72858467Y-102799579D01*
X73378539Y-103015000D01*
X73941461Y-103015000D01*
X74461533Y-102799579D01*
X74859579Y-102401533D01*
X74930000Y-102231522D01*
X75000421Y-102401533D01*
X75398467Y-102799579D01*
X75918539Y-103015000D01*
X76481461Y-103015000D01*
X77001533Y-102799579D01*
X77207857Y-102593255D01*
X77926350Y-102593255D01*
X77998028Y-102837303D01*
X78528003Y-103027060D01*
X79090252Y-102999559D01*
X79481972Y-102837303D01*
X79553650Y-102593255D01*
X78740000Y-101779605D01*
X77926350Y-102593255D01*
X77207857Y-102593255D01*
X77399579Y-102401533D01*
X77463473Y-102247278D01*
X77502697Y-102341972D01*
X77746745Y-102413650D01*
X78560395Y-101600000D01*
X78919605Y-101600000D01*
X79733255Y-102413650D01*
X79977303Y-102341972D01*
X80013674Y-102240391D01*
X80080421Y-102401533D01*
X80478467Y-102799579D01*
X80998539Y-103015000D01*
X81561461Y-103015000D01*
X82081533Y-102799579D01*
X82479579Y-102401533D01*
X82550000Y-102231522D01*
X82620421Y-102401533D01*
X83018467Y-102799579D01*
X83538539Y-103015000D01*
X84101461Y-103015000D01*
X84621533Y-102799579D01*
X85019579Y-102401533D01*
X85090000Y-102231522D01*
X85160421Y-102401533D01*
X85558467Y-102799579D01*
X86078539Y-103015000D01*
X86641461Y-103015000D01*
X87161533Y-102799579D01*
X87559579Y-102401533D01*
X87630000Y-102231522D01*
X87700421Y-102401533D01*
X88098467Y-102799579D01*
X88618539Y-103015000D01*
X89181461Y-103015000D01*
X89701533Y-102799579D01*
X90099579Y-102401533D01*
X90170000Y-102231522D01*
X90240421Y-102401533D01*
X90638467Y-102799579D01*
X91158539Y-103015000D01*
X91721461Y-103015000D01*
X92241533Y-102799579D01*
X92639579Y-102401533D01*
X92710000Y-102231522D01*
X92780421Y-102401533D01*
X93178467Y-102799579D01*
X93698539Y-103015000D01*
X94261461Y-103015000D01*
X94781533Y-102799579D01*
X95179579Y-102401533D01*
X95250000Y-102231522D01*
X95320421Y-102401533D01*
X95718467Y-102799579D01*
X96238539Y-103015000D01*
X96801461Y-103015000D01*
X97321533Y-102799579D01*
X97719579Y-102401533D01*
X97790000Y-102231522D01*
X97860421Y-102401533D01*
X98258467Y-102799579D01*
X98778539Y-103015000D01*
X99341461Y-103015000D01*
X99861533Y-102799579D01*
X100259579Y-102401533D01*
X100330000Y-102231522D01*
X100400421Y-102401533D01*
X100798467Y-102799579D01*
X101318539Y-103015000D01*
X101881461Y-103015000D01*
X102401533Y-102799579D01*
X102799579Y-102401533D01*
X102870000Y-102231522D01*
X102940421Y-102401533D01*
X103338467Y-102799579D01*
X103858539Y-103015000D01*
X104421461Y-103015000D01*
X104941533Y-102799579D01*
X105339579Y-102401533D01*
X105410000Y-102231522D01*
X105480421Y-102401533D01*
X105878467Y-102799579D01*
X106398539Y-103015000D01*
X106961461Y-103015000D01*
X107481533Y-102799579D01*
X107879579Y-102401533D01*
X107950000Y-102231522D01*
X108020421Y-102401533D01*
X108418467Y-102799579D01*
X108938539Y-103015000D01*
X109501461Y-103015000D01*
X110021533Y-102799579D01*
X110350570Y-102470542D01*
X110381843Y-102627765D01*
X110522191Y-102837809D01*
X110732235Y-102978157D01*
X110980000Y-103027440D01*
X112540000Y-103027440D01*
X112787765Y-102978157D01*
X112997809Y-102837809D01*
X113138157Y-102627765D01*
X113187440Y-102380000D01*
X113187440Y-102360000D01*
X134135199Y-102360000D01*
X134597296Y-102822098D01*
X134582191Y-102832191D01*
X134441843Y-103042235D01*
X134392560Y-103290000D01*
X134392560Y-104990000D01*
X134441843Y-105237765D01*
X134582191Y-105447809D01*
X134792235Y-105588157D01*
X134895708Y-105608739D01*
X134618355Y-105913076D01*
X134448524Y-106323110D01*
X134569845Y-106553000D01*
X135763000Y-106553000D01*
X135763000Y-106533000D01*
X136017000Y-106533000D01*
X136017000Y-106553000D01*
X136037000Y-106553000D01*
X136037000Y-106807000D01*
X136017000Y-106807000D01*
X136017000Y-106827000D01*
X135763000Y-106827000D01*
X135763000Y-106807000D01*
X134569845Y-106807000D01*
X134448524Y-107036890D01*
X134618355Y-107446924D01*
X135008642Y-107875183D01*
X135138478Y-107936157D01*
X134819375Y-108149375D01*
X134491161Y-108640582D01*
X134375908Y-109220000D01*
X134491161Y-109799418D01*
X134819375Y-110290625D01*
X135117761Y-110490000D01*
X134819375Y-110689375D01*
X134491161Y-111180582D01*
X134375908Y-111760000D01*
X134491161Y-112339418D01*
X134819375Y-112830625D01*
X135310582Y-113158839D01*
X135743744Y-113245000D01*
X136036256Y-113245000D01*
X136305001Y-113191543D01*
X136305001Y-115520196D01*
X135405528Y-116419671D01*
X135342072Y-116462071D01*
X135299672Y-116525527D01*
X135299671Y-116525528D01*
X135241518Y-116612560D01*
X135040000Y-116612560D01*
X134792235Y-116661843D01*
X134582191Y-116802191D01*
X134441843Y-117012235D01*
X134392560Y-117260000D01*
X134392560Y-117350000D01*
X131037440Y-117350000D01*
X131037440Y-117260000D01*
X130988157Y-117012235D01*
X130847809Y-116802191D01*
X130637765Y-116661843D01*
X130390000Y-116612560D01*
X128690000Y-116612560D01*
X128442235Y-116661843D01*
X128232191Y-116802191D01*
X128091843Y-117012235D01*
X128042560Y-117260000D01*
X128042560Y-118960000D01*
X128091843Y-119207765D01*
X128232191Y-119417809D01*
X128442235Y-119558157D01*
X128545708Y-119578739D01*
X128268355Y-119883076D01*
X128098524Y-120293110D01*
X128219845Y-120523000D01*
X129413000Y-120523000D01*
X129413000Y-120503000D01*
X129667000Y-120503000D01*
X129667000Y-120523000D01*
X130860155Y-120523000D01*
X130981476Y-120293110D01*
X130811645Y-119883076D01*
X130534292Y-119578739D01*
X130637765Y-119558157D01*
X130847809Y-119417809D01*
X130988157Y-119207765D01*
X131037440Y-118960000D01*
X131037440Y-118870000D01*
X134392560Y-118870000D01*
X134392560Y-118960000D01*
X134441843Y-119207765D01*
X134582191Y-119417809D01*
X134792235Y-119558157D01*
X134895708Y-119578739D01*
X134618355Y-119883076D01*
X134448524Y-120293110D01*
X134569845Y-120523000D01*
X135763000Y-120523000D01*
X135763000Y-120503000D01*
X136017000Y-120503000D01*
X136017000Y-120523000D01*
X136037000Y-120523000D01*
X136037000Y-120777000D01*
X136017000Y-120777000D01*
X136017000Y-120797000D01*
X135763000Y-120797000D01*
X135763000Y-120777000D01*
X134569845Y-120777000D01*
X134448524Y-121006890D01*
X134618355Y-121416924D01*
X135008642Y-121845183D01*
X135138478Y-121906157D01*
X134819375Y-122119375D01*
X134491161Y-122610582D01*
X134375908Y-123190000D01*
X134491161Y-123769418D01*
X134819375Y-124260625D01*
X135117761Y-124460000D01*
X134819375Y-124659375D01*
X134491161Y-125150582D01*
X134375908Y-125730000D01*
X134491161Y-126309418D01*
X134819375Y-126800625D01*
X135310582Y-127128839D01*
X135743744Y-127215000D01*
X136036256Y-127215000D01*
X136469418Y-127128839D01*
X136960625Y-126800625D01*
X137288839Y-126309418D01*
X137404092Y-125730000D01*
X137288839Y-125150582D01*
X136960625Y-124659375D01*
X136662239Y-124460000D01*
X136960625Y-124260625D01*
X137288839Y-123769418D01*
X137404092Y-123190000D01*
X137288839Y-122610582D01*
X136960625Y-122119375D01*
X136641522Y-121906157D01*
X136771358Y-121845183D01*
X137161645Y-121416924D01*
X137331476Y-121006890D01*
X137210156Y-120777002D01*
X137375000Y-120777002D01*
X137375000Y-120669802D01*
X137839673Y-121134476D01*
X137882071Y-121197929D01*
X137945524Y-121240327D01*
X137945526Y-121240329D01*
X138070902Y-121324102D01*
X138133463Y-121365904D01*
X138355148Y-121410000D01*
X138355152Y-121410000D01*
X138429999Y-121424888D01*
X138504846Y-121410000D01*
X140742560Y-121410000D01*
X140742560Y-121500000D01*
X140791843Y-121747765D01*
X140932191Y-121957809D01*
X141142235Y-122098157D01*
X141245708Y-122118739D01*
X140968355Y-122423076D01*
X140798524Y-122833110D01*
X140919845Y-123063000D01*
X142113000Y-123063000D01*
X142113000Y-123043000D01*
X142367000Y-123043000D01*
X142367000Y-123063000D01*
X143560155Y-123063000D01*
X143681476Y-122833110D01*
X143511645Y-122423076D01*
X143234292Y-122118739D01*
X143337765Y-122098157D01*
X143547809Y-121957809D01*
X143688157Y-121747765D01*
X143737440Y-121500000D01*
X143737440Y-119800000D01*
X143688157Y-119552235D01*
X143547809Y-119342191D01*
X143337765Y-119201843D01*
X143090000Y-119152560D01*
X141390000Y-119152560D01*
X141142235Y-119201843D01*
X140932191Y-119342191D01*
X140791843Y-119552235D01*
X140742560Y-119800000D01*
X140742560Y-119890000D01*
X138744803Y-119890000D01*
X137387440Y-118532638D01*
X137387440Y-117260000D01*
X137338157Y-117012235D01*
X137197809Y-116802191D01*
X137182704Y-116792098D01*
X137549477Y-116425326D01*
X137612930Y-116382928D01*
X137655328Y-116319475D01*
X137655330Y-116319473D01*
X137780904Y-116131537D01*
X137780905Y-116131536D01*
X137825001Y-115909851D01*
X137825001Y-115909847D01*
X137839889Y-115835000D01*
X137825001Y-115760153D01*
X137825001Y-104289847D01*
X137839889Y-104215000D01*
X137825001Y-104140153D01*
X137825001Y-104140149D01*
X137780905Y-103918464D01*
X137612930Y-103667072D01*
X137567970Y-103637031D01*
X137537929Y-103592071D01*
X137387440Y-103491517D01*
X137387440Y-103290000D01*
X137338157Y-103042235D01*
X137197809Y-102832191D01*
X136987765Y-102691843D01*
X136740000Y-102642560D01*
X136538483Y-102642560D01*
X136437929Y-102492071D01*
X136374473Y-102449671D01*
X135285001Y-101360200D01*
X135285001Y-99128712D01*
X135533110Y-99231476D01*
X135763000Y-99110155D01*
X135763000Y-97917000D01*
X136017000Y-97917000D01*
X136017000Y-99110155D01*
X136246890Y-99231476D01*
X136656924Y-99061645D01*
X137085183Y-98671358D01*
X137331486Y-98146892D01*
X137210819Y-97917000D01*
X136017000Y-97917000D01*
X135763000Y-97917000D01*
X135743000Y-97917000D01*
X135743000Y-97663000D01*
X135763000Y-97663000D01*
X135763000Y-96469845D01*
X136017000Y-96469845D01*
X136017000Y-97663000D01*
X137210819Y-97663000D01*
X137331486Y-97433108D01*
X137085183Y-96908642D01*
X136656924Y-96518355D01*
X136246890Y-96348524D01*
X136017000Y-96469845D01*
X135763000Y-96469845D01*
X135533110Y-96348524D01*
X135285001Y-96451288D01*
X135285001Y-94195000D01*
X135604250Y-94195000D01*
X135763000Y-94036250D01*
X135763000Y-92837000D01*
X136017000Y-92837000D01*
X136017000Y-94036250D01*
X136175750Y-94195000D01*
X136866309Y-94195000D01*
X137099698Y-94098327D01*
X137278327Y-93919699D01*
X137375000Y-93686310D01*
X137375000Y-92995750D01*
X137216250Y-92837000D01*
X136017000Y-92837000D01*
X135763000Y-92837000D01*
X135743000Y-92837000D01*
X135743000Y-92583000D01*
X135763000Y-92583000D01*
X135763000Y-92563000D01*
X136017000Y-92563000D01*
X136017000Y-92583000D01*
X137216250Y-92583000D01*
X137375000Y-92424250D01*
X137375000Y-91733690D01*
X137278327Y-91500301D01*
X137099698Y-91321673D01*
X136938967Y-91255096D01*
X136960625Y-91240625D01*
X137288839Y-90749418D01*
X137404092Y-90170000D01*
X137288839Y-89590582D01*
X136960625Y-89099375D01*
X136662239Y-88900000D01*
X136960625Y-88700625D01*
X137288839Y-88209418D01*
X137404092Y-87630000D01*
X137288839Y-87050582D01*
X136960625Y-86559375D01*
X136662239Y-86360000D01*
X136960625Y-86160625D01*
X137288839Y-85669418D01*
X137404092Y-85090000D01*
X137288839Y-84510582D01*
X136960625Y-84019375D01*
X136662239Y-83820000D01*
X136960625Y-83620625D01*
X137288839Y-83129418D01*
X137404092Y-82550000D01*
X137288839Y-81970582D01*
X136960625Y-81479375D01*
X136469418Y-81151161D01*
X136036256Y-81065000D01*
X135743744Y-81065000D01*
X135310582Y-81151161D01*
X134819375Y-81479375D01*
X134491161Y-81970582D01*
X134375908Y-82550000D01*
X134448791Y-82916408D01*
X134040531Y-83324668D01*
X133977072Y-83367070D01*
X133809097Y-83618463D01*
X133765001Y-83840148D01*
X133765001Y-83840152D01*
X133750113Y-83914999D01*
X133765001Y-83989846D01*
X133765002Y-96292560D01*
X132500000Y-96292560D01*
X132252235Y-96341843D01*
X132042191Y-96482191D01*
X131901843Y-96692235D01*
X131852560Y-96940000D01*
X131852560Y-98640000D01*
X131901843Y-98887765D01*
X132042191Y-99097809D01*
X132252235Y-99238157D01*
X132500000Y-99287440D01*
X133765002Y-99287440D01*
X133765002Y-100840000D01*
X113187440Y-100840000D01*
X113187440Y-100820000D01*
X113138157Y-100572235D01*
X112997809Y-100362191D01*
X112787765Y-100221843D01*
X112540000Y-100172560D01*
X110980000Y-100172560D01*
X110732235Y-100221843D01*
X110522191Y-100362191D01*
X110381843Y-100572235D01*
X110350570Y-100729458D01*
X110021533Y-100400421D01*
X109501461Y-100185000D01*
X108938539Y-100185000D01*
X108418467Y-100400421D01*
X108020421Y-100798467D01*
X107950000Y-100968478D01*
X107879579Y-100798467D01*
X107481533Y-100400421D01*
X106961461Y-100185000D01*
X106398539Y-100185000D01*
X105878467Y-100400421D01*
X105480421Y-100798467D01*
X105410000Y-100968478D01*
X105339579Y-100798467D01*
X104941533Y-100400421D01*
X104421461Y-100185000D01*
X103858539Y-100185000D01*
X103338467Y-100400421D01*
X102940421Y-100798467D01*
X102870000Y-100968478D01*
X102799579Y-100798467D01*
X102401533Y-100400421D01*
X101881461Y-100185000D01*
X101318539Y-100185000D01*
X100798467Y-100400421D01*
X100400421Y-100798467D01*
X100330000Y-100968478D01*
X100259579Y-100798467D01*
X99861533Y-100400421D01*
X99341461Y-100185000D01*
X98778539Y-100185000D01*
X98258467Y-100400421D01*
X97860421Y-100798467D01*
X97790000Y-100968478D01*
X97719579Y-100798467D01*
X97321533Y-100400421D01*
X96801461Y-100185000D01*
X96238539Y-100185000D01*
X95718467Y-100400421D01*
X95320421Y-100798467D01*
X95250000Y-100968478D01*
X95179579Y-100798467D01*
X94781533Y-100400421D01*
X94261461Y-100185000D01*
X93698539Y-100185000D01*
X93178467Y-100400421D01*
X92780421Y-100798467D01*
X92710000Y-100968478D01*
X92639579Y-100798467D01*
X92241533Y-100400421D01*
X91721461Y-100185000D01*
X91158539Y-100185000D01*
X90638467Y-100400421D01*
X90240421Y-100798467D01*
X90170000Y-100968478D01*
X90099579Y-100798467D01*
X89701533Y-100400421D01*
X89181461Y-100185000D01*
X88618539Y-100185000D01*
X88098467Y-100400421D01*
X87700421Y-100798467D01*
X87630000Y-100968478D01*
X87559579Y-100798467D01*
X87161533Y-100400421D01*
X86641461Y-100185000D01*
X86078539Y-100185000D01*
X85558467Y-100400421D01*
X85160421Y-100798467D01*
X85090000Y-100968478D01*
X85019579Y-100798467D01*
X84621533Y-100400421D01*
X84101461Y-100185000D01*
X83538539Y-100185000D01*
X83018467Y-100400421D01*
X82620421Y-100798467D01*
X82550000Y-100968478D01*
X82479579Y-100798467D01*
X82081533Y-100400421D01*
X81561461Y-100185000D01*
X80998539Y-100185000D01*
X80478467Y-100400421D01*
X80080421Y-100798467D01*
X80016527Y-100952722D01*
X79977303Y-100858028D01*
X79733255Y-100786350D01*
X78919605Y-101600000D01*
X78560395Y-101600000D01*
X77746745Y-100786350D01*
X77502697Y-100858028D01*
X77466326Y-100959609D01*
X77399579Y-100798467D01*
X77207857Y-100606745D01*
X77926350Y-100606745D01*
X78740000Y-101420395D01*
X79553650Y-100606745D01*
X79481972Y-100362697D01*
X78951997Y-100172940D01*
X78389748Y-100200441D01*
X77998028Y-100362697D01*
X77926350Y-100606745D01*
X77207857Y-100606745D01*
X77001533Y-100400421D01*
X76481461Y-100185000D01*
X75918539Y-100185000D01*
X75398467Y-100400421D01*
X75000421Y-100798467D01*
X74930000Y-100968478D01*
X74859579Y-100798467D01*
X74461533Y-100400421D01*
X73941461Y-100185000D01*
X73378539Y-100185000D01*
X72858467Y-100400421D01*
X72460421Y-100798467D01*
X72390000Y-100968478D01*
X72319579Y-100798467D01*
X71921533Y-100400421D01*
X71401461Y-100185000D01*
X70838539Y-100185000D01*
X70318467Y-100400421D01*
X69920421Y-100798467D01*
X69850000Y-100968478D01*
X69779579Y-100798467D01*
X69381533Y-100400421D01*
X68861461Y-100185000D01*
X68298539Y-100185000D01*
X67778467Y-100400421D01*
X67380421Y-100798467D01*
X67310000Y-100968478D01*
X67239579Y-100798467D01*
X66841533Y-100400421D01*
X66321461Y-100185000D01*
X65758539Y-100185000D01*
X65238467Y-100400421D01*
X64840421Y-100798467D01*
X64625000Y-101318539D01*
X62940000Y-101318539D01*
X62940000Y-77532119D01*
X62984065Y-77282213D01*
X63079405Y-77117080D01*
X63225477Y-76994512D01*
X63434465Y-76918445D01*
X63530996Y-76910000D01*
X154877881Y-76910000D01*
X155127787Y-76954065D01*
G04 #@! TD*
M02*
