G04 #@! TF.GenerationSoftware,KiCad,Pcbnew,(5.0.1)-4*
G04 #@! TF.CreationDate,2019-09-12T15:38:01+02:00*
G04 #@! TF.ProjectId,esp32roomlabel,6573703332726F6F6D6C6162656C2E6B,rev?*
G04 #@! TF.SameCoordinates,Original*
G04 #@! TF.FileFunction,Legend,Top*
G04 #@! TF.FilePolarity,Positive*
%FSLAX46Y46*%
G04 Gerber Fmt 4.6, Leading zero omitted, Abs format (unit mm)*
G04 Created by KiCad (PCBNEW (5.0.1)-4) date 12.09.2019 15:38:01*
%MOMM*%
%LPD*%
G01*
G04 APERTURE LIST*
%ADD10C,0.300000*%
%ADD11C,0.101600*%
%ADD12C,0.200000*%
%ADD13C,0.150000*%
%ADD14C,0.120000*%
%ADD15C,0.127000*%
%ADD16C,0.010000*%
%ADD17C,0.050000*%
G04 APERTURE END LIST*
D10*
X134425714Y-116248571D02*
X134425714Y-114748571D01*
X135068571Y-114891428D02*
X135140000Y-114820000D01*
X135282857Y-114748571D01*
X135640000Y-114748571D01*
X135782857Y-114820000D01*
X135854285Y-114891428D01*
X135925714Y-115034285D01*
X135925714Y-115177142D01*
X135854285Y-115391428D01*
X134997142Y-116248571D01*
X135925714Y-116248571D01*
X137425714Y-116105714D02*
X137354285Y-116177142D01*
X137140000Y-116248571D01*
X136997142Y-116248571D01*
X136782857Y-116177142D01*
X136640000Y-116034285D01*
X136568571Y-115891428D01*
X136497142Y-115605714D01*
X136497142Y-115391428D01*
X136568571Y-115105714D01*
X136640000Y-114962857D01*
X136782857Y-114820000D01*
X136997142Y-114748571D01*
X137140000Y-114748571D01*
X137354285Y-114820000D01*
X137425714Y-114891428D01*
D11*
X148939285Y-83699571D02*
X148082142Y-83699571D01*
X148510714Y-83699571D02*
X148510714Y-82199571D01*
X148367857Y-82413857D01*
X148225000Y-82556714D01*
X148082142Y-82628142D01*
X149510714Y-82342428D02*
X149582142Y-82271000D01*
X149725000Y-82199571D01*
X150082142Y-82199571D01*
X150225000Y-82271000D01*
X150296428Y-82342428D01*
X150367857Y-82485285D01*
X150367857Y-82628142D01*
X150296428Y-82842428D01*
X149439285Y-83699571D01*
X150367857Y-83699571D01*
X148939285Y-86051171D02*
X148082142Y-86051171D01*
X148510714Y-86051171D02*
X148510714Y-84551171D01*
X148367857Y-84765457D01*
X148225000Y-84908314D01*
X148082142Y-84979742D01*
X149439285Y-84551171D02*
X150367857Y-84551171D01*
X149867857Y-85122600D01*
X150082142Y-85122600D01*
X150225000Y-85194028D01*
X150296428Y-85265457D01*
X150367857Y-85408314D01*
X150367857Y-85765457D01*
X150296428Y-85908314D01*
X150225000Y-85979742D01*
X150082142Y-86051171D01*
X149653571Y-86051171D01*
X149510714Y-85979742D01*
X149439285Y-85908314D01*
X148939285Y-88402771D02*
X148082142Y-88402771D01*
X148510714Y-88402771D02*
X148510714Y-86902771D01*
X148367857Y-87117057D01*
X148225000Y-87259914D01*
X148082142Y-87331342D01*
X150225000Y-87402771D02*
X150225000Y-88402771D01*
X149867857Y-86831342D02*
X149510714Y-87902771D01*
X150439285Y-87902771D01*
X148939285Y-90754371D02*
X148082142Y-90754371D01*
X148510714Y-90754371D02*
X148510714Y-89254371D01*
X148367857Y-89468657D01*
X148225000Y-89611514D01*
X148082142Y-89682942D01*
X150296428Y-89254371D02*
X149582142Y-89254371D01*
X149510714Y-89968657D01*
X149582142Y-89897228D01*
X149725000Y-89825800D01*
X150082142Y-89825800D01*
X150225000Y-89897228D01*
X150296428Y-89968657D01*
X150367857Y-90111514D01*
X150367857Y-90468657D01*
X150296428Y-90611514D01*
X150225000Y-90682942D01*
X150082142Y-90754371D01*
X149725000Y-90754371D01*
X149582142Y-90682942D01*
X149510714Y-90611514D01*
X148082142Y-91605971D02*
X149010714Y-91605971D01*
X148510714Y-92177400D01*
X148725000Y-92177400D01*
X148867857Y-92248828D01*
X148939285Y-92320257D01*
X149010714Y-92463114D01*
X149010714Y-92820257D01*
X148939285Y-92963114D01*
X148867857Y-93034542D01*
X148725000Y-93105971D01*
X148296428Y-93105971D01*
X148153571Y-93034542D01*
X148082142Y-92963114D01*
X149439285Y-91605971D02*
X149939285Y-93105971D01*
X150439285Y-91605971D01*
X148832142Y-94029000D02*
X148689285Y-93957571D01*
X148475000Y-93957571D01*
X148260714Y-94029000D01*
X148117857Y-94171857D01*
X148046428Y-94314714D01*
X147975000Y-94600428D01*
X147975000Y-94814714D01*
X148046428Y-95100428D01*
X148117857Y-95243285D01*
X148260714Y-95386142D01*
X148475000Y-95457571D01*
X148617857Y-95457571D01*
X148832142Y-95386142D01*
X148903571Y-95314714D01*
X148903571Y-94814714D01*
X148617857Y-94814714D01*
X149546428Y-95457571D02*
X149546428Y-93957571D01*
X150403571Y-95457571D01*
X150403571Y-93957571D01*
D10*
X144550000Y-79260000D02*
X144407142Y-79188571D01*
X144192857Y-79188571D01*
X143978571Y-79260000D01*
X143835714Y-79402857D01*
X143764285Y-79545714D01*
X143692857Y-79831428D01*
X143692857Y-80045714D01*
X143764285Y-80331428D01*
X143835714Y-80474285D01*
X143978571Y-80617142D01*
X144192857Y-80688571D01*
X144335714Y-80688571D01*
X144550000Y-80617142D01*
X144621428Y-80545714D01*
X144621428Y-80045714D01*
X144335714Y-80045714D01*
X145264285Y-80688571D02*
X145264285Y-79188571D01*
X145835714Y-79188571D01*
X145978571Y-79260000D01*
X146050000Y-79331428D01*
X146121428Y-79474285D01*
X146121428Y-79688571D01*
X146050000Y-79831428D01*
X145978571Y-79902857D01*
X145835714Y-79974285D01*
X145264285Y-79974285D01*
X146764285Y-80688571D02*
X146764285Y-79188571D01*
X147764285Y-79188571D02*
X148050000Y-79188571D01*
X148192857Y-79260000D01*
X148335714Y-79402857D01*
X148407142Y-79688571D01*
X148407142Y-80188571D01*
X148335714Y-80474285D01*
X148192857Y-80617142D01*
X148050000Y-80688571D01*
X147764285Y-80688571D01*
X147621428Y-80617142D01*
X147478571Y-80474285D01*
X147407142Y-80188571D01*
X147407142Y-79688571D01*
X147478571Y-79402857D01*
X147621428Y-79260000D01*
X147764285Y-79188571D01*
X148840000Y-111414285D02*
X148840000Y-110700000D01*
X149268571Y-111557142D02*
X147768571Y-111057142D01*
X149268571Y-110557142D01*
X148268571Y-110057142D02*
X149268571Y-110057142D01*
X148411428Y-110057142D02*
X148340000Y-109985714D01*
X148268571Y-109842857D01*
X148268571Y-109628571D01*
X148340000Y-109485714D01*
X148482857Y-109414285D01*
X149268571Y-109414285D01*
X149268571Y-108057142D02*
X148482857Y-108057142D01*
X148340000Y-108128571D01*
X148268571Y-108271428D01*
X148268571Y-108557142D01*
X148340000Y-108700000D01*
X149197142Y-108057142D02*
X149268571Y-108200000D01*
X149268571Y-108557142D01*
X149197142Y-108700000D01*
X149054285Y-108771428D01*
X148911428Y-108771428D01*
X148768571Y-108700000D01*
X148697142Y-108557142D01*
X148697142Y-108200000D01*
X148625714Y-108057142D01*
X149268571Y-107128571D02*
X149197142Y-107271428D01*
X149054285Y-107342857D01*
X147768571Y-107342857D01*
X149268571Y-106342857D02*
X149197142Y-106485714D01*
X149125714Y-106557142D01*
X148982857Y-106628571D01*
X148554285Y-106628571D01*
X148411428Y-106557142D01*
X148340000Y-106485714D01*
X148268571Y-106342857D01*
X148268571Y-106128571D01*
X148340000Y-105985714D01*
X148411428Y-105914285D01*
X148554285Y-105842857D01*
X148982857Y-105842857D01*
X149125714Y-105914285D01*
X149197142Y-105985714D01*
X149268571Y-106128571D01*
X149268571Y-106342857D01*
X148268571Y-104557142D02*
X149482857Y-104557142D01*
X149625714Y-104628571D01*
X149697142Y-104700000D01*
X149768571Y-104842857D01*
X149768571Y-105057142D01*
X149697142Y-105200000D01*
X149197142Y-104557142D02*
X149268571Y-104700000D01*
X149268571Y-104985714D01*
X149197142Y-105128571D01*
X149125714Y-105200000D01*
X148982857Y-105271428D01*
X148554285Y-105271428D01*
X148411428Y-105200000D01*
X148340000Y-105128571D01*
X148268571Y-104985714D01*
X148268571Y-104700000D01*
X148340000Y-104557142D01*
D11*
X140382857Y-103601171D02*
X141311428Y-103601171D01*
X140811428Y-104172600D01*
X141025714Y-104172600D01*
X141168571Y-104244028D01*
X141240000Y-104315457D01*
X141311428Y-104458314D01*
X141311428Y-104815457D01*
X141240000Y-104958314D01*
X141168571Y-105029742D01*
X141025714Y-105101171D01*
X140597142Y-105101171D01*
X140454285Y-105029742D01*
X140382857Y-104958314D01*
X141740000Y-103601171D02*
X142240000Y-105101171D01*
X142740000Y-103601171D01*
X143097142Y-103601171D02*
X144025714Y-103601171D01*
X143525714Y-104172600D01*
X143740000Y-104172600D01*
X143882857Y-104244028D01*
X143954285Y-104315457D01*
X144025714Y-104458314D01*
X144025714Y-104815457D01*
X143954285Y-104958314D01*
X143882857Y-105029742D01*
X143740000Y-105101171D01*
X143311428Y-105101171D01*
X143168571Y-105029742D01*
X143097142Y-104958314D01*
X141847142Y-106024200D02*
X141704285Y-105952771D01*
X141490000Y-105952771D01*
X141275714Y-106024200D01*
X141132857Y-106167057D01*
X141061428Y-106309914D01*
X140990000Y-106595628D01*
X140990000Y-106809914D01*
X141061428Y-107095628D01*
X141132857Y-107238485D01*
X141275714Y-107381342D01*
X141490000Y-107452771D01*
X141632857Y-107452771D01*
X141847142Y-107381342D01*
X141918571Y-107309914D01*
X141918571Y-106809914D01*
X141632857Y-106809914D01*
X142561428Y-107452771D02*
X142561428Y-105952771D01*
X143418571Y-107452771D01*
X143418571Y-105952771D01*
X141954285Y-108304371D02*
X141240000Y-108304371D01*
X141168571Y-109018657D01*
X141240000Y-108947228D01*
X141382857Y-108875800D01*
X141740000Y-108875800D01*
X141882857Y-108947228D01*
X141954285Y-109018657D01*
X142025714Y-109161514D01*
X142025714Y-109518657D01*
X141954285Y-109661514D01*
X141882857Y-109732942D01*
X141740000Y-109804371D01*
X141382857Y-109804371D01*
X141240000Y-109732942D01*
X141168571Y-109661514D01*
X142454285Y-108304371D02*
X142954285Y-109804371D01*
X143454285Y-108304371D01*
X140740000Y-111727400D02*
X141454285Y-111727400D01*
X140597142Y-112155971D02*
X141097142Y-110655971D01*
X141597142Y-112155971D01*
X142097142Y-112155971D02*
X142097142Y-110655971D01*
X142811428Y-112155971D02*
X142811428Y-110655971D01*
X143668571Y-112155971D01*
X143668571Y-110655971D01*
D12*
X107950000Y-85090000D02*
X109220000Y-83820000D01*
X102870000Y-78740000D02*
X104140000Y-77470000D01*
X109220000Y-77470000D02*
X106680000Y-80010000D01*
D11*
X68227142Y-123247920D02*
X69655714Y-123247920D01*
X68441428Y-123638571D02*
X69370000Y-123638571D01*
X68870000Y-124210000D01*
X69084285Y-124210000D01*
X69227142Y-124281428D01*
X69298571Y-124352857D01*
X69370000Y-124495714D01*
X69370000Y-124852857D01*
X69298571Y-124995714D01*
X69227142Y-125067142D01*
X69084285Y-125138571D01*
X68655714Y-125138571D01*
X68512857Y-125067142D01*
X68441428Y-124995714D01*
X69655714Y-123247920D02*
X71084285Y-123247920D01*
X69870000Y-123638571D02*
X70798571Y-123638571D01*
X70298571Y-124210000D01*
X70512857Y-124210000D01*
X70655714Y-124281428D01*
X70727142Y-124352857D01*
X70798571Y-124495714D01*
X70798571Y-124852857D01*
X70727142Y-124995714D01*
X70655714Y-125067142D01*
X70512857Y-125138571D01*
X70084285Y-125138571D01*
X69941428Y-125067142D01*
X69870000Y-124995714D01*
X71084285Y-123247920D02*
X72512857Y-123247920D01*
X71727142Y-123638571D02*
X71870000Y-123638571D01*
X72012857Y-123710000D01*
X72084285Y-123781428D01*
X72155714Y-123924285D01*
X72227142Y-124210000D01*
X72227142Y-124567142D01*
X72155714Y-124852857D01*
X72084285Y-124995714D01*
X72012857Y-125067142D01*
X71870000Y-125138571D01*
X71727142Y-125138571D01*
X71584285Y-125067142D01*
X71512857Y-124995714D01*
X71441428Y-124852857D01*
X71370000Y-124567142D01*
X71370000Y-124210000D01*
X71441428Y-123924285D01*
X71512857Y-123781428D01*
X71584285Y-123710000D01*
X71727142Y-123638571D01*
X72512857Y-123247920D02*
X74012857Y-123247920D01*
X73727142Y-125138571D02*
X73227142Y-124424285D01*
X72870000Y-125138571D02*
X72870000Y-123638571D01*
X73441428Y-123638571D01*
X73584285Y-123710000D01*
X73655714Y-123781428D01*
X73727142Y-123924285D01*
X73727142Y-124138571D01*
X73655714Y-124281428D01*
X73584285Y-124352857D01*
X73441428Y-124424285D01*
X72870000Y-124424285D01*
D12*
X107950000Y-99060000D02*
X109220000Y-97790000D01*
X109220000Y-92710000D02*
X102870000Y-99060000D01*
X99060000Y-97790000D02*
X97790000Y-99060000D01*
X93980000Y-97790000D02*
X92710000Y-99060000D01*
X91440000Y-95250000D02*
X87630000Y-99060000D01*
X88900000Y-92710000D02*
X82550000Y-99060000D01*
X87630000Y-88900000D02*
X77470000Y-99060000D01*
X93980000Y-77470000D02*
X72390000Y-99060000D01*
X88900000Y-77470000D02*
X67310000Y-99060000D01*
X64770000Y-96520000D02*
X83820000Y-77470000D01*
X78740000Y-77470000D02*
X64770000Y-91440000D01*
X64770000Y-86360000D02*
X73660000Y-77470000D01*
X64770000Y-81280000D02*
X68580000Y-77470000D01*
X64770000Y-99060000D02*
X64770000Y-77470000D01*
X109220000Y-99060000D02*
X64770000Y-99060000D01*
X109220000Y-77470000D02*
X109220000Y-99060000D01*
X64770000Y-77470000D02*
X109220000Y-77470000D01*
D10*
X154348571Y-112992857D02*
X152848571Y-112992857D01*
X153920000Y-112492857D01*
X152848571Y-111992857D01*
X154348571Y-111992857D01*
X154277142Y-111350000D02*
X154348571Y-111135714D01*
X154348571Y-110778571D01*
X154277142Y-110635714D01*
X154205714Y-110564285D01*
X154062857Y-110492857D01*
X153920000Y-110492857D01*
X153777142Y-110564285D01*
X153705714Y-110635714D01*
X153634285Y-110778571D01*
X153562857Y-111064285D01*
X153491428Y-111207142D01*
X153420000Y-111278571D01*
X153277142Y-111350000D01*
X153134285Y-111350000D01*
X152991428Y-111278571D01*
X152920000Y-111207142D01*
X152848571Y-111064285D01*
X152848571Y-110707142D01*
X152920000Y-110492857D01*
X154348571Y-109850000D02*
X152848571Y-109850000D01*
X154348571Y-107992857D02*
X152848571Y-107992857D01*
X152848571Y-107635714D01*
X152920000Y-107421428D01*
X153062857Y-107278571D01*
X153205714Y-107207142D01*
X153491428Y-107135714D01*
X153705714Y-107135714D01*
X153991428Y-107207142D01*
X154134285Y-107278571D01*
X154277142Y-107421428D01*
X154348571Y-107635714D01*
X154348571Y-107992857D01*
X154277142Y-105921428D02*
X154348571Y-106064285D01*
X154348571Y-106350000D01*
X154277142Y-106492857D01*
X154134285Y-106564285D01*
X153562857Y-106564285D01*
X153420000Y-106492857D01*
X153348571Y-106350000D01*
X153348571Y-106064285D01*
X153420000Y-105921428D01*
X153562857Y-105850000D01*
X153705714Y-105850000D01*
X153848571Y-106564285D01*
X154348571Y-105207142D02*
X153348571Y-105207142D01*
X153491428Y-105207142D02*
X153420000Y-105135714D01*
X153348571Y-104992857D01*
X153348571Y-104778571D01*
X153420000Y-104635714D01*
X153562857Y-104564285D01*
X154348571Y-104564285D01*
X153562857Y-104564285D02*
X153420000Y-104492857D01*
X153348571Y-104350000D01*
X153348571Y-104135714D01*
X153420000Y-103992857D01*
X153562857Y-103921428D01*
X154348571Y-103921428D01*
X154348571Y-102992857D02*
X154277142Y-103135714D01*
X154205714Y-103207142D01*
X154062857Y-103278571D01*
X153634285Y-103278571D01*
X153491428Y-103207142D01*
X153420000Y-103135714D01*
X153348571Y-102992857D01*
X153348571Y-102778571D01*
X153420000Y-102635714D01*
X153491428Y-102564285D01*
X153634285Y-102492857D01*
X154062857Y-102492857D01*
X154205714Y-102564285D01*
X154277142Y-102635714D01*
X154348571Y-102778571D01*
X154348571Y-102992857D01*
X153562857Y-100207142D02*
X153634285Y-99992857D01*
X153705714Y-99921428D01*
X153848571Y-99850000D01*
X154062857Y-99850000D01*
X154205714Y-99921428D01*
X154277142Y-99992857D01*
X154348571Y-100135714D01*
X154348571Y-100707142D01*
X152848571Y-100707142D01*
X152848571Y-100207142D01*
X152920000Y-100064285D01*
X152991428Y-99992857D01*
X153134285Y-99921428D01*
X153277142Y-99921428D01*
X153420000Y-99992857D01*
X153491428Y-100064285D01*
X153562857Y-100207142D01*
X153562857Y-100707142D01*
X154348571Y-98992857D02*
X154277142Y-99135714D01*
X154205714Y-99207142D01*
X154062857Y-99278571D01*
X153634285Y-99278571D01*
X153491428Y-99207142D01*
X153420000Y-99135714D01*
X153348571Y-98992857D01*
X153348571Y-98778571D01*
X153420000Y-98635714D01*
X153491428Y-98564285D01*
X153634285Y-98492857D01*
X154062857Y-98492857D01*
X154205714Y-98564285D01*
X154277142Y-98635714D01*
X154348571Y-98778571D01*
X154348571Y-98992857D01*
X154348571Y-97992857D02*
X153348571Y-97207142D01*
X153348571Y-97992857D02*
X154348571Y-97207142D01*
X152848571Y-95707142D02*
X154348571Y-95207142D01*
X152848571Y-94707142D01*
X154348571Y-92278571D02*
X154348571Y-93135714D01*
X154348571Y-92707142D02*
X152848571Y-92707142D01*
X153062857Y-92850000D01*
X153205714Y-92992857D01*
X153277142Y-93135714D01*
X154205714Y-91635714D02*
X154277142Y-91564285D01*
X154348571Y-91635714D01*
X154277142Y-91707142D01*
X154205714Y-91635714D01*
X154348571Y-91635714D01*
X154348571Y-90135714D02*
X154348571Y-90992857D01*
X154348571Y-90564285D02*
X152848571Y-90564285D01*
X153062857Y-90707142D01*
X153205714Y-90850000D01*
X153277142Y-90992857D01*
D11*
X134747142Y-99580000D02*
X134604285Y-99508571D01*
X134390000Y-99508571D01*
X134175714Y-99580000D01*
X134032857Y-99722857D01*
X133961428Y-99865714D01*
X133890000Y-100151428D01*
X133890000Y-100365714D01*
X133961428Y-100651428D01*
X134032857Y-100794285D01*
X134175714Y-100937142D01*
X134390000Y-101008571D01*
X134532857Y-101008571D01*
X134747142Y-100937142D01*
X134818571Y-100865714D01*
X134818571Y-100365714D01*
X134532857Y-100365714D01*
X135461428Y-101008571D02*
X135461428Y-99508571D01*
X136318571Y-101008571D01*
X136318571Y-99508571D01*
X137032857Y-101008571D02*
X137032857Y-99508571D01*
X137390000Y-99508571D01*
X137604285Y-99580000D01*
X137747142Y-99722857D01*
X137818571Y-99865714D01*
X137890000Y-100151428D01*
X137890000Y-100365714D01*
X137818571Y-100651428D01*
X137747142Y-100794285D01*
X137604285Y-100937142D01*
X137390000Y-101008571D01*
X137032857Y-101008571D01*
X131572142Y-117571171D02*
X132500714Y-117571171D01*
X132000714Y-118142600D01*
X132215000Y-118142600D01*
X132357857Y-118214028D01*
X132429285Y-118285457D01*
X132500714Y-118428314D01*
X132500714Y-118785457D01*
X132429285Y-118928314D01*
X132357857Y-118999742D01*
X132215000Y-119071171D01*
X131786428Y-119071171D01*
X131643571Y-118999742D01*
X131572142Y-118928314D01*
X132929285Y-117571171D02*
X133429285Y-119071171D01*
X133929285Y-117571171D01*
X132322142Y-119994200D02*
X132179285Y-119922771D01*
X131965000Y-119922771D01*
X131750714Y-119994200D01*
X131607857Y-120137057D01*
X131536428Y-120279914D01*
X131465000Y-120565628D01*
X131465000Y-120779914D01*
X131536428Y-121065628D01*
X131607857Y-121208485D01*
X131750714Y-121351342D01*
X131965000Y-121422771D01*
X132107857Y-121422771D01*
X132322142Y-121351342D01*
X132393571Y-121279914D01*
X132393571Y-120779914D01*
X132107857Y-120779914D01*
X133036428Y-121422771D02*
X133036428Y-119922771D01*
X133893571Y-121422771D01*
X133893571Y-119922771D01*
X131679285Y-123774371D02*
X131679285Y-122274371D01*
X132036428Y-122274371D01*
X132250714Y-122345800D01*
X132393571Y-122488657D01*
X132465000Y-122631514D01*
X132536428Y-122917228D01*
X132536428Y-123131514D01*
X132465000Y-123417228D01*
X132393571Y-123560085D01*
X132250714Y-123702942D01*
X132036428Y-123774371D01*
X131679285Y-123774371D01*
X133107857Y-123345800D02*
X133822142Y-123345800D01*
X132965000Y-123774371D02*
X133465000Y-122274371D01*
X133965000Y-123774371D01*
X132572142Y-125983114D02*
X132500714Y-126054542D01*
X132286428Y-126125971D01*
X132143571Y-126125971D01*
X131929285Y-126054542D01*
X131786428Y-125911685D01*
X131715000Y-125768828D01*
X131643571Y-125483114D01*
X131643571Y-125268828D01*
X131715000Y-124983114D01*
X131786428Y-124840257D01*
X131929285Y-124697400D01*
X132143571Y-124625971D01*
X132286428Y-124625971D01*
X132500714Y-124697400D01*
X132572142Y-124768828D01*
X133929285Y-126125971D02*
X133215000Y-126125971D01*
X133215000Y-124625971D01*
X120777142Y-103672600D02*
X120634285Y-103601171D01*
X120420000Y-103601171D01*
X120205714Y-103672600D01*
X120062857Y-103815457D01*
X119991428Y-103958314D01*
X119920000Y-104244028D01*
X119920000Y-104458314D01*
X119991428Y-104744028D01*
X120062857Y-104886885D01*
X120205714Y-105029742D01*
X120420000Y-105101171D01*
X120562857Y-105101171D01*
X120777142Y-105029742D01*
X120848571Y-104958314D01*
X120848571Y-104458314D01*
X120562857Y-104458314D01*
X121491428Y-105101171D02*
X121491428Y-103601171D01*
X122348571Y-105101171D01*
X122348571Y-103601171D01*
X123062857Y-105101171D02*
X123062857Y-103601171D01*
X123420000Y-103601171D01*
X123634285Y-103672600D01*
X123777142Y-103815457D01*
X123848571Y-103958314D01*
X123920000Y-104244028D01*
X123920000Y-104458314D01*
X123848571Y-104744028D01*
X123777142Y-104886885D01*
X123634285Y-105029742D01*
X123420000Y-105101171D01*
X123062857Y-105101171D01*
X121634285Y-105952771D02*
X120920000Y-105952771D01*
X120848571Y-106667057D01*
X120920000Y-106595628D01*
X121062857Y-106524200D01*
X121420000Y-106524200D01*
X121562857Y-106595628D01*
X121634285Y-106667057D01*
X121705714Y-106809914D01*
X121705714Y-107167057D01*
X121634285Y-107309914D01*
X121562857Y-107381342D01*
X121420000Y-107452771D01*
X121062857Y-107452771D01*
X120920000Y-107381342D01*
X120848571Y-107309914D01*
X122134285Y-105952771D02*
X122634285Y-107452771D01*
X123134285Y-105952771D01*
X120312857Y-109804371D02*
X120312857Y-108304371D01*
X120670000Y-108304371D01*
X120884285Y-108375800D01*
X121027142Y-108518657D01*
X121098571Y-108661514D01*
X121170000Y-108947228D01*
X121170000Y-109161514D01*
X121098571Y-109447228D01*
X121027142Y-109590085D01*
X120884285Y-109732942D01*
X120670000Y-109804371D01*
X120312857Y-109804371D01*
X121598571Y-108304371D02*
X122455714Y-108304371D01*
X122027142Y-109804371D02*
X122027142Y-108304371D01*
X122884285Y-109375800D02*
X123598571Y-109375800D01*
X122741428Y-109804371D02*
X123241428Y-108304371D01*
X123741428Y-109804371D01*
X121027142Y-112013114D02*
X120955714Y-112084542D01*
X120741428Y-112155971D01*
X120598571Y-112155971D01*
X120384285Y-112084542D01*
X120241428Y-111941685D01*
X120170000Y-111798828D01*
X120098571Y-111513114D01*
X120098571Y-111298828D01*
X120170000Y-111013114D01*
X120241428Y-110870257D01*
X120384285Y-110727400D01*
X120598571Y-110655971D01*
X120741428Y-110655971D01*
X120955714Y-110727400D01*
X121027142Y-110798828D01*
X122384285Y-112155971D02*
X121670000Y-112155971D01*
X121670000Y-110655971D01*
X122884285Y-112155971D02*
X122884285Y-110655971D01*
X123741428Y-112155971D02*
X123098571Y-111298828D01*
X123741428Y-110655971D02*
X122884285Y-111513114D01*
X137842857Y-82105371D02*
X138771428Y-82105371D01*
X138271428Y-82676800D01*
X138485714Y-82676800D01*
X138628571Y-82748228D01*
X138700000Y-82819657D01*
X138771428Y-82962514D01*
X138771428Y-83319657D01*
X138700000Y-83462514D01*
X138628571Y-83533942D01*
X138485714Y-83605371D01*
X138057142Y-83605371D01*
X137914285Y-83533942D01*
X137842857Y-83462514D01*
X139200000Y-82105371D02*
X139700000Y-83605371D01*
X140200000Y-82105371D01*
X140557142Y-82105371D02*
X141485714Y-82105371D01*
X140985714Y-82676800D01*
X141200000Y-82676800D01*
X141342857Y-82748228D01*
X141414285Y-82819657D01*
X141485714Y-82962514D01*
X141485714Y-83319657D01*
X141414285Y-83462514D01*
X141342857Y-83533942D01*
X141200000Y-83605371D01*
X140771428Y-83605371D01*
X140628571Y-83533942D01*
X140557142Y-83462514D01*
X138092857Y-85956971D02*
X138092857Y-84456971D01*
X138450000Y-84456971D01*
X138664285Y-84528400D01*
X138807142Y-84671257D01*
X138878571Y-84814114D01*
X138950000Y-85099828D01*
X138950000Y-85314114D01*
X138878571Y-85599828D01*
X138807142Y-85742685D01*
X138664285Y-85885542D01*
X138450000Y-85956971D01*
X138092857Y-85956971D01*
X139378571Y-84456971D02*
X140235714Y-84456971D01*
X139807142Y-85956971D02*
X139807142Y-84456971D01*
X140664285Y-85528400D02*
X141378571Y-85528400D01*
X140521428Y-85956971D02*
X141021428Y-84456971D01*
X141521428Y-85956971D01*
X138807142Y-88165714D02*
X138735714Y-88237142D01*
X138521428Y-88308571D01*
X138378571Y-88308571D01*
X138164285Y-88237142D01*
X138021428Y-88094285D01*
X137950000Y-87951428D01*
X137878571Y-87665714D01*
X137878571Y-87451428D01*
X137950000Y-87165714D01*
X138021428Y-87022857D01*
X138164285Y-86880000D01*
X138378571Y-86808571D01*
X138521428Y-86808571D01*
X138735714Y-86880000D01*
X138807142Y-86951428D01*
X140164285Y-88308571D02*
X139450000Y-88308571D01*
X139450000Y-86808571D01*
X140664285Y-88308571D02*
X140664285Y-86808571D01*
X141521428Y-88308571D02*
X140878571Y-87451428D01*
X141521428Y-86808571D02*
X140664285Y-87665714D01*
X137735714Y-90660171D02*
X137735714Y-89160171D01*
X138592857Y-90660171D01*
X138592857Y-89160171D01*
X140378571Y-89088742D02*
X139092857Y-91017314D01*
X141735714Y-90517314D02*
X141664285Y-90588742D01*
X141450000Y-90660171D01*
X141307142Y-90660171D01*
X141092857Y-90588742D01*
X140950000Y-90445885D01*
X140878571Y-90303028D01*
X140807142Y-90017314D01*
X140807142Y-89803028D01*
X140878571Y-89517314D01*
X140950000Y-89374457D01*
X141092857Y-89231600D01*
X141307142Y-89160171D01*
X141450000Y-89160171D01*
X141664285Y-89231600D01*
X141735714Y-89303028D01*
X138557142Y-91583200D02*
X138414285Y-91511771D01*
X138200000Y-91511771D01*
X137985714Y-91583200D01*
X137842857Y-91726057D01*
X137771428Y-91868914D01*
X137700000Y-92154628D01*
X137700000Y-92368914D01*
X137771428Y-92654628D01*
X137842857Y-92797485D01*
X137985714Y-92940342D01*
X138200000Y-93011771D01*
X138342857Y-93011771D01*
X138557142Y-92940342D01*
X138628571Y-92868914D01*
X138628571Y-92368914D01*
X138342857Y-92368914D01*
X139271428Y-93011771D02*
X139271428Y-91511771D01*
X140128571Y-93011771D01*
X140128571Y-91511771D01*
X140842857Y-93011771D02*
X140842857Y-91511771D01*
X141200000Y-91511771D01*
X141414285Y-91583200D01*
X141557142Y-91726057D01*
X141628571Y-91868914D01*
X141700000Y-92154628D01*
X141700000Y-92368914D01*
X141628571Y-92654628D01*
X141557142Y-92797485D01*
X141414285Y-92940342D01*
X141200000Y-93011771D01*
X140842857Y-93011771D01*
X144272142Y-120016971D02*
X145200714Y-120016971D01*
X144700714Y-120588400D01*
X144915000Y-120588400D01*
X145057857Y-120659828D01*
X145129285Y-120731257D01*
X145200714Y-120874114D01*
X145200714Y-121231257D01*
X145129285Y-121374114D01*
X145057857Y-121445542D01*
X144915000Y-121516971D01*
X144486428Y-121516971D01*
X144343571Y-121445542D01*
X144272142Y-121374114D01*
X145629285Y-120016971D02*
X146129285Y-121516971D01*
X146629285Y-120016971D01*
X145022142Y-122440000D02*
X144879285Y-122368571D01*
X144665000Y-122368571D01*
X144450714Y-122440000D01*
X144307857Y-122582857D01*
X144236428Y-122725714D01*
X144165000Y-123011428D01*
X144165000Y-123225714D01*
X144236428Y-123511428D01*
X144307857Y-123654285D01*
X144450714Y-123797142D01*
X144665000Y-123868571D01*
X144807857Y-123868571D01*
X145022142Y-123797142D01*
X145093571Y-123725714D01*
X145093571Y-123225714D01*
X144807857Y-123225714D01*
X145736428Y-123868571D02*
X145736428Y-122368571D01*
X146593571Y-123868571D01*
X146593571Y-122368571D01*
X144379285Y-126220171D02*
X144379285Y-124720171D01*
X144736428Y-124720171D01*
X144950714Y-124791600D01*
X145093571Y-124934457D01*
X145165000Y-125077314D01*
X145236428Y-125363028D01*
X145236428Y-125577314D01*
X145165000Y-125863028D01*
X145093571Y-126005885D01*
X144950714Y-126148742D01*
X144736428Y-126220171D01*
X144379285Y-126220171D01*
X145807857Y-125791600D02*
X146522142Y-125791600D01*
X145665000Y-126220171D02*
X146165000Y-124720171D01*
X146665000Y-126220171D01*
X130937142Y-103601171D02*
X131865714Y-103601171D01*
X131365714Y-104172600D01*
X131580000Y-104172600D01*
X131722857Y-104244028D01*
X131794285Y-104315457D01*
X131865714Y-104458314D01*
X131865714Y-104815457D01*
X131794285Y-104958314D01*
X131722857Y-105029742D01*
X131580000Y-105101171D01*
X131151428Y-105101171D01*
X131008571Y-105029742D01*
X130937142Y-104958314D01*
X132294285Y-103601171D02*
X132794285Y-105101171D01*
X133294285Y-103601171D01*
X131687142Y-106024200D02*
X131544285Y-105952771D01*
X131330000Y-105952771D01*
X131115714Y-106024200D01*
X130972857Y-106167057D01*
X130901428Y-106309914D01*
X130830000Y-106595628D01*
X130830000Y-106809914D01*
X130901428Y-107095628D01*
X130972857Y-107238485D01*
X131115714Y-107381342D01*
X131330000Y-107452771D01*
X131472857Y-107452771D01*
X131687142Y-107381342D01*
X131758571Y-107309914D01*
X131758571Y-106809914D01*
X131472857Y-106809914D01*
X132401428Y-107452771D02*
X132401428Y-105952771D01*
X133258571Y-107452771D01*
X133258571Y-105952771D01*
X131937142Y-109661514D02*
X131865714Y-109732942D01*
X131651428Y-109804371D01*
X131508571Y-109804371D01*
X131294285Y-109732942D01*
X131151428Y-109590085D01*
X131080000Y-109447228D01*
X131008571Y-109161514D01*
X131008571Y-108947228D01*
X131080000Y-108661514D01*
X131151428Y-108518657D01*
X131294285Y-108375800D01*
X131508571Y-108304371D01*
X131651428Y-108304371D01*
X131865714Y-108375800D01*
X131937142Y-108447228D01*
X133294285Y-109804371D02*
X132580000Y-109804371D01*
X132580000Y-108304371D01*
X131115714Y-112155971D02*
X131115714Y-110655971D01*
X131472857Y-110655971D01*
X131687142Y-110727400D01*
X131830000Y-110870257D01*
X131901428Y-111013114D01*
X131972857Y-111298828D01*
X131972857Y-111513114D01*
X131901428Y-111798828D01*
X131830000Y-111941685D01*
X131687142Y-112084542D01*
X131472857Y-112155971D01*
X131115714Y-112155971D01*
X132401428Y-110655971D02*
X133258571Y-110655971D01*
X132830000Y-112155971D02*
X132830000Y-110655971D01*
D10*
X127361428Y-114748571D02*
X127647142Y-114748571D01*
X127790000Y-114820000D01*
X127932857Y-114962857D01*
X128004285Y-115248571D01*
X128004285Y-115748571D01*
X127932857Y-116034285D01*
X127790000Y-116177142D01*
X127647142Y-116248571D01*
X127361428Y-116248571D01*
X127218571Y-116177142D01*
X127075714Y-116034285D01*
X127004285Y-115748571D01*
X127004285Y-115248571D01*
X127075714Y-114962857D01*
X127218571Y-114820000D01*
X127361428Y-114748571D01*
X129361428Y-116248571D02*
X128647142Y-116248571D01*
X128647142Y-114748571D01*
X129861428Y-115462857D02*
X130361428Y-115462857D01*
X130575714Y-116248571D02*
X129861428Y-116248571D01*
X129861428Y-114748571D01*
X130575714Y-114748571D01*
X131218571Y-116248571D02*
X131218571Y-114748571D01*
X131575714Y-114748571D01*
X131790000Y-114820000D01*
X131932857Y-114962857D01*
X132004285Y-115105714D01*
X132075714Y-115391428D01*
X132075714Y-115605714D01*
X132004285Y-115891428D01*
X131932857Y-116034285D01*
X131790000Y-116177142D01*
X131575714Y-116248571D01*
X131218571Y-116248571D01*
X140331428Y-118788571D02*
X140331428Y-117288571D01*
X140688571Y-117288571D01*
X140902857Y-117360000D01*
X141045714Y-117502857D01*
X141117142Y-117645714D01*
X141188571Y-117931428D01*
X141188571Y-118145714D01*
X141117142Y-118431428D01*
X141045714Y-118574285D01*
X140902857Y-118717142D01*
X140688571Y-118788571D01*
X140331428Y-118788571D01*
X141831428Y-118788571D02*
X141831428Y-117288571D01*
X141831428Y-118002857D02*
X142688571Y-118002857D01*
X142688571Y-118788571D02*
X142688571Y-117288571D01*
X143188571Y-117288571D02*
X144045714Y-117288571D01*
X143617142Y-118788571D02*
X143617142Y-117288571D01*
X144474285Y-117431428D02*
X144545714Y-117360000D01*
X144688571Y-117288571D01*
X145045714Y-117288571D01*
X145188571Y-117360000D01*
X145260000Y-117431428D01*
X145331428Y-117574285D01*
X145331428Y-117717142D01*
X145260000Y-117931428D01*
X144402857Y-118788571D01*
X145331428Y-118788571D01*
X145902857Y-117431428D02*
X145974285Y-117360000D01*
X146117142Y-117288571D01*
X146474285Y-117288571D01*
X146617142Y-117360000D01*
X146688571Y-117431428D01*
X146760000Y-117574285D01*
X146760000Y-117717142D01*
X146688571Y-117931428D01*
X145831428Y-118788571D01*
X146760000Y-118788571D01*
X121257142Y-121380000D02*
X121328571Y-121165714D01*
X121328571Y-120808571D01*
X121257142Y-120665714D01*
X121185714Y-120594285D01*
X121042857Y-120522857D01*
X120900000Y-120522857D01*
X120757142Y-120594285D01*
X120685714Y-120665714D01*
X120614285Y-120808571D01*
X120542857Y-121094285D01*
X120471428Y-121237142D01*
X120400000Y-121308571D01*
X120257142Y-121380000D01*
X120114285Y-121380000D01*
X119971428Y-121308571D01*
X119900000Y-121237142D01*
X119828571Y-121094285D01*
X119828571Y-120737142D01*
X119900000Y-120522857D01*
X119828571Y-120022857D02*
X121328571Y-119665714D01*
X120257142Y-119380000D01*
X121328571Y-119094285D01*
X119828571Y-118737142D01*
X119971428Y-118237142D02*
X119900000Y-118165714D01*
X119828571Y-118022857D01*
X119828571Y-117665714D01*
X119900000Y-117522857D01*
X119971428Y-117451428D01*
X120114285Y-117380000D01*
X120257142Y-117380000D01*
X120471428Y-117451428D01*
X121328571Y-118308571D01*
X121328571Y-117380000D01*
X121257142Y-126460000D02*
X121328571Y-126245714D01*
X121328571Y-125888571D01*
X121257142Y-125745714D01*
X121185714Y-125674285D01*
X121042857Y-125602857D01*
X120900000Y-125602857D01*
X120757142Y-125674285D01*
X120685714Y-125745714D01*
X120614285Y-125888571D01*
X120542857Y-126174285D01*
X120471428Y-126317142D01*
X120400000Y-126388571D01*
X120257142Y-126460000D01*
X120114285Y-126460000D01*
X119971428Y-126388571D01*
X119900000Y-126317142D01*
X119828571Y-126174285D01*
X119828571Y-125817142D01*
X119900000Y-125602857D01*
X119828571Y-125102857D02*
X121328571Y-124745714D01*
X120257142Y-124460000D01*
X121328571Y-124174285D01*
X119828571Y-123817142D01*
X121328571Y-122460000D02*
X121328571Y-123317142D01*
X121328571Y-122888571D02*
X119828571Y-122888571D01*
X120042857Y-123031428D01*
X120185714Y-123174285D01*
X120257142Y-123317142D01*
X128948571Y-111842857D02*
X128948571Y-112557142D01*
X127448571Y-112557142D01*
X128805714Y-110485714D02*
X128877142Y-110557142D01*
X128948571Y-110771428D01*
X128948571Y-110914285D01*
X128877142Y-111128571D01*
X128734285Y-111271428D01*
X128591428Y-111342857D01*
X128305714Y-111414285D01*
X128091428Y-111414285D01*
X127805714Y-111342857D01*
X127662857Y-111271428D01*
X127520000Y-111128571D01*
X127448571Y-110914285D01*
X127448571Y-110771428D01*
X127520000Y-110557142D01*
X127591428Y-110485714D01*
X128948571Y-109842857D02*
X127448571Y-109842857D01*
X127448571Y-109485714D01*
X127520000Y-109271428D01*
X127662857Y-109128571D01*
X127805714Y-109057142D01*
X128091428Y-108985714D01*
X128305714Y-108985714D01*
X128591428Y-109057142D01*
X128734285Y-109128571D01*
X128877142Y-109271428D01*
X128948571Y-109485714D01*
X128948571Y-109842857D01*
X127591428Y-108414285D02*
X127520000Y-108342857D01*
X127448571Y-108200000D01*
X127448571Y-107842857D01*
X127520000Y-107700000D01*
X127591428Y-107628571D01*
X127734285Y-107557142D01*
X127877142Y-107557142D01*
X128091428Y-107628571D01*
X128948571Y-108485714D01*
X128948571Y-107557142D01*
X127448571Y-106628571D02*
X127448571Y-106485714D01*
X127520000Y-106342857D01*
X127591428Y-106271428D01*
X127734285Y-106200000D01*
X128020000Y-106128571D01*
X128377142Y-106128571D01*
X128662857Y-106200000D01*
X128805714Y-106271428D01*
X128877142Y-106342857D01*
X128948571Y-106485714D01*
X128948571Y-106628571D01*
X128877142Y-106771428D01*
X128805714Y-106842857D01*
X128662857Y-106914285D01*
X128377142Y-106985714D01*
X128020000Y-106985714D01*
X127734285Y-106914285D01*
X127591428Y-106842857D01*
X127520000Y-106771428D01*
X127448571Y-106628571D01*
X127448571Y-105200000D02*
X127448571Y-105057142D01*
X127520000Y-104914285D01*
X127591428Y-104842857D01*
X127734285Y-104771428D01*
X128020000Y-104700000D01*
X128377142Y-104700000D01*
X128662857Y-104771428D01*
X128805714Y-104842857D01*
X128877142Y-104914285D01*
X128948571Y-105057142D01*
X128948571Y-105200000D01*
X128877142Y-105342857D01*
X128805714Y-105414285D01*
X128662857Y-105485714D01*
X128377142Y-105557142D01*
X128020000Y-105557142D01*
X127734285Y-105485714D01*
X127591428Y-105414285D01*
X127520000Y-105342857D01*
X127448571Y-105200000D01*
X127948571Y-103414285D02*
X128948571Y-103414285D01*
X127377142Y-103771428D02*
X128448571Y-104128571D01*
X128448571Y-103200000D01*
X138322857Y-111521428D02*
X138394285Y-111307142D01*
X138465714Y-111235714D01*
X138608571Y-111164285D01*
X138822857Y-111164285D01*
X138965714Y-111235714D01*
X139037142Y-111307142D01*
X139108571Y-111450000D01*
X139108571Y-112021428D01*
X137608571Y-112021428D01*
X137608571Y-111521428D01*
X137680000Y-111378571D01*
X137751428Y-111307142D01*
X137894285Y-111235714D01*
X138037142Y-111235714D01*
X138180000Y-111307142D01*
X138251428Y-111378571D01*
X138322857Y-111521428D01*
X138322857Y-112021428D01*
X139108571Y-110521428D02*
X137608571Y-110521428D01*
X138680000Y-110021428D01*
X137608571Y-109521428D01*
X139108571Y-109521428D01*
X138322857Y-108807142D02*
X138322857Y-108307142D01*
X139108571Y-108092857D02*
X139108571Y-108807142D01*
X137608571Y-108807142D01*
X137608571Y-108092857D01*
X137751428Y-107521428D02*
X137680000Y-107450000D01*
X137608571Y-107307142D01*
X137608571Y-106950000D01*
X137680000Y-106807142D01*
X137751428Y-106735714D01*
X137894285Y-106664285D01*
X138037142Y-106664285D01*
X138251428Y-106735714D01*
X139108571Y-107592857D01*
X139108571Y-106664285D01*
X138251428Y-105807142D02*
X138180000Y-105950000D01*
X138108571Y-106021428D01*
X137965714Y-106092857D01*
X137894285Y-106092857D01*
X137751428Y-106021428D01*
X137680000Y-105950000D01*
X137608571Y-105807142D01*
X137608571Y-105521428D01*
X137680000Y-105378571D01*
X137751428Y-105307142D01*
X137894285Y-105235714D01*
X137965714Y-105235714D01*
X138108571Y-105307142D01*
X138180000Y-105378571D01*
X138251428Y-105521428D01*
X138251428Y-105807142D01*
X138322857Y-105950000D01*
X138394285Y-106021428D01*
X138537142Y-106092857D01*
X138822857Y-106092857D01*
X138965714Y-106021428D01*
X139037142Y-105950000D01*
X139108571Y-105807142D01*
X139108571Y-105521428D01*
X139037142Y-105378571D01*
X138965714Y-105307142D01*
X138822857Y-105235714D01*
X138537142Y-105235714D01*
X138394285Y-105307142D01*
X138322857Y-105378571D01*
X138251428Y-105521428D01*
X137608571Y-104307142D02*
X137608571Y-104164285D01*
X137680000Y-104021428D01*
X137751428Y-103950000D01*
X137894285Y-103878571D01*
X138180000Y-103807142D01*
X138537142Y-103807142D01*
X138822857Y-103878571D01*
X138965714Y-103950000D01*
X139037142Y-104021428D01*
X139108571Y-104164285D01*
X139108571Y-104307142D01*
X139037142Y-104450000D01*
X138965714Y-104521428D01*
X138822857Y-104592857D01*
X138537142Y-104664285D01*
X138180000Y-104664285D01*
X137894285Y-104592857D01*
X137751428Y-104521428D01*
X137680000Y-104450000D01*
X137608571Y-104307142D01*
X140005714Y-98468571D02*
X139291428Y-98468571D01*
X139291428Y-96968571D01*
X140505714Y-97682857D02*
X141005714Y-97682857D01*
X141220000Y-98468571D02*
X140505714Y-98468571D01*
X140505714Y-96968571D01*
X141220000Y-96968571D01*
X141862857Y-98468571D02*
X141862857Y-96968571D01*
X142220000Y-96968571D01*
X142434285Y-97040000D01*
X142577142Y-97182857D01*
X142648571Y-97325714D01*
X142720000Y-97611428D01*
X142720000Y-97825714D01*
X142648571Y-98111428D01*
X142577142Y-98254285D01*
X142434285Y-98397142D01*
X142220000Y-98468571D01*
X141862857Y-98468571D01*
X131925714Y-80688571D02*
X131925714Y-79188571D01*
X132282857Y-79188571D01*
X132497142Y-79260000D01*
X132640000Y-79402857D01*
X132711428Y-79545714D01*
X132782857Y-79831428D01*
X132782857Y-80045714D01*
X132711428Y-80331428D01*
X132640000Y-80474285D01*
X132497142Y-80617142D01*
X132282857Y-80688571D01*
X131925714Y-80688571D01*
X133354285Y-80617142D02*
X133568571Y-80688571D01*
X133925714Y-80688571D01*
X134068571Y-80617142D01*
X134140000Y-80545714D01*
X134211428Y-80402857D01*
X134211428Y-80260000D01*
X134140000Y-80117142D01*
X134068571Y-80045714D01*
X133925714Y-79974285D01*
X133640000Y-79902857D01*
X133497142Y-79831428D01*
X133425714Y-79760000D01*
X133354285Y-79617142D01*
X133354285Y-79474285D01*
X133425714Y-79331428D01*
X133497142Y-79260000D01*
X133640000Y-79188571D01*
X133997142Y-79188571D01*
X134211428Y-79260000D01*
X134711428Y-79188571D02*
X135640000Y-79188571D01*
X135140000Y-79760000D01*
X135354285Y-79760000D01*
X135497142Y-79831428D01*
X135568571Y-79902857D01*
X135640000Y-80045714D01*
X135640000Y-80402857D01*
X135568571Y-80545714D01*
X135497142Y-80617142D01*
X135354285Y-80688571D01*
X134925714Y-80688571D01*
X134782857Y-80617142D01*
X134711428Y-80545714D01*
X136211428Y-79331428D02*
X136282857Y-79260000D01*
X136425714Y-79188571D01*
X136782857Y-79188571D01*
X136925714Y-79260000D01*
X136997142Y-79331428D01*
X137068571Y-79474285D01*
X137068571Y-79617142D01*
X136997142Y-79831428D01*
X136140000Y-80688571D01*
X137068571Y-80688571D01*
X137568571Y-79188571D02*
X138497142Y-79188571D01*
X137997142Y-79760000D01*
X138211428Y-79760000D01*
X138354285Y-79831428D01*
X138425714Y-79902857D01*
X138497142Y-80045714D01*
X138497142Y-80402857D01*
X138425714Y-80545714D01*
X138354285Y-80617142D01*
X138211428Y-80688571D01*
X137782857Y-80688571D01*
X137640000Y-80617142D01*
X137568571Y-80545714D01*
X139925714Y-80688571D02*
X139068571Y-80688571D01*
X139497142Y-80688571D02*
X139497142Y-79188571D01*
X139354285Y-79402857D01*
X139211428Y-79545714D01*
X139068571Y-79617142D01*
D13*
G36*
X133350000Y-81280000D02*
X121920000Y-81280000D01*
X121920000Y-93980000D01*
X133350000Y-93980000D01*
X133350000Y-81280000D01*
G37*
X133350000Y-81280000D02*
X121920000Y-81280000D01*
X121920000Y-93980000D01*
X133350000Y-93980000D01*
X133350000Y-81280000D01*
D14*
G04 #@! TO.C,J10*
X144720000Y-113090000D02*
X147380000Y-113090000D01*
X144720000Y-105410000D02*
X144720000Y-113090000D01*
X147380000Y-105410000D02*
X147380000Y-113090000D01*
X144720000Y-105410000D02*
X147380000Y-105410000D01*
X144720000Y-104140000D02*
X144720000Y-102810000D01*
X144720000Y-102810000D02*
X146050000Y-102810000D01*
G04 #@! TO.C,J11*
X144720000Y-96580000D02*
X147380000Y-96580000D01*
X144720000Y-83820000D02*
X144720000Y-96580000D01*
X147380000Y-83820000D02*
X147380000Y-96580000D01*
X144720000Y-83820000D02*
X147380000Y-83820000D01*
X144720000Y-82550000D02*
X144720000Y-81220000D01*
X144720000Y-81220000D02*
X146050000Y-81220000D01*
G04 #@! TO.C,R1*
X66660000Y-121000000D02*
X70500000Y-121000000D01*
X66660000Y-122840000D02*
X70500000Y-122840000D01*
D15*
G04 #@! TO.C,U1*
X64750000Y-128250000D02*
X64750000Y-100350000D01*
X119150000Y-128250000D02*
X64750000Y-128250000D01*
X119150000Y-100350000D02*
X119150000Y-128250000D01*
X64750000Y-100350000D02*
X119150000Y-100350000D01*
D14*
G04 #@! TO.C,J1*
X134560000Y-102810000D02*
X135890000Y-102810000D01*
X134560000Y-104140000D02*
X134560000Y-102810000D01*
X134560000Y-105410000D02*
X137220000Y-105410000D01*
X137220000Y-105410000D02*
X137220000Y-113090000D01*
X134560000Y-105410000D02*
X134560000Y-113090000D01*
X134560000Y-113090000D02*
X137220000Y-113090000D01*
G04 #@! TO.C,J2*
X128210000Y-116780000D02*
X129540000Y-116780000D01*
X128210000Y-118110000D02*
X128210000Y-116780000D01*
X128210000Y-119380000D02*
X130870000Y-119380000D01*
X130870000Y-119380000D02*
X130870000Y-127060000D01*
X128210000Y-119380000D02*
X128210000Y-127060000D01*
X128210000Y-127060000D02*
X130870000Y-127060000D01*
G04 #@! TO.C,J3*
X124400000Y-102810000D02*
X125730000Y-102810000D01*
X124400000Y-104140000D02*
X124400000Y-102810000D01*
X124400000Y-105410000D02*
X127060000Y-105410000D01*
X127060000Y-105410000D02*
X127060000Y-113090000D01*
X124400000Y-105410000D02*
X124400000Y-113090000D01*
X124400000Y-113090000D02*
X127060000Y-113090000D01*
G04 #@! TO.C,J4*
X137220000Y-94040000D02*
X135890000Y-94040000D01*
X137220000Y-92710000D02*
X137220000Y-94040000D01*
X137220000Y-91440000D02*
X134560000Y-91440000D01*
X134560000Y-91440000D02*
X134560000Y-81220000D01*
X137220000Y-91440000D02*
X137220000Y-81220000D01*
X137220000Y-81220000D02*
X134560000Y-81220000D01*
G04 #@! TO.C,J5*
X140910000Y-119320000D02*
X142240000Y-119320000D01*
X140910000Y-120650000D02*
X140910000Y-119320000D01*
X140910000Y-121920000D02*
X143570000Y-121920000D01*
X143570000Y-121920000D02*
X143570000Y-127060000D01*
X140910000Y-121920000D02*
X140910000Y-127060000D01*
X140910000Y-127060000D02*
X143570000Y-127060000D01*
G04 #@! TO.C,J6*
X124520000Y-127060000D02*
X123190000Y-127060000D01*
X124520000Y-125730000D02*
X124520000Y-127060000D01*
X124520000Y-124460000D02*
X121860000Y-124460000D01*
X121860000Y-124460000D02*
X121860000Y-121860000D01*
X124520000Y-124460000D02*
X124520000Y-121860000D01*
X124520000Y-121860000D02*
X121860000Y-121860000D01*
G04 #@! TO.C,J7*
X124520000Y-121980000D02*
X123190000Y-121980000D01*
X124520000Y-120650000D02*
X124520000Y-121980000D01*
X124520000Y-119380000D02*
X121860000Y-119380000D01*
X121860000Y-119380000D02*
X121860000Y-116780000D01*
X124520000Y-119380000D02*
X124520000Y-116780000D01*
X124520000Y-116780000D02*
X121860000Y-116780000D01*
G04 #@! TO.C,J8*
X134560000Y-116780000D02*
X135890000Y-116780000D01*
X134560000Y-118110000D02*
X134560000Y-116780000D01*
X134560000Y-119380000D02*
X137220000Y-119380000D01*
X137220000Y-119380000D02*
X137220000Y-127060000D01*
X134560000Y-119380000D02*
X134560000Y-127060000D01*
X134560000Y-127060000D02*
X137220000Y-127060000D01*
G04 #@! TO.C,J9*
X132020000Y-99120000D02*
X132020000Y-97790000D01*
X133350000Y-99120000D02*
X132020000Y-99120000D01*
X134620000Y-99120000D02*
X134620000Y-96460000D01*
X134620000Y-96460000D02*
X137220000Y-96460000D01*
X134620000Y-99120000D02*
X137220000Y-99120000D01*
X137220000Y-99120000D02*
X137220000Y-96460000D01*
D16*
G04 #@! TO.C,*
G36*
X98333339Y-78743625D02*
X98834455Y-78778759D01*
X99034600Y-78800512D01*
X99552809Y-78879586D01*
X100068329Y-78991629D01*
X100578837Y-79135744D01*
X101082011Y-79311037D01*
X101575530Y-79516611D01*
X102057072Y-79751571D01*
X102524314Y-80015020D01*
X102974935Y-80306063D01*
X103022580Y-80339158D01*
X103458332Y-80664358D01*
X103871565Y-81014040D01*
X104261448Y-81386832D01*
X104627148Y-81781363D01*
X104967831Y-82196260D01*
X105282666Y-82630152D01*
X105570819Y-83081667D01*
X105831457Y-83549433D01*
X106063748Y-84032077D01*
X106266858Y-84528229D01*
X106439956Y-85036515D01*
X106582208Y-85555565D01*
X106692781Y-86084006D01*
X106754592Y-86486999D01*
X106798350Y-86917753D01*
X106821004Y-87365363D01*
X106822552Y-87820196D01*
X106802993Y-88272620D01*
X106762325Y-88713002D01*
X106754966Y-88773000D01*
X106671246Y-89300458D01*
X106554684Y-89822460D01*
X106406115Y-90337171D01*
X106226368Y-90842752D01*
X106016276Y-91337369D01*
X105776671Y-91819184D01*
X105508385Y-92286360D01*
X105212251Y-92737062D01*
X104889098Y-93169452D01*
X104614841Y-93497354D01*
X104238925Y-93899981D01*
X103842596Y-94276035D01*
X103427061Y-94625013D01*
X102993527Y-94946408D01*
X102543203Y-95239717D01*
X102077295Y-95504434D01*
X101597010Y-95740054D01*
X101103557Y-95946073D01*
X100598142Y-96121986D01*
X100081973Y-96267288D01*
X99556256Y-96381475D01*
X99022201Y-96464040D01*
X98481013Y-96514480D01*
X97933900Y-96532289D01*
X97392066Y-96517537D01*
X96858852Y-96470391D01*
X96329619Y-96390177D01*
X95806126Y-96277618D01*
X95290132Y-96133441D01*
X94783397Y-95958369D01*
X94287678Y-95753127D01*
X93804735Y-95518441D01*
X93336327Y-95255035D01*
X92884213Y-94963634D01*
X92450152Y-94644963D01*
X92058387Y-94319626D01*
X91925570Y-94199171D01*
X91782108Y-94063064D01*
X91635199Y-93918524D01*
X91492040Y-93772771D01*
X91359829Y-93633023D01*
X91245764Y-93506501D01*
X91232774Y-93491551D01*
X91175910Y-93425960D01*
X91126921Y-93369784D01*
X91090076Y-93327891D01*
X91069643Y-93305152D01*
X91067211Y-93302666D01*
X91049999Y-93283026D01*
X91016592Y-93241371D01*
X90970952Y-93182902D01*
X90917040Y-93112818D01*
X90858818Y-93036321D01*
X90800248Y-92958611D01*
X90745291Y-92884888D01*
X90697908Y-92820353D01*
X90667340Y-92777733D01*
X90361241Y-92314749D01*
X90085372Y-91837539D01*
X89840242Y-91347163D01*
X89626363Y-90844677D01*
X89444247Y-90331140D01*
X89373866Y-90100425D01*
X89239919Y-89578210D01*
X89138352Y-89047965D01*
X89069229Y-88511791D01*
X89032611Y-87971784D01*
X89030660Y-87710674D01*
X89266527Y-87710674D01*
X89284168Y-88206490D01*
X89328751Y-88694560D01*
X89399856Y-89166407D01*
X89514415Y-89701675D01*
X89660371Y-90224354D01*
X89837482Y-90733934D01*
X90045506Y-91229907D01*
X90284201Y-91711761D01*
X90553324Y-92178989D01*
X90852635Y-92631080D01*
X91181890Y-93067524D01*
X91349188Y-93269772D01*
X91512562Y-93453590D01*
X91697836Y-93648109D01*
X91897908Y-93846546D01*
X92105674Y-94042117D01*
X92314031Y-94228037D01*
X92515878Y-94397521D01*
X92599933Y-94464463D01*
X93030090Y-94779534D01*
X93477955Y-95066515D01*
X93941811Y-95324870D01*
X94419937Y-95554063D01*
X94910618Y-95753557D01*
X95412135Y-95922816D01*
X95922769Y-96061303D01*
X96440803Y-96168481D01*
X96964519Y-96243815D01*
X97492199Y-96286767D01*
X98022124Y-96296802D01*
X98421421Y-96282318D01*
X98965811Y-96232947D01*
X99501875Y-96151099D01*
X100028594Y-96037144D01*
X100544947Y-95891455D01*
X101049918Y-95714401D01*
X101542486Y-95506355D01*
X102021634Y-95267687D01*
X102486341Y-94998769D01*
X102935591Y-94699973D01*
X103107066Y-94574916D01*
X103480584Y-94277663D01*
X103845829Y-93951729D01*
X104197718Y-93602151D01*
X104531166Y-93233963D01*
X104824489Y-92873795D01*
X105104629Y-92485480D01*
X105366168Y-92072165D01*
X105606936Y-91638463D01*
X105824763Y-91188986D01*
X106017480Y-90728350D01*
X106182916Y-90261165D01*
X106318902Y-89792047D01*
X106367007Y-89594266D01*
X106471697Y-89062338D01*
X106543212Y-88526691D01*
X106581605Y-87988985D01*
X106586930Y-87450876D01*
X106559241Y-86914023D01*
X106498590Y-86380084D01*
X106405032Y-85850716D01*
X106278621Y-85327578D01*
X106222454Y-85132333D01*
X106053330Y-84627865D01*
X105853584Y-84136489D01*
X105624336Y-83659495D01*
X105366708Y-83198173D01*
X105081820Y-82753812D01*
X104770793Y-82327703D01*
X104434749Y-81921135D01*
X104074808Y-81535397D01*
X103692092Y-81171781D01*
X103287720Y-80831575D01*
X102862816Y-80516070D01*
X102418498Y-80226555D01*
X101955889Y-79964321D01*
X101561680Y-79769622D01*
X101063816Y-79558046D01*
X100556363Y-79378802D01*
X100040271Y-79232038D01*
X99516493Y-79117901D01*
X98985983Y-79036540D01*
X98449691Y-78988103D01*
X97908572Y-78972738D01*
X97363576Y-78990592D01*
X96850199Y-79037605D01*
X96336361Y-79116082D01*
X95825498Y-79227437D01*
X95320263Y-79370682D01*
X94823305Y-79544830D01*
X94337277Y-79748893D01*
X93864830Y-79981885D01*
X93408614Y-80242818D01*
X93124866Y-80425037D01*
X92682153Y-80742197D01*
X92262836Y-81083106D01*
X91867652Y-81446623D01*
X91497334Y-81831609D01*
X91152617Y-82236923D01*
X90834237Y-82661426D01*
X90542928Y-83103977D01*
X90279424Y-83563438D01*
X90044461Y-84038668D01*
X89838772Y-84528527D01*
X89663094Y-85031875D01*
X89518160Y-85547572D01*
X89404706Y-86074479D01*
X89375789Y-86241466D01*
X89312284Y-86721692D01*
X89275881Y-87213585D01*
X89266527Y-87710674D01*
X89030660Y-87710674D01*
X89028563Y-87430044D01*
X89057147Y-86888668D01*
X89118427Y-86349756D01*
X89212465Y-85815405D01*
X89241125Y-85682666D01*
X89353145Y-85240629D01*
X89490749Y-84797013D01*
X89651258Y-84358720D01*
X89831992Y-83932653D01*
X90030271Y-83525716D01*
X90193438Y-83229372D01*
X90234942Y-83157688D01*
X90269492Y-83097451D01*
X90293931Y-83054208D01*
X90305102Y-83033506D01*
X90305466Y-83032545D01*
X90314511Y-83016182D01*
X90339487Y-82976726D01*
X90377155Y-82919003D01*
X90424277Y-82847840D01*
X90477613Y-82768062D01*
X90533924Y-82684497D01*
X90589972Y-82601971D01*
X90642518Y-82525309D01*
X90688323Y-82459337D01*
X90722100Y-82411716D01*
X90895462Y-82182336D01*
X91090267Y-81943588D01*
X91300012Y-81702599D01*
X91518191Y-81466494D01*
X91738302Y-81242399D01*
X91953839Y-81037441D01*
X92074999Y-80929442D01*
X92506874Y-80576842D01*
X92954873Y-80253877D01*
X93418403Y-79960834D01*
X93896872Y-79697997D01*
X94389687Y-79465649D01*
X94896255Y-79264076D01*
X95415984Y-79093563D01*
X95948281Y-78954393D01*
X96367599Y-78868543D01*
X96841415Y-78797797D01*
X97330914Y-78753295D01*
X97830190Y-78735187D01*
X98333339Y-78743625D01*
X98333339Y-78743625D01*
G37*
X98333339Y-78743625D02*
X98834455Y-78778759D01*
X99034600Y-78800512D01*
X99552809Y-78879586D01*
X100068329Y-78991629D01*
X100578837Y-79135744D01*
X101082011Y-79311037D01*
X101575530Y-79516611D01*
X102057072Y-79751571D01*
X102524314Y-80015020D01*
X102974935Y-80306063D01*
X103022580Y-80339158D01*
X103458332Y-80664358D01*
X103871565Y-81014040D01*
X104261448Y-81386832D01*
X104627148Y-81781363D01*
X104967831Y-82196260D01*
X105282666Y-82630152D01*
X105570819Y-83081667D01*
X105831457Y-83549433D01*
X106063748Y-84032077D01*
X106266858Y-84528229D01*
X106439956Y-85036515D01*
X106582208Y-85555565D01*
X106692781Y-86084006D01*
X106754592Y-86486999D01*
X106798350Y-86917753D01*
X106821004Y-87365363D01*
X106822552Y-87820196D01*
X106802993Y-88272620D01*
X106762325Y-88713002D01*
X106754966Y-88773000D01*
X106671246Y-89300458D01*
X106554684Y-89822460D01*
X106406115Y-90337171D01*
X106226368Y-90842752D01*
X106016276Y-91337369D01*
X105776671Y-91819184D01*
X105508385Y-92286360D01*
X105212251Y-92737062D01*
X104889098Y-93169452D01*
X104614841Y-93497354D01*
X104238925Y-93899981D01*
X103842596Y-94276035D01*
X103427061Y-94625013D01*
X102993527Y-94946408D01*
X102543203Y-95239717D01*
X102077295Y-95504434D01*
X101597010Y-95740054D01*
X101103557Y-95946073D01*
X100598142Y-96121986D01*
X100081973Y-96267288D01*
X99556256Y-96381475D01*
X99022201Y-96464040D01*
X98481013Y-96514480D01*
X97933900Y-96532289D01*
X97392066Y-96517537D01*
X96858852Y-96470391D01*
X96329619Y-96390177D01*
X95806126Y-96277618D01*
X95290132Y-96133441D01*
X94783397Y-95958369D01*
X94287678Y-95753127D01*
X93804735Y-95518441D01*
X93336327Y-95255035D01*
X92884213Y-94963634D01*
X92450152Y-94644963D01*
X92058387Y-94319626D01*
X91925570Y-94199171D01*
X91782108Y-94063064D01*
X91635199Y-93918524D01*
X91492040Y-93772771D01*
X91359829Y-93633023D01*
X91245764Y-93506501D01*
X91232774Y-93491551D01*
X91175910Y-93425960D01*
X91126921Y-93369784D01*
X91090076Y-93327891D01*
X91069643Y-93305152D01*
X91067211Y-93302666D01*
X91049999Y-93283026D01*
X91016592Y-93241371D01*
X90970952Y-93182902D01*
X90917040Y-93112818D01*
X90858818Y-93036321D01*
X90800248Y-92958611D01*
X90745291Y-92884888D01*
X90697908Y-92820353D01*
X90667340Y-92777733D01*
X90361241Y-92314749D01*
X90085372Y-91837539D01*
X89840242Y-91347163D01*
X89626363Y-90844677D01*
X89444247Y-90331140D01*
X89373866Y-90100425D01*
X89239919Y-89578210D01*
X89138352Y-89047965D01*
X89069229Y-88511791D01*
X89032611Y-87971784D01*
X89030660Y-87710674D01*
X89266527Y-87710674D01*
X89284168Y-88206490D01*
X89328751Y-88694560D01*
X89399856Y-89166407D01*
X89514415Y-89701675D01*
X89660371Y-90224354D01*
X89837482Y-90733934D01*
X90045506Y-91229907D01*
X90284201Y-91711761D01*
X90553324Y-92178989D01*
X90852635Y-92631080D01*
X91181890Y-93067524D01*
X91349188Y-93269772D01*
X91512562Y-93453590D01*
X91697836Y-93648109D01*
X91897908Y-93846546D01*
X92105674Y-94042117D01*
X92314031Y-94228037D01*
X92515878Y-94397521D01*
X92599933Y-94464463D01*
X93030090Y-94779534D01*
X93477955Y-95066515D01*
X93941811Y-95324870D01*
X94419937Y-95554063D01*
X94910618Y-95753557D01*
X95412135Y-95922816D01*
X95922769Y-96061303D01*
X96440803Y-96168481D01*
X96964519Y-96243815D01*
X97492199Y-96286767D01*
X98022124Y-96296802D01*
X98421421Y-96282318D01*
X98965811Y-96232947D01*
X99501875Y-96151099D01*
X100028594Y-96037144D01*
X100544947Y-95891455D01*
X101049918Y-95714401D01*
X101542486Y-95506355D01*
X102021634Y-95267687D01*
X102486341Y-94998769D01*
X102935591Y-94699973D01*
X103107066Y-94574916D01*
X103480584Y-94277663D01*
X103845829Y-93951729D01*
X104197718Y-93602151D01*
X104531166Y-93233963D01*
X104824489Y-92873795D01*
X105104629Y-92485480D01*
X105366168Y-92072165D01*
X105606936Y-91638463D01*
X105824763Y-91188986D01*
X106017480Y-90728350D01*
X106182916Y-90261165D01*
X106318902Y-89792047D01*
X106367007Y-89594266D01*
X106471697Y-89062338D01*
X106543212Y-88526691D01*
X106581605Y-87988985D01*
X106586930Y-87450876D01*
X106559241Y-86914023D01*
X106498590Y-86380084D01*
X106405032Y-85850716D01*
X106278621Y-85327578D01*
X106222454Y-85132333D01*
X106053330Y-84627865D01*
X105853584Y-84136489D01*
X105624336Y-83659495D01*
X105366708Y-83198173D01*
X105081820Y-82753812D01*
X104770793Y-82327703D01*
X104434749Y-81921135D01*
X104074808Y-81535397D01*
X103692092Y-81171781D01*
X103287720Y-80831575D01*
X102862816Y-80516070D01*
X102418498Y-80226555D01*
X101955889Y-79964321D01*
X101561680Y-79769622D01*
X101063816Y-79558046D01*
X100556363Y-79378802D01*
X100040271Y-79232038D01*
X99516493Y-79117901D01*
X98985983Y-79036540D01*
X98449691Y-78988103D01*
X97908572Y-78972738D01*
X97363576Y-78990592D01*
X96850199Y-79037605D01*
X96336361Y-79116082D01*
X95825498Y-79227437D01*
X95320263Y-79370682D01*
X94823305Y-79544830D01*
X94337277Y-79748893D01*
X93864830Y-79981885D01*
X93408614Y-80242818D01*
X93124866Y-80425037D01*
X92682153Y-80742197D01*
X92262836Y-81083106D01*
X91867652Y-81446623D01*
X91497334Y-81831609D01*
X91152617Y-82236923D01*
X90834237Y-82661426D01*
X90542928Y-83103977D01*
X90279424Y-83563438D01*
X90044461Y-84038668D01*
X89838772Y-84528527D01*
X89663094Y-85031875D01*
X89518160Y-85547572D01*
X89404706Y-86074479D01*
X89375789Y-86241466D01*
X89312284Y-86721692D01*
X89275881Y-87213585D01*
X89266527Y-87710674D01*
X89030660Y-87710674D01*
X89028563Y-87430044D01*
X89057147Y-86888668D01*
X89118427Y-86349756D01*
X89212465Y-85815405D01*
X89241125Y-85682666D01*
X89353145Y-85240629D01*
X89490749Y-84797013D01*
X89651258Y-84358720D01*
X89831992Y-83932653D01*
X90030271Y-83525716D01*
X90193438Y-83229372D01*
X90234942Y-83157688D01*
X90269492Y-83097451D01*
X90293931Y-83054208D01*
X90305102Y-83033506D01*
X90305466Y-83032545D01*
X90314511Y-83016182D01*
X90339487Y-82976726D01*
X90377155Y-82919003D01*
X90424277Y-82847840D01*
X90477613Y-82768062D01*
X90533924Y-82684497D01*
X90589972Y-82601971D01*
X90642518Y-82525309D01*
X90688323Y-82459337D01*
X90722100Y-82411716D01*
X90895462Y-82182336D01*
X91090267Y-81943588D01*
X91300012Y-81702599D01*
X91518191Y-81466494D01*
X91738302Y-81242399D01*
X91953839Y-81037441D01*
X92074999Y-80929442D01*
X92506874Y-80576842D01*
X92954873Y-80253877D01*
X93418403Y-79960834D01*
X93896872Y-79697997D01*
X94389687Y-79465649D01*
X94896255Y-79264076D01*
X95415984Y-79093563D01*
X95948281Y-78954393D01*
X96367599Y-78868543D01*
X96841415Y-78797797D01*
X97330914Y-78753295D01*
X97830190Y-78735187D01*
X98333339Y-78743625D01*
G36*
X98303300Y-80393837D02*
X98573331Y-80410634D01*
X98823827Y-80436359D01*
X98872447Y-80442801D01*
X98945534Y-80452837D01*
X99004936Y-80460870D01*
X99043449Y-80465933D01*
X99054308Y-80467199D01*
X99055501Y-80483571D01*
X99056794Y-80530437D01*
X99058143Y-80604426D01*
X99059505Y-80702168D01*
X99060838Y-80820289D01*
X99062099Y-80955420D01*
X99063244Y-81104187D01*
X99064060Y-81232800D01*
X99068466Y-81998401D01*
X99136200Y-82012988D01*
X99530878Y-82114125D01*
X99925175Y-82246818D01*
X100314218Y-82409055D01*
X100693133Y-82598827D01*
X101018783Y-82789808D01*
X101180039Y-82891401D01*
X101224439Y-82851933D01*
X101245827Y-82831638D01*
X101288373Y-82790156D01*
X101349283Y-82730249D01*
X101425767Y-82654675D01*
X101515034Y-82566197D01*
X101614291Y-82467573D01*
X101720748Y-82361564D01*
X101766382Y-82316054D01*
X102263927Y-81819641D01*
X102367996Y-81900546D01*
X102664437Y-82144870D01*
X102953982Y-82410511D01*
X103229725Y-82690511D01*
X103484756Y-82977911D01*
X103678200Y-83220321D01*
X103781691Y-83357242D01*
X103249645Y-83889087D01*
X103139117Y-84000030D01*
X103036356Y-84104061D01*
X102943784Y-84198663D01*
X102863822Y-84281321D01*
X102798892Y-84349519D01*
X102751414Y-84400741D01*
X102723810Y-84432471D01*
X102717599Y-84441870D01*
X102726213Y-84466281D01*
X102748640Y-84508917D01*
X102775597Y-84553474D01*
X102948084Y-84844800D01*
X103107367Y-85156978D01*
X103250289Y-85482251D01*
X103373691Y-85812863D01*
X103474416Y-86141058D01*
X103547294Y-86448899D01*
X103566667Y-86546266D01*
X105099959Y-86546266D01*
X105119516Y-86711366D01*
X105163543Y-87220795D01*
X105174268Y-87725685D01*
X105151691Y-88227653D01*
X105119703Y-88548633D01*
X105099723Y-88713733D01*
X103570034Y-88713733D01*
X103540454Y-88853433D01*
X103499282Y-89028081D01*
X103446800Y-89219914D01*
X103386859Y-89415830D01*
X103323308Y-89602729D01*
X103307842Y-89645066D01*
X103258226Y-89770413D01*
X103196582Y-89912951D01*
X103126681Y-90064952D01*
X103052292Y-90218688D01*
X102977186Y-90366428D01*
X102905132Y-90500446D01*
X102839900Y-90613011D01*
X102820513Y-90644133D01*
X102779428Y-90709985D01*
X102746151Y-90765970D01*
X102724413Y-90805638D01*
X102717789Y-90821835D01*
X102729361Y-90836938D01*
X102762550Y-90873420D01*
X102814947Y-90928792D01*
X102884139Y-91000566D01*
X102967719Y-91086254D01*
X103063273Y-91183368D01*
X103168394Y-91289420D01*
X103252039Y-91373306D01*
X103786479Y-91907942D01*
X103689480Y-92033804D01*
X103475962Y-92298390D01*
X103249357Y-92554106D01*
X103003314Y-92807809D01*
X102742999Y-93055770D01*
X102703282Y-93090808D01*
X102648328Y-93137250D01*
X102583244Y-93191005D01*
X102513138Y-93247983D01*
X102443117Y-93304094D01*
X102378288Y-93355247D01*
X102323759Y-93397353D01*
X102284635Y-93426321D01*
X102266026Y-93438060D01*
X102265567Y-93438133D01*
X102251174Y-93426530D01*
X102215369Y-93393328D01*
X102160626Y-93340938D01*
X102089417Y-93271773D01*
X102004216Y-93188243D01*
X101907494Y-93092759D01*
X101801727Y-92987733D01*
X101718574Y-92904774D01*
X101185020Y-92371416D01*
X101058077Y-92452424D01*
X100699531Y-92665531D01*
X100336901Y-92849016D01*
X99964585Y-93005194D01*
X99576978Y-93136381D01*
X99168478Y-93244894D01*
X99106739Y-93258982D01*
X99060344Y-93269358D01*
X99055939Y-94035106D01*
X99051533Y-94800853D01*
X98966866Y-94813242D01*
X98775545Y-94836867D01*
X98560054Y-94855925D01*
X98329839Y-94869982D01*
X98094343Y-94878608D01*
X97863011Y-94881370D01*
X97645287Y-94877836D01*
X97595266Y-94875968D01*
X97474159Y-94869875D01*
X97349787Y-94861842D01*
X97228898Y-94852461D01*
X97118238Y-94842326D01*
X97024554Y-94832029D01*
X96954593Y-94822163D01*
X96930633Y-94817580D01*
X96892533Y-94809088D01*
X96892533Y-93288043D01*
X96761299Y-93259967D01*
X96408483Y-93172740D01*
X96057671Y-93063257D01*
X95715107Y-92934052D01*
X95387036Y-92787664D01*
X95079705Y-92626630D01*
X94835519Y-92477554D01*
X94787972Y-92447862D01*
X94751184Y-92427748D01*
X94735964Y-92422133D01*
X94721207Y-92433762D01*
X94685099Y-92467039D01*
X94630122Y-92519543D01*
X94558753Y-92588858D01*
X94473472Y-92672564D01*
X94376759Y-92768244D01*
X94271092Y-92873477D01*
X94188651Y-92956021D01*
X94050798Y-93093622D01*
X93931133Y-93211544D01*
X93830522Y-93308968D01*
X93749833Y-93385077D01*
X93689933Y-93439050D01*
X93651690Y-93470069D01*
X93636272Y-93477570D01*
X93575093Y-93436067D01*
X93494314Y-93374677D01*
X93398439Y-93297304D01*
X93291970Y-93207855D01*
X93179410Y-93110233D01*
X93065261Y-93008345D01*
X92954026Y-92906094D01*
X92850208Y-92807386D01*
X92758400Y-92716219D01*
X92673358Y-92627698D01*
X92584774Y-92532518D01*
X92495847Y-92434405D01*
X92409775Y-92337089D01*
X92329757Y-92244297D01*
X92258991Y-92159760D01*
X92200675Y-92087203D01*
X92158008Y-92030358D01*
X92134188Y-91992950D01*
X92130723Y-91984529D01*
X92141306Y-91969122D01*
X92173560Y-91932338D01*
X92225113Y-91876655D01*
X92293596Y-91804553D01*
X92376638Y-91718508D01*
X92471868Y-91620998D01*
X92576917Y-91514502D01*
X92666525Y-91424407D01*
X93207251Y-90882693D01*
X94740859Y-90876646D01*
X95003726Y-90875594D01*
X95234990Y-90874603D01*
X95436916Y-90873615D01*
X95611767Y-90872574D01*
X95761808Y-90871421D01*
X95889300Y-90870098D01*
X95996510Y-90868549D01*
X96085700Y-90866715D01*
X96159135Y-90864539D01*
X96219078Y-90861964D01*
X96267793Y-90858932D01*
X96307545Y-90855385D01*
X96340596Y-90851265D01*
X96369211Y-90846516D01*
X96395654Y-90841080D01*
X96422188Y-90834899D01*
X96426866Y-90833771D01*
X96576834Y-90788532D01*
X96712686Y-90729878D01*
X96830316Y-90660549D01*
X96925624Y-90583289D01*
X96994505Y-90500840D01*
X97028193Y-90431880D01*
X97047559Y-90373200D01*
X99618800Y-90373200D01*
X99618800Y-84988400D01*
X97069615Y-84988400D01*
X97049946Y-84884905D01*
X97009363Y-84758145D01*
X96939197Y-84647238D01*
X96840183Y-84552940D01*
X96713055Y-84476006D01*
X96613133Y-84434768D01*
X96477666Y-84387266D01*
X94834480Y-84382479D01*
X93191293Y-84377691D01*
X92110897Y-83296899D01*
X92193907Y-83190149D01*
X92298727Y-83060116D01*
X92418855Y-82919142D01*
X92548816Y-82773090D01*
X92683139Y-82627824D01*
X92816349Y-82489209D01*
X92942973Y-82363109D01*
X93057539Y-82255387D01*
X93108174Y-82210608D01*
X93242507Y-82096240D01*
X93362039Y-81997518D01*
X93476345Y-81906578D01*
X93512436Y-81878568D01*
X93649800Y-81772547D01*
X94191721Y-82313633D01*
X94733643Y-82854718D01*
X94860588Y-82773660D01*
X95212914Y-82567751D01*
X95586204Y-82385872D01*
X95975728Y-82229993D01*
X96376756Y-82102081D01*
X96630066Y-82037459D01*
X96884066Y-81978850D01*
X96888471Y-81216455D01*
X96892875Y-80454060D01*
X96964671Y-80443647D01*
X97201854Y-80415859D01*
X97463010Y-80396980D01*
X97739437Y-80387014D01*
X98022434Y-80385965D01*
X98303300Y-80393837D01*
X98303300Y-80393837D01*
G37*
X98303300Y-80393837D02*
X98573331Y-80410634D01*
X98823827Y-80436359D01*
X98872447Y-80442801D01*
X98945534Y-80452837D01*
X99004936Y-80460870D01*
X99043449Y-80465933D01*
X99054308Y-80467199D01*
X99055501Y-80483571D01*
X99056794Y-80530437D01*
X99058143Y-80604426D01*
X99059505Y-80702168D01*
X99060838Y-80820289D01*
X99062099Y-80955420D01*
X99063244Y-81104187D01*
X99064060Y-81232800D01*
X99068466Y-81998401D01*
X99136200Y-82012988D01*
X99530878Y-82114125D01*
X99925175Y-82246818D01*
X100314218Y-82409055D01*
X100693133Y-82598827D01*
X101018783Y-82789808D01*
X101180039Y-82891401D01*
X101224439Y-82851933D01*
X101245827Y-82831638D01*
X101288373Y-82790156D01*
X101349283Y-82730249D01*
X101425767Y-82654675D01*
X101515034Y-82566197D01*
X101614291Y-82467573D01*
X101720748Y-82361564D01*
X101766382Y-82316054D01*
X102263927Y-81819641D01*
X102367996Y-81900546D01*
X102664437Y-82144870D01*
X102953982Y-82410511D01*
X103229725Y-82690511D01*
X103484756Y-82977911D01*
X103678200Y-83220321D01*
X103781691Y-83357242D01*
X103249645Y-83889087D01*
X103139117Y-84000030D01*
X103036356Y-84104061D01*
X102943784Y-84198663D01*
X102863822Y-84281321D01*
X102798892Y-84349519D01*
X102751414Y-84400741D01*
X102723810Y-84432471D01*
X102717599Y-84441870D01*
X102726213Y-84466281D01*
X102748640Y-84508917D01*
X102775597Y-84553474D01*
X102948084Y-84844800D01*
X103107367Y-85156978D01*
X103250289Y-85482251D01*
X103373691Y-85812863D01*
X103474416Y-86141058D01*
X103547294Y-86448899D01*
X103566667Y-86546266D01*
X105099959Y-86546266D01*
X105119516Y-86711366D01*
X105163543Y-87220795D01*
X105174268Y-87725685D01*
X105151691Y-88227653D01*
X105119703Y-88548633D01*
X105099723Y-88713733D01*
X103570034Y-88713733D01*
X103540454Y-88853433D01*
X103499282Y-89028081D01*
X103446800Y-89219914D01*
X103386859Y-89415830D01*
X103323308Y-89602729D01*
X103307842Y-89645066D01*
X103258226Y-89770413D01*
X103196582Y-89912951D01*
X103126681Y-90064952D01*
X103052292Y-90218688D01*
X102977186Y-90366428D01*
X102905132Y-90500446D01*
X102839900Y-90613011D01*
X102820513Y-90644133D01*
X102779428Y-90709985D01*
X102746151Y-90765970D01*
X102724413Y-90805638D01*
X102717789Y-90821835D01*
X102729361Y-90836938D01*
X102762550Y-90873420D01*
X102814947Y-90928792D01*
X102884139Y-91000566D01*
X102967719Y-91086254D01*
X103063273Y-91183368D01*
X103168394Y-91289420D01*
X103252039Y-91373306D01*
X103786479Y-91907942D01*
X103689480Y-92033804D01*
X103475962Y-92298390D01*
X103249357Y-92554106D01*
X103003314Y-92807809D01*
X102742999Y-93055770D01*
X102703282Y-93090808D01*
X102648328Y-93137250D01*
X102583244Y-93191005D01*
X102513138Y-93247983D01*
X102443117Y-93304094D01*
X102378288Y-93355247D01*
X102323759Y-93397353D01*
X102284635Y-93426321D01*
X102266026Y-93438060D01*
X102265567Y-93438133D01*
X102251174Y-93426530D01*
X102215369Y-93393328D01*
X102160626Y-93340938D01*
X102089417Y-93271773D01*
X102004216Y-93188243D01*
X101907494Y-93092759D01*
X101801727Y-92987733D01*
X101718574Y-92904774D01*
X101185020Y-92371416D01*
X101058077Y-92452424D01*
X100699531Y-92665531D01*
X100336901Y-92849016D01*
X99964585Y-93005194D01*
X99576978Y-93136381D01*
X99168478Y-93244894D01*
X99106739Y-93258982D01*
X99060344Y-93269358D01*
X99055939Y-94035106D01*
X99051533Y-94800853D01*
X98966866Y-94813242D01*
X98775545Y-94836867D01*
X98560054Y-94855925D01*
X98329839Y-94869982D01*
X98094343Y-94878608D01*
X97863011Y-94881370D01*
X97645287Y-94877836D01*
X97595266Y-94875968D01*
X97474159Y-94869875D01*
X97349787Y-94861842D01*
X97228898Y-94852461D01*
X97118238Y-94842326D01*
X97024554Y-94832029D01*
X96954593Y-94822163D01*
X96930633Y-94817580D01*
X96892533Y-94809088D01*
X96892533Y-93288043D01*
X96761299Y-93259967D01*
X96408483Y-93172740D01*
X96057671Y-93063257D01*
X95715107Y-92934052D01*
X95387036Y-92787664D01*
X95079705Y-92626630D01*
X94835519Y-92477554D01*
X94787972Y-92447862D01*
X94751184Y-92427748D01*
X94735964Y-92422133D01*
X94721207Y-92433762D01*
X94685099Y-92467039D01*
X94630122Y-92519543D01*
X94558753Y-92588858D01*
X94473472Y-92672564D01*
X94376759Y-92768244D01*
X94271092Y-92873477D01*
X94188651Y-92956021D01*
X94050798Y-93093622D01*
X93931133Y-93211544D01*
X93830522Y-93308968D01*
X93749833Y-93385077D01*
X93689933Y-93439050D01*
X93651690Y-93470069D01*
X93636272Y-93477570D01*
X93575093Y-93436067D01*
X93494314Y-93374677D01*
X93398439Y-93297304D01*
X93291970Y-93207855D01*
X93179410Y-93110233D01*
X93065261Y-93008345D01*
X92954026Y-92906094D01*
X92850208Y-92807386D01*
X92758400Y-92716219D01*
X92673358Y-92627698D01*
X92584774Y-92532518D01*
X92495847Y-92434405D01*
X92409775Y-92337089D01*
X92329757Y-92244297D01*
X92258991Y-92159760D01*
X92200675Y-92087203D01*
X92158008Y-92030358D01*
X92134188Y-91992950D01*
X92130723Y-91984529D01*
X92141306Y-91969122D01*
X92173560Y-91932338D01*
X92225113Y-91876655D01*
X92293596Y-91804553D01*
X92376638Y-91718508D01*
X92471868Y-91620998D01*
X92576917Y-91514502D01*
X92666525Y-91424407D01*
X93207251Y-90882693D01*
X94740859Y-90876646D01*
X95003726Y-90875594D01*
X95234990Y-90874603D01*
X95436916Y-90873615D01*
X95611767Y-90872574D01*
X95761808Y-90871421D01*
X95889300Y-90870098D01*
X95996510Y-90868549D01*
X96085700Y-90866715D01*
X96159135Y-90864539D01*
X96219078Y-90861964D01*
X96267793Y-90858932D01*
X96307545Y-90855385D01*
X96340596Y-90851265D01*
X96369211Y-90846516D01*
X96395654Y-90841080D01*
X96422188Y-90834899D01*
X96426866Y-90833771D01*
X96576834Y-90788532D01*
X96712686Y-90729878D01*
X96830316Y-90660549D01*
X96925624Y-90583289D01*
X96994505Y-90500840D01*
X97028193Y-90431880D01*
X97047559Y-90373200D01*
X99618800Y-90373200D01*
X99618800Y-84988400D01*
X97069615Y-84988400D01*
X97049946Y-84884905D01*
X97009363Y-84758145D01*
X96939197Y-84647238D01*
X96840183Y-84552940D01*
X96713055Y-84476006D01*
X96613133Y-84434768D01*
X96477666Y-84387266D01*
X94834480Y-84382479D01*
X93191293Y-84377691D01*
X92110897Y-83296899D01*
X92193907Y-83190149D01*
X92298727Y-83060116D01*
X92418855Y-82919142D01*
X92548816Y-82773090D01*
X92683139Y-82627824D01*
X92816349Y-82489209D01*
X92942973Y-82363109D01*
X93057539Y-82255387D01*
X93108174Y-82210608D01*
X93242507Y-82096240D01*
X93362039Y-81997518D01*
X93476345Y-81906578D01*
X93512436Y-81878568D01*
X93649800Y-81772547D01*
X94191721Y-82313633D01*
X94733643Y-82854718D01*
X94860588Y-82773660D01*
X95212914Y-82567751D01*
X95586204Y-82385872D01*
X95975728Y-82229993D01*
X96376756Y-82102081D01*
X96630066Y-82037459D01*
X96884066Y-81978850D01*
X96888471Y-81216455D01*
X96892875Y-80454060D01*
X96964671Y-80443647D01*
X97201854Y-80415859D01*
X97463010Y-80396980D01*
X97739437Y-80387014D01*
X98022434Y-80385965D01*
X98303300Y-80393837D01*
G36*
X94987919Y-84903713D02*
X95213436Y-84903848D01*
X95411094Y-84904222D01*
X95582895Y-84904942D01*
X95730843Y-84906114D01*
X95856939Y-84907844D01*
X95963186Y-84910241D01*
X96051587Y-84913410D01*
X96124145Y-84917458D01*
X96182861Y-84922491D01*
X96229738Y-84928617D01*
X96266779Y-84935942D01*
X96295987Y-84944572D01*
X96319363Y-84954615D01*
X96338911Y-84966177D01*
X96356632Y-84979364D01*
X96374531Y-84994284D01*
X96390068Y-85007329D01*
X96447865Y-85064529D01*
X96486068Y-85128568D01*
X96508849Y-85208699D01*
X96518970Y-85293199D01*
X96528466Y-85420199D01*
X97802700Y-85424540D01*
X99076933Y-85428880D01*
X99076933Y-89848266D01*
X96519999Y-89848266D01*
X96519999Y-89950410D01*
X96507996Y-90064378D01*
X96470471Y-90159775D01*
X96413437Y-90234307D01*
X96396978Y-90252226D01*
X96382974Y-90268160D01*
X96369453Y-90282229D01*
X96354446Y-90294553D01*
X96335981Y-90305254D01*
X96312088Y-90314451D01*
X96280796Y-90322266D01*
X96240135Y-90328817D01*
X96188134Y-90334227D01*
X96122822Y-90338615D01*
X96042228Y-90342103D01*
X95944383Y-90344809D01*
X95827314Y-90346856D01*
X95689053Y-90348363D01*
X95527627Y-90349451D01*
X95341067Y-90350241D01*
X95127401Y-90350852D01*
X94884659Y-90351406D01*
X94610871Y-90352023D01*
X94482926Y-90352338D01*
X92708318Y-90356876D01*
X92631460Y-90191471D01*
X92489612Y-89864506D01*
X92368386Y-89539605D01*
X92269856Y-89222847D01*
X92196095Y-88920306D01*
X92193665Y-88908466D01*
X92155723Y-88722200D01*
X91452894Y-88717782D01*
X90750066Y-88713365D01*
X90738782Y-88607715D01*
X90730724Y-88534553D01*
X90722187Y-88460474D01*
X90717501Y-88421633D01*
X90707503Y-88341200D01*
X93455066Y-88341200D01*
X93455066Y-88673063D01*
X93398860Y-88693387D01*
X93302473Y-88745457D01*
X93223399Y-88822659D01*
X93165611Y-88918995D01*
X93133085Y-89028468D01*
X93127365Y-89103101D01*
X93142886Y-89219901D01*
X93184132Y-89320900D01*
X93246542Y-89404700D01*
X93325553Y-89469908D01*
X93416602Y-89515127D01*
X93515128Y-89538961D01*
X93616567Y-89540016D01*
X93716358Y-89516895D01*
X93809939Y-89468203D01*
X93892747Y-89392545D01*
X93926471Y-89347541D01*
X93979643Y-89239367D01*
X94002231Y-89126207D01*
X93995177Y-89013589D01*
X93959424Y-88907044D01*
X93895915Y-88812101D01*
X93824125Y-88747030D01*
X93775076Y-88715058D01*
X93730572Y-88691858D01*
X93714327Y-88686015D01*
X93699860Y-88681475D01*
X93689487Y-88672924D01*
X93682527Y-88655360D01*
X93678299Y-88623781D01*
X93676123Y-88573186D01*
X93675317Y-88498573D01*
X93675200Y-88398630D01*
X93675200Y-88121066D01*
X92186878Y-88121066D01*
X91926723Y-88121023D01*
X91698377Y-88120867D01*
X91499780Y-88120563D01*
X91328874Y-88120074D01*
X91183600Y-88119363D01*
X91061901Y-88118393D01*
X90961717Y-88117127D01*
X90880990Y-88115528D01*
X90817662Y-88113561D01*
X90769673Y-88111187D01*
X90734966Y-88108370D01*
X90711482Y-88105074D01*
X90697162Y-88101261D01*
X90689948Y-88096895D01*
X90688278Y-88094281D01*
X90683767Y-88066240D01*
X90680263Y-88013469D01*
X90678271Y-87945101D01*
X90677999Y-87908015D01*
X90677999Y-87748533D01*
X94958024Y-87748533D01*
X94980768Y-87803442D01*
X95022233Y-87873880D01*
X95084237Y-87944608D01*
X95155670Y-88003866D01*
X95189578Y-88024533D01*
X95241307Y-88046163D01*
X95300858Y-88057546D01*
X95380717Y-88061008D01*
X95385466Y-88061015D01*
X95493763Y-88052558D01*
X95581724Y-88024394D01*
X95659118Y-87972331D01*
X95710194Y-87921693D01*
X95778136Y-87823008D01*
X95816154Y-87714355D01*
X95824350Y-87601430D01*
X95802828Y-87489927D01*
X95751691Y-87385542D01*
X95699334Y-87320789D01*
X95608792Y-87250890D01*
X95501802Y-87206821D01*
X95385929Y-87190527D01*
X95268739Y-87203957D01*
X95257285Y-87206997D01*
X95183161Y-87240545D01*
X95107003Y-87295964D01*
X95039629Y-87363790D01*
X94991855Y-87434560D01*
X94988096Y-87442483D01*
X94956989Y-87511466D01*
X90677999Y-87511466D01*
X90677999Y-87369650D01*
X90679264Y-87296256D01*
X90682616Y-87229548D01*
X90687389Y-87181765D01*
X90688567Y-87174994D01*
X90699135Y-87122155D01*
X92470801Y-87117844D01*
X94242466Y-87113533D01*
X94251826Y-86594965D01*
X94310016Y-86570652D01*
X94407432Y-86512722D01*
X94484395Y-86432294D01*
X94538686Y-86335408D01*
X94568089Y-86228104D01*
X94570385Y-86116421D01*
X94543357Y-86006400D01*
X94529016Y-85974255D01*
X94463446Y-85876502D01*
X94379960Y-85803504D01*
X94283752Y-85755261D01*
X94262279Y-85750399D01*
X96519999Y-85750399D01*
X96519999Y-87627177D01*
X96520099Y-87876479D01*
X96520390Y-88116277D01*
X96520859Y-88344402D01*
X96521493Y-88558683D01*
X96522279Y-88756949D01*
X96523204Y-88937030D01*
X96524255Y-89096754D01*
X96525419Y-89233952D01*
X96526684Y-89346451D01*
X96528035Y-89432083D01*
X96529461Y-89488675D01*
X96530948Y-89514057D01*
X96531288Y-89515244D01*
X96549733Y-89517186D01*
X96599202Y-89519023D01*
X96676851Y-89520725D01*
X96779838Y-89522264D01*
X96905319Y-89523612D01*
X97050452Y-89524738D01*
X97212393Y-89525616D01*
X97388299Y-89526215D01*
X97575328Y-89526508D01*
X97648888Y-89526533D01*
X98755200Y-89526533D01*
X98755200Y-85750399D01*
X96519999Y-85750399D01*
X94262279Y-85750399D01*
X94180018Y-85731774D01*
X94073954Y-85733043D01*
X93970752Y-85759067D01*
X93875610Y-85809847D01*
X93793721Y-85885382D01*
X93735783Y-85974255D01*
X93699375Y-86082686D01*
X93693018Y-86194568D01*
X93714497Y-86303874D01*
X93761594Y-86404579D01*
X93832092Y-86490655D01*
X93923775Y-86556077D01*
X93955230Y-86570838D01*
X94013866Y-86595338D01*
X94013866Y-86901866D01*
X92362866Y-86901866D01*
X92057971Y-86901723D01*
X91786219Y-86901289D01*
X91546890Y-86900555D01*
X91339261Y-86899514D01*
X91162611Y-86898158D01*
X91016218Y-86896479D01*
X90899360Y-86894470D01*
X90811316Y-86892122D01*
X90751364Y-86889428D01*
X90718783Y-86886380D01*
X90711866Y-86883944D01*
X90713828Y-86860188D01*
X90719094Y-86811258D01*
X90726733Y-86745583D01*
X90731491Y-86706327D01*
X90751117Y-86546633D01*
X92156359Y-86537799D01*
X92187847Y-86385399D01*
X92286788Y-85985306D01*
X92418225Y-85586195D01*
X92582717Y-85186416D01*
X92629263Y-85085766D01*
X92715297Y-84903733D01*
X94445298Y-84903733D01*
X94732541Y-84903710D01*
X94987919Y-84903713D01*
X94987919Y-84903713D01*
G37*
X94987919Y-84903713D02*
X95213436Y-84903848D01*
X95411094Y-84904222D01*
X95582895Y-84904942D01*
X95730843Y-84906114D01*
X95856939Y-84907844D01*
X95963186Y-84910241D01*
X96051587Y-84913410D01*
X96124145Y-84917458D01*
X96182861Y-84922491D01*
X96229738Y-84928617D01*
X96266779Y-84935942D01*
X96295987Y-84944572D01*
X96319363Y-84954615D01*
X96338911Y-84966177D01*
X96356632Y-84979364D01*
X96374531Y-84994284D01*
X96390068Y-85007329D01*
X96447865Y-85064529D01*
X96486068Y-85128568D01*
X96508849Y-85208699D01*
X96518970Y-85293199D01*
X96528466Y-85420199D01*
X97802700Y-85424540D01*
X99076933Y-85428880D01*
X99076933Y-89848266D01*
X96519999Y-89848266D01*
X96519999Y-89950410D01*
X96507996Y-90064378D01*
X96470471Y-90159775D01*
X96413437Y-90234307D01*
X96396978Y-90252226D01*
X96382974Y-90268160D01*
X96369453Y-90282229D01*
X96354446Y-90294553D01*
X96335981Y-90305254D01*
X96312088Y-90314451D01*
X96280796Y-90322266D01*
X96240135Y-90328817D01*
X96188134Y-90334227D01*
X96122822Y-90338615D01*
X96042228Y-90342103D01*
X95944383Y-90344809D01*
X95827314Y-90346856D01*
X95689053Y-90348363D01*
X95527627Y-90349451D01*
X95341067Y-90350241D01*
X95127401Y-90350852D01*
X94884659Y-90351406D01*
X94610871Y-90352023D01*
X94482926Y-90352338D01*
X92708318Y-90356876D01*
X92631460Y-90191471D01*
X92489612Y-89864506D01*
X92368386Y-89539605D01*
X92269856Y-89222847D01*
X92196095Y-88920306D01*
X92193665Y-88908466D01*
X92155723Y-88722200D01*
X91452894Y-88717782D01*
X90750066Y-88713365D01*
X90738782Y-88607715D01*
X90730724Y-88534553D01*
X90722187Y-88460474D01*
X90717501Y-88421633D01*
X90707503Y-88341200D01*
X93455066Y-88341200D01*
X93455066Y-88673063D01*
X93398860Y-88693387D01*
X93302473Y-88745457D01*
X93223399Y-88822659D01*
X93165611Y-88918995D01*
X93133085Y-89028468D01*
X93127365Y-89103101D01*
X93142886Y-89219901D01*
X93184132Y-89320900D01*
X93246542Y-89404700D01*
X93325553Y-89469908D01*
X93416602Y-89515127D01*
X93515128Y-89538961D01*
X93616567Y-89540016D01*
X93716358Y-89516895D01*
X93809939Y-89468203D01*
X93892747Y-89392545D01*
X93926471Y-89347541D01*
X93979643Y-89239367D01*
X94002231Y-89126207D01*
X93995177Y-89013589D01*
X93959424Y-88907044D01*
X93895915Y-88812101D01*
X93824125Y-88747030D01*
X93775076Y-88715058D01*
X93730572Y-88691858D01*
X93714327Y-88686015D01*
X93699860Y-88681475D01*
X93689487Y-88672924D01*
X93682527Y-88655360D01*
X93678299Y-88623781D01*
X93676123Y-88573186D01*
X93675317Y-88498573D01*
X93675200Y-88398630D01*
X93675200Y-88121066D01*
X92186878Y-88121066D01*
X91926723Y-88121023D01*
X91698377Y-88120867D01*
X91499780Y-88120563D01*
X91328874Y-88120074D01*
X91183600Y-88119363D01*
X91061901Y-88118393D01*
X90961717Y-88117127D01*
X90880990Y-88115528D01*
X90817662Y-88113561D01*
X90769673Y-88111187D01*
X90734966Y-88108370D01*
X90711482Y-88105074D01*
X90697162Y-88101261D01*
X90689948Y-88096895D01*
X90688278Y-88094281D01*
X90683767Y-88066240D01*
X90680263Y-88013469D01*
X90678271Y-87945101D01*
X90677999Y-87908015D01*
X90677999Y-87748533D01*
X94958024Y-87748533D01*
X94980768Y-87803442D01*
X95022233Y-87873880D01*
X95084237Y-87944608D01*
X95155670Y-88003866D01*
X95189578Y-88024533D01*
X95241307Y-88046163D01*
X95300858Y-88057546D01*
X95380717Y-88061008D01*
X95385466Y-88061015D01*
X95493763Y-88052558D01*
X95581724Y-88024394D01*
X95659118Y-87972331D01*
X95710194Y-87921693D01*
X95778136Y-87823008D01*
X95816154Y-87714355D01*
X95824350Y-87601430D01*
X95802828Y-87489927D01*
X95751691Y-87385542D01*
X95699334Y-87320789D01*
X95608792Y-87250890D01*
X95501802Y-87206821D01*
X95385929Y-87190527D01*
X95268739Y-87203957D01*
X95257285Y-87206997D01*
X95183161Y-87240545D01*
X95107003Y-87295964D01*
X95039629Y-87363790D01*
X94991855Y-87434560D01*
X94988096Y-87442483D01*
X94956989Y-87511466D01*
X90677999Y-87511466D01*
X90677999Y-87369650D01*
X90679264Y-87296256D01*
X90682616Y-87229548D01*
X90687389Y-87181765D01*
X90688567Y-87174994D01*
X90699135Y-87122155D01*
X92470801Y-87117844D01*
X94242466Y-87113533D01*
X94251826Y-86594965D01*
X94310016Y-86570652D01*
X94407432Y-86512722D01*
X94484395Y-86432294D01*
X94538686Y-86335408D01*
X94568089Y-86228104D01*
X94570385Y-86116421D01*
X94543357Y-86006400D01*
X94529016Y-85974255D01*
X94463446Y-85876502D01*
X94379960Y-85803504D01*
X94283752Y-85755261D01*
X94262279Y-85750399D01*
X96519999Y-85750399D01*
X96519999Y-87627177D01*
X96520099Y-87876479D01*
X96520390Y-88116277D01*
X96520859Y-88344402D01*
X96521493Y-88558683D01*
X96522279Y-88756949D01*
X96523204Y-88937030D01*
X96524255Y-89096754D01*
X96525419Y-89233952D01*
X96526684Y-89346451D01*
X96528035Y-89432083D01*
X96529461Y-89488675D01*
X96530948Y-89514057D01*
X96531288Y-89515244D01*
X96549733Y-89517186D01*
X96599202Y-89519023D01*
X96676851Y-89520725D01*
X96779838Y-89522264D01*
X96905319Y-89523612D01*
X97050452Y-89524738D01*
X97212393Y-89525616D01*
X97388299Y-89526215D01*
X97575328Y-89526508D01*
X97648888Y-89526533D01*
X98755200Y-89526533D01*
X98755200Y-85750399D01*
X96519999Y-85750399D01*
X94262279Y-85750399D01*
X94180018Y-85731774D01*
X94073954Y-85733043D01*
X93970752Y-85759067D01*
X93875610Y-85809847D01*
X93793721Y-85885382D01*
X93735783Y-85974255D01*
X93699375Y-86082686D01*
X93693018Y-86194568D01*
X93714497Y-86303874D01*
X93761594Y-86404579D01*
X93832092Y-86490655D01*
X93923775Y-86556077D01*
X93955230Y-86570838D01*
X94013866Y-86595338D01*
X94013866Y-86901866D01*
X92362866Y-86901866D01*
X92057971Y-86901723D01*
X91786219Y-86901289D01*
X91546890Y-86900555D01*
X91339261Y-86899514D01*
X91162611Y-86898158D01*
X91016218Y-86896479D01*
X90899360Y-86894470D01*
X90811316Y-86892122D01*
X90751364Y-86889428D01*
X90718783Y-86886380D01*
X90711866Y-86883944D01*
X90713828Y-86860188D01*
X90719094Y-86811258D01*
X90726733Y-86745583D01*
X90731491Y-86706327D01*
X90751117Y-86546633D01*
X92156359Y-86537799D01*
X92187847Y-86385399D01*
X92286788Y-85985306D01*
X92418225Y-85586195D01*
X92582717Y-85186416D01*
X92629263Y-85085766D01*
X92715297Y-84903733D01*
X94445298Y-84903733D01*
X94732541Y-84903710D01*
X94987919Y-84903713D01*
G36*
X97959333Y-88679866D02*
X97468266Y-88679866D01*
X97468266Y-88138000D01*
X97959333Y-88138000D01*
X97959333Y-88679866D01*
X97959333Y-88679866D01*
G37*
X97959333Y-88679866D02*
X97468266Y-88679866D01*
X97468266Y-88138000D01*
X97959333Y-88138000D01*
X97959333Y-88679866D01*
G36*
X97959333Y-87122000D02*
X97468266Y-87122000D01*
X97468266Y-86580133D01*
X97959333Y-86580133D01*
X97959333Y-87122000D01*
X97959333Y-87122000D01*
G37*
X97959333Y-87122000D02*
X97468266Y-87122000D01*
X97468266Y-86580133D01*
X97959333Y-86580133D01*
X97959333Y-87122000D01*
D13*
G04 #@! TO.C,J10*
X145240476Y-101262380D02*
X145240476Y-101976666D01*
X145192857Y-102119523D01*
X145097619Y-102214761D01*
X144954761Y-102262380D01*
X144859523Y-102262380D01*
X146240476Y-102262380D02*
X145669047Y-102262380D01*
X145954761Y-102262380D02*
X145954761Y-101262380D01*
X145859523Y-101405238D01*
X145764285Y-101500476D01*
X145669047Y-101548095D01*
X146859523Y-101262380D02*
X146954761Y-101262380D01*
X147050000Y-101310000D01*
X147097619Y-101357619D01*
X147145238Y-101452857D01*
X147192857Y-101643333D01*
X147192857Y-101881428D01*
X147145238Y-102071904D01*
X147097619Y-102167142D01*
X147050000Y-102214761D01*
X146954761Y-102262380D01*
X146859523Y-102262380D01*
X146764285Y-102214761D01*
X146716666Y-102167142D01*
X146669047Y-102071904D01*
X146621428Y-101881428D01*
X146621428Y-101643333D01*
X146669047Y-101452857D01*
X146716666Y-101357619D01*
X146764285Y-101310000D01*
X146859523Y-101262380D01*
G04 #@! TO.C,J11*
X145240476Y-97242380D02*
X145240476Y-97956666D01*
X145192857Y-98099523D01*
X145097619Y-98194761D01*
X144954761Y-98242380D01*
X144859523Y-98242380D01*
X146240476Y-98242380D02*
X145669047Y-98242380D01*
X145954761Y-98242380D02*
X145954761Y-97242380D01*
X145859523Y-97385238D01*
X145764285Y-97480476D01*
X145669047Y-97528095D01*
X147192857Y-98242380D02*
X146621428Y-98242380D01*
X146907142Y-98242380D02*
X146907142Y-97242380D01*
X146811904Y-97385238D01*
X146716666Y-97480476D01*
X146621428Y-97528095D01*
G04 #@! TO.C,R1*
X68413333Y-120452380D02*
X68080000Y-119976190D01*
X67841904Y-120452380D02*
X67841904Y-119452380D01*
X68222857Y-119452380D01*
X68318095Y-119500000D01*
X68365714Y-119547619D01*
X68413333Y-119642857D01*
X68413333Y-119785714D01*
X68365714Y-119880952D01*
X68318095Y-119928571D01*
X68222857Y-119976190D01*
X67841904Y-119976190D01*
X69365714Y-120452380D02*
X68794285Y-120452380D01*
X69080000Y-120452380D02*
X69080000Y-119452380D01*
X68984761Y-119595238D01*
X68889523Y-119690476D01*
X68794285Y-119738095D01*
G04 #@! TO.C,U1*
D17*
X119898167Y-103597801D02*
X120708006Y-103597801D01*
X120803282Y-103550164D01*
X120850919Y-103502526D01*
X120898557Y-103407251D01*
X120898557Y-103216700D01*
X120850919Y-103121425D01*
X120803282Y-103073788D01*
X120708006Y-103026150D01*
X119898167Y-103026150D01*
X120898557Y-102025760D02*
X120898557Y-102597411D01*
X120898557Y-102311586D02*
X119898167Y-102311586D01*
X120041080Y-102406861D01*
X120136355Y-102502136D01*
X120183993Y-102597411D01*
X64158355Y-119155472D02*
X63157305Y-119155472D01*
X64158355Y-118583444D01*
X63157305Y-118583444D01*
X63157305Y-117916077D02*
X63157305Y-117725401D01*
X63204975Y-117630063D01*
X63300313Y-117534725D01*
X63490989Y-117487055D01*
X63824672Y-117487055D01*
X64015348Y-117534725D01*
X64110686Y-117630063D01*
X64158355Y-117725401D01*
X64158355Y-117916077D01*
X64110686Y-118011415D01*
X64015348Y-118106753D01*
X63824672Y-118154422D01*
X63490989Y-118154422D01*
X63300313Y-118106753D01*
X63204975Y-118011415D01*
X63157305Y-117916077D01*
X64158355Y-117058034D02*
X63157305Y-117058034D01*
X63157305Y-116819689D01*
X63204975Y-116676682D01*
X63300313Y-116581344D01*
X63395651Y-116533675D01*
X63586327Y-116486005D01*
X63729334Y-116486005D01*
X63920010Y-116533675D01*
X64015348Y-116581344D01*
X64110686Y-116676682D01*
X64158355Y-116819689D01*
X64158355Y-117058034D01*
X63633996Y-116056984D02*
X63633996Y-115723301D01*
X64158355Y-115580294D02*
X64158355Y-116056984D01*
X63157305Y-116056984D01*
X63157305Y-115580294D01*
X64158355Y-115151272D02*
X63157305Y-115151272D01*
X63872341Y-114817589D01*
X63157305Y-114483905D01*
X64158355Y-114483905D01*
X64063017Y-113435186D02*
X64110686Y-113482855D01*
X64158355Y-113625863D01*
X64158355Y-113721201D01*
X64110686Y-113864208D01*
X64015348Y-113959546D01*
X63920010Y-114007215D01*
X63729334Y-114054884D01*
X63586327Y-114054884D01*
X63395651Y-114007215D01*
X63300313Y-113959546D01*
X63204975Y-113864208D01*
X63157305Y-113721201D01*
X63157305Y-113625863D01*
X63204975Y-113482855D01*
X63252644Y-113435186D01*
X63157305Y-113006165D02*
X63967679Y-113006165D01*
X64063017Y-112958496D01*
X64110686Y-112910827D01*
X64158355Y-112815489D01*
X64158355Y-112624813D01*
X64110686Y-112529475D01*
X64063017Y-112481805D01*
X63967679Y-112434136D01*
X63157305Y-112434136D01*
X63633996Y-111194741D02*
X63633996Y-110861058D01*
X64158355Y-110718051D02*
X64158355Y-111194741D01*
X63157305Y-111194741D01*
X63157305Y-110718051D01*
X64110686Y-110336698D02*
X64158355Y-110193691D01*
X64158355Y-109955346D01*
X64110686Y-109860008D01*
X64063017Y-109812339D01*
X63967679Y-109764670D01*
X63872341Y-109764670D01*
X63777003Y-109812339D01*
X63729334Y-109860008D01*
X63681665Y-109955346D01*
X63633996Y-110146022D01*
X63586327Y-110241360D01*
X63538658Y-110289029D01*
X63443320Y-110336698D01*
X63347982Y-110336698D01*
X63252644Y-110289029D01*
X63204975Y-110241360D01*
X63157305Y-110146022D01*
X63157305Y-109907677D01*
X63204975Y-109764670D01*
X64158355Y-109335648D02*
X63157305Y-109335648D01*
X63157305Y-108954296D01*
X63204975Y-108858958D01*
X63252644Y-108811289D01*
X63347982Y-108763620D01*
X63490989Y-108763620D01*
X63586327Y-108811289D01*
X63633996Y-108858958D01*
X63681665Y-108954296D01*
X63681665Y-109335648D01*
X63157305Y-108429936D02*
X63157305Y-107810239D01*
X63538658Y-108143922D01*
X63538658Y-108000915D01*
X63586327Y-107905577D01*
X63633996Y-107857908D01*
X63729334Y-107810239D01*
X63967679Y-107810239D01*
X64063017Y-107857908D01*
X64110686Y-107905577D01*
X64158355Y-108000915D01*
X64158355Y-108286929D01*
X64110686Y-108382267D01*
X64063017Y-108429936D01*
X63252644Y-107428886D02*
X63204975Y-107381217D01*
X63157305Y-107285879D01*
X63157305Y-107047534D01*
X63204975Y-106952196D01*
X63252644Y-106904527D01*
X63347982Y-106856858D01*
X63443320Y-106856858D01*
X63586327Y-106904527D01*
X64158355Y-107476555D01*
X64158355Y-106856858D01*
G04 #@! TO.C,J1*
D13*
X135556666Y-101262380D02*
X135556666Y-101976666D01*
X135509047Y-102119523D01*
X135413809Y-102214761D01*
X135270952Y-102262380D01*
X135175714Y-102262380D01*
X136556666Y-102262380D02*
X135985238Y-102262380D01*
X136270952Y-102262380D02*
X136270952Y-101262380D01*
X136175714Y-101405238D01*
X136080476Y-101500476D01*
X135985238Y-101548095D01*
G04 #@! TO.C,J2*
X129206666Y-127722380D02*
X129206666Y-128436666D01*
X129159047Y-128579523D01*
X129063809Y-128674761D01*
X128920952Y-128722380D01*
X128825714Y-128722380D01*
X129635238Y-127817619D02*
X129682857Y-127770000D01*
X129778095Y-127722380D01*
X130016190Y-127722380D01*
X130111428Y-127770000D01*
X130159047Y-127817619D01*
X130206666Y-127912857D01*
X130206666Y-128008095D01*
X130159047Y-128150952D01*
X129587619Y-128722380D01*
X130206666Y-128722380D01*
G04 #@! TO.C,J3*
X125396666Y-101262380D02*
X125396666Y-101976666D01*
X125349047Y-102119523D01*
X125253809Y-102214761D01*
X125110952Y-102262380D01*
X125015714Y-102262380D01*
X125777619Y-101262380D02*
X126396666Y-101262380D01*
X126063333Y-101643333D01*
X126206190Y-101643333D01*
X126301428Y-101690952D01*
X126349047Y-101738571D01*
X126396666Y-101833809D01*
X126396666Y-102071904D01*
X126349047Y-102167142D01*
X126301428Y-102214761D01*
X126206190Y-102262380D01*
X125920476Y-102262380D01*
X125825238Y-102214761D01*
X125777619Y-102167142D01*
G04 #@! TO.C,J4*
X135556666Y-94492380D02*
X135556666Y-95206666D01*
X135509047Y-95349523D01*
X135413809Y-95444761D01*
X135270952Y-95492380D01*
X135175714Y-95492380D01*
X136461428Y-94825714D02*
X136461428Y-95492380D01*
X136223333Y-94444761D02*
X135985238Y-95159047D01*
X136604285Y-95159047D01*
G04 #@! TO.C,J5*
X141906666Y-127722380D02*
X141906666Y-128436666D01*
X141859047Y-128579523D01*
X141763809Y-128674761D01*
X141620952Y-128722380D01*
X141525714Y-128722380D01*
X142859047Y-127722380D02*
X142382857Y-127722380D01*
X142335238Y-128198571D01*
X142382857Y-128150952D01*
X142478095Y-128103333D01*
X142716190Y-128103333D01*
X142811428Y-128150952D01*
X142859047Y-128198571D01*
X142906666Y-128293809D01*
X142906666Y-128531904D01*
X142859047Y-128627142D01*
X142811428Y-128674761D01*
X142716190Y-128722380D01*
X142478095Y-128722380D01*
X142382857Y-128674761D01*
X142335238Y-128627142D01*
G04 #@! TO.C,J6*
X122856666Y-127512380D02*
X122856666Y-128226666D01*
X122809047Y-128369523D01*
X122713809Y-128464761D01*
X122570952Y-128512380D01*
X122475714Y-128512380D01*
X123761428Y-127512380D02*
X123570952Y-127512380D01*
X123475714Y-127560000D01*
X123428095Y-127607619D01*
X123332857Y-127750476D01*
X123285238Y-127940952D01*
X123285238Y-128321904D01*
X123332857Y-128417142D01*
X123380476Y-128464761D01*
X123475714Y-128512380D01*
X123666190Y-128512380D01*
X123761428Y-128464761D01*
X123809047Y-128417142D01*
X123856666Y-128321904D01*
X123856666Y-128083809D01*
X123809047Y-127988571D01*
X123761428Y-127940952D01*
X123666190Y-127893333D01*
X123475714Y-127893333D01*
X123380476Y-127940952D01*
X123332857Y-127988571D01*
X123285238Y-128083809D01*
G04 #@! TO.C,J7*
X122856666Y-122432380D02*
X122856666Y-123146666D01*
X122809047Y-123289523D01*
X122713809Y-123384761D01*
X122570952Y-123432380D01*
X122475714Y-123432380D01*
X123237619Y-122432380D02*
X123904285Y-122432380D01*
X123475714Y-123432380D01*
G04 #@! TO.C,J8*
X135556666Y-127722380D02*
X135556666Y-128436666D01*
X135509047Y-128579523D01*
X135413809Y-128674761D01*
X135270952Y-128722380D01*
X135175714Y-128722380D01*
X136175714Y-128150952D02*
X136080476Y-128103333D01*
X136032857Y-128055714D01*
X135985238Y-127960476D01*
X135985238Y-127912857D01*
X136032857Y-127817619D01*
X136080476Y-127770000D01*
X136175714Y-127722380D01*
X136366190Y-127722380D01*
X136461428Y-127770000D01*
X136509047Y-127817619D01*
X136556666Y-127912857D01*
X136556666Y-127960476D01*
X136509047Y-128055714D01*
X136461428Y-128103333D01*
X136366190Y-128150952D01*
X136175714Y-128150952D01*
X136080476Y-128198571D01*
X136032857Y-128246190D01*
X135985238Y-128341428D01*
X135985238Y-128531904D01*
X136032857Y-128627142D01*
X136080476Y-128674761D01*
X136175714Y-128722380D01*
X136366190Y-128722380D01*
X136461428Y-128674761D01*
X136509047Y-128627142D01*
X136556666Y-128531904D01*
X136556666Y-128341428D01*
X136509047Y-128246190D01*
X136461428Y-128198571D01*
X136366190Y-128150952D01*
G04 #@! TO.C,J9*
X130472380Y-98123333D02*
X131186666Y-98123333D01*
X131329523Y-98170952D01*
X131424761Y-98266190D01*
X131472380Y-98409047D01*
X131472380Y-98504285D01*
X131472380Y-97599523D02*
X131472380Y-97409047D01*
X131424761Y-97313809D01*
X131377142Y-97266190D01*
X131234285Y-97170952D01*
X131043809Y-97123333D01*
X130662857Y-97123333D01*
X130567619Y-97170952D01*
X130520000Y-97218571D01*
X130472380Y-97313809D01*
X130472380Y-97504285D01*
X130520000Y-97599523D01*
X130567619Y-97647142D01*
X130662857Y-97694761D01*
X130900952Y-97694761D01*
X130996190Y-97647142D01*
X131043809Y-97599523D01*
X131091428Y-97504285D01*
X131091428Y-97313809D01*
X131043809Y-97218571D01*
X130996190Y-97170952D01*
X130900952Y-97123333D01*
G04 #@! TO.C,*
G04 #@! TD*
M02*
