G04 #@! TF.GenerationSoftware,KiCad,Pcbnew,(5.0.1)-4*
G04 #@! TF.CreationDate,2019-09-12T15:38:01+02:00*
G04 #@! TF.ProjectId,esp32roomlabel,6573703332726F6F6D6C6162656C2E6B,rev?*
G04 #@! TF.SameCoordinates,Original*
G04 #@! TF.FileFunction,Soldermask,Top*
G04 #@! TF.FilePolarity,Negative*
%FSLAX46Y46*%
G04 Gerber Fmt 4.6, Leading zero omitted, Abs format (unit mm)*
G04 Created by KiCad (PCBNEW (5.0.1)-4) date 12.09.2019 15:38:01*
%MOMM*%
%LPD*%
G01*
G04 APERTURE LIST*
%ADD10C,0.100000*%
G04 APERTURE END LIST*
D10*
G36*
X109462391Y-126200934D02*
X109462393Y-126200935D01*
X109462394Y-126200935D01*
X109613626Y-126263577D01*
X109613627Y-126263578D01*
X109749735Y-126354522D01*
X109865478Y-126470265D01*
X109865480Y-126470268D01*
X109956423Y-126606374D01*
X110019065Y-126757606D01*
X110051000Y-126918154D01*
X110051000Y-127081846D01*
X110019065Y-127242394D01*
X109956423Y-127393626D01*
X109956422Y-127393627D01*
X109865478Y-127529735D01*
X109749735Y-127645478D01*
X109749732Y-127645480D01*
X109613626Y-127736423D01*
X109462394Y-127799065D01*
X109462393Y-127799065D01*
X109462391Y-127799066D01*
X109301848Y-127831000D01*
X109138152Y-127831000D01*
X108977609Y-127799066D01*
X108977607Y-127799065D01*
X108977606Y-127799065D01*
X108826374Y-127736423D01*
X108690268Y-127645480D01*
X108690265Y-127645478D01*
X108574522Y-127529735D01*
X108483578Y-127393627D01*
X108483577Y-127393626D01*
X108420935Y-127242394D01*
X108389000Y-127081846D01*
X108389000Y-126918154D01*
X108420935Y-126757606D01*
X108483577Y-126606374D01*
X108574520Y-126470268D01*
X108574522Y-126470265D01*
X108690265Y-126354522D01*
X108826373Y-126263578D01*
X108826374Y-126263577D01*
X108977606Y-126200935D01*
X108977607Y-126200935D01*
X108977609Y-126200934D01*
X109138152Y-126169000D01*
X109301848Y-126169000D01*
X109462391Y-126200934D01*
X109462391Y-126200934D01*
G37*
G36*
X86602391Y-126200934D02*
X86602393Y-126200935D01*
X86602394Y-126200935D01*
X86753626Y-126263577D01*
X86753627Y-126263578D01*
X86889735Y-126354522D01*
X87005478Y-126470265D01*
X87005480Y-126470268D01*
X87096423Y-126606374D01*
X87159065Y-126757606D01*
X87191000Y-126918154D01*
X87191000Y-127081846D01*
X87159065Y-127242394D01*
X87096423Y-127393626D01*
X87096422Y-127393627D01*
X87005478Y-127529735D01*
X86889735Y-127645478D01*
X86889732Y-127645480D01*
X86753626Y-127736423D01*
X86602394Y-127799065D01*
X86602393Y-127799065D01*
X86602391Y-127799066D01*
X86441848Y-127831000D01*
X86278152Y-127831000D01*
X86117609Y-127799066D01*
X86117607Y-127799065D01*
X86117606Y-127799065D01*
X85966374Y-127736423D01*
X85830268Y-127645480D01*
X85830265Y-127645478D01*
X85714522Y-127529735D01*
X85623578Y-127393627D01*
X85623577Y-127393626D01*
X85560935Y-127242394D01*
X85529000Y-127081846D01*
X85529000Y-126918154D01*
X85560935Y-126757606D01*
X85623577Y-126606374D01*
X85714520Y-126470268D01*
X85714522Y-126470265D01*
X85830265Y-126354522D01*
X85966373Y-126263578D01*
X85966374Y-126263577D01*
X86117606Y-126200935D01*
X86117607Y-126200935D01*
X86117609Y-126200934D01*
X86278152Y-126169000D01*
X86441848Y-126169000D01*
X86602391Y-126200934D01*
X86602391Y-126200934D01*
G37*
G36*
X66282391Y-126200934D02*
X66282393Y-126200935D01*
X66282394Y-126200935D01*
X66433626Y-126263577D01*
X66433627Y-126263578D01*
X66569735Y-126354522D01*
X66685478Y-126470265D01*
X66685480Y-126470268D01*
X66776423Y-126606374D01*
X66839065Y-126757606D01*
X66871000Y-126918154D01*
X66871000Y-127081846D01*
X66839065Y-127242394D01*
X66776423Y-127393626D01*
X66776422Y-127393627D01*
X66685478Y-127529735D01*
X66569735Y-127645478D01*
X66569732Y-127645480D01*
X66433626Y-127736423D01*
X66282394Y-127799065D01*
X66282393Y-127799065D01*
X66282391Y-127799066D01*
X66121848Y-127831000D01*
X65958152Y-127831000D01*
X65797609Y-127799066D01*
X65797607Y-127799065D01*
X65797606Y-127799065D01*
X65646374Y-127736423D01*
X65510268Y-127645480D01*
X65510265Y-127645478D01*
X65394522Y-127529735D01*
X65303578Y-127393627D01*
X65303577Y-127393626D01*
X65240935Y-127242394D01*
X65209000Y-127081846D01*
X65209000Y-126918154D01*
X65240935Y-126757606D01*
X65303577Y-126606374D01*
X65394520Y-126470268D01*
X65394522Y-126470265D01*
X65510265Y-126354522D01*
X65646373Y-126263578D01*
X65646374Y-126263577D01*
X65797606Y-126200935D01*
X65797607Y-126200935D01*
X65797609Y-126200934D01*
X65958152Y-126169000D01*
X66121848Y-126169000D01*
X66282391Y-126200934D01*
X66282391Y-126200934D01*
G37*
G36*
X68822391Y-126200934D02*
X68822393Y-126200935D01*
X68822394Y-126200935D01*
X68973626Y-126263577D01*
X68973627Y-126263578D01*
X69109735Y-126354522D01*
X69225478Y-126470265D01*
X69225480Y-126470268D01*
X69316423Y-126606374D01*
X69379065Y-126757606D01*
X69411000Y-126918154D01*
X69411000Y-127081846D01*
X69379065Y-127242394D01*
X69316423Y-127393626D01*
X69316422Y-127393627D01*
X69225478Y-127529735D01*
X69109735Y-127645478D01*
X69109732Y-127645480D01*
X68973626Y-127736423D01*
X68822394Y-127799065D01*
X68822393Y-127799065D01*
X68822391Y-127799066D01*
X68661848Y-127831000D01*
X68498152Y-127831000D01*
X68337609Y-127799066D01*
X68337607Y-127799065D01*
X68337606Y-127799065D01*
X68186374Y-127736423D01*
X68050268Y-127645480D01*
X68050265Y-127645478D01*
X67934522Y-127529735D01*
X67843578Y-127393627D01*
X67843577Y-127393626D01*
X67780935Y-127242394D01*
X67749000Y-127081846D01*
X67749000Y-126918154D01*
X67780935Y-126757606D01*
X67843577Y-126606374D01*
X67934520Y-126470268D01*
X67934522Y-126470265D01*
X68050265Y-126354522D01*
X68186373Y-126263578D01*
X68186374Y-126263577D01*
X68337606Y-126200935D01*
X68337607Y-126200935D01*
X68337609Y-126200934D01*
X68498152Y-126169000D01*
X68661848Y-126169000D01*
X68822391Y-126200934D01*
X68822391Y-126200934D01*
G37*
G36*
X71362391Y-126200934D02*
X71362393Y-126200935D01*
X71362394Y-126200935D01*
X71513626Y-126263577D01*
X71513627Y-126263578D01*
X71649735Y-126354522D01*
X71765478Y-126470265D01*
X71765480Y-126470268D01*
X71856423Y-126606374D01*
X71919065Y-126757606D01*
X71951000Y-126918154D01*
X71951000Y-127081846D01*
X71919065Y-127242394D01*
X71856423Y-127393626D01*
X71856422Y-127393627D01*
X71765478Y-127529735D01*
X71649735Y-127645478D01*
X71649732Y-127645480D01*
X71513626Y-127736423D01*
X71362394Y-127799065D01*
X71362393Y-127799065D01*
X71362391Y-127799066D01*
X71201848Y-127831000D01*
X71038152Y-127831000D01*
X70877609Y-127799066D01*
X70877607Y-127799065D01*
X70877606Y-127799065D01*
X70726374Y-127736423D01*
X70590268Y-127645480D01*
X70590265Y-127645478D01*
X70474522Y-127529735D01*
X70383578Y-127393627D01*
X70383577Y-127393626D01*
X70320935Y-127242394D01*
X70289000Y-127081846D01*
X70289000Y-126918154D01*
X70320935Y-126757606D01*
X70383577Y-126606374D01*
X70474520Y-126470268D01*
X70474522Y-126470265D01*
X70590265Y-126354522D01*
X70726373Y-126263578D01*
X70726374Y-126263577D01*
X70877606Y-126200935D01*
X70877607Y-126200935D01*
X70877609Y-126200934D01*
X71038152Y-126169000D01*
X71201848Y-126169000D01*
X71362391Y-126200934D01*
X71362391Y-126200934D01*
G37*
G36*
X73902391Y-126200934D02*
X73902393Y-126200935D01*
X73902394Y-126200935D01*
X74053626Y-126263577D01*
X74053627Y-126263578D01*
X74189735Y-126354522D01*
X74305478Y-126470265D01*
X74305480Y-126470268D01*
X74396423Y-126606374D01*
X74459065Y-126757606D01*
X74491000Y-126918154D01*
X74491000Y-127081846D01*
X74459065Y-127242394D01*
X74396423Y-127393626D01*
X74396422Y-127393627D01*
X74305478Y-127529735D01*
X74189735Y-127645478D01*
X74189732Y-127645480D01*
X74053626Y-127736423D01*
X73902394Y-127799065D01*
X73902393Y-127799065D01*
X73902391Y-127799066D01*
X73741848Y-127831000D01*
X73578152Y-127831000D01*
X73417609Y-127799066D01*
X73417607Y-127799065D01*
X73417606Y-127799065D01*
X73266374Y-127736423D01*
X73130268Y-127645480D01*
X73130265Y-127645478D01*
X73014522Y-127529735D01*
X72923578Y-127393627D01*
X72923577Y-127393626D01*
X72860935Y-127242394D01*
X72829000Y-127081846D01*
X72829000Y-126918154D01*
X72860935Y-126757606D01*
X72923577Y-126606374D01*
X73014520Y-126470268D01*
X73014522Y-126470265D01*
X73130265Y-126354522D01*
X73266373Y-126263578D01*
X73266374Y-126263577D01*
X73417606Y-126200935D01*
X73417607Y-126200935D01*
X73417609Y-126200934D01*
X73578152Y-126169000D01*
X73741848Y-126169000D01*
X73902391Y-126200934D01*
X73902391Y-126200934D01*
G37*
G36*
X76442391Y-126200934D02*
X76442393Y-126200935D01*
X76442394Y-126200935D01*
X76593626Y-126263577D01*
X76593627Y-126263578D01*
X76729735Y-126354522D01*
X76845478Y-126470265D01*
X76845480Y-126470268D01*
X76936423Y-126606374D01*
X76999065Y-126757606D01*
X77031000Y-126918154D01*
X77031000Y-127081846D01*
X76999065Y-127242394D01*
X76936423Y-127393626D01*
X76936422Y-127393627D01*
X76845478Y-127529735D01*
X76729735Y-127645478D01*
X76729732Y-127645480D01*
X76593626Y-127736423D01*
X76442394Y-127799065D01*
X76442393Y-127799065D01*
X76442391Y-127799066D01*
X76281848Y-127831000D01*
X76118152Y-127831000D01*
X75957609Y-127799066D01*
X75957607Y-127799065D01*
X75957606Y-127799065D01*
X75806374Y-127736423D01*
X75670268Y-127645480D01*
X75670265Y-127645478D01*
X75554522Y-127529735D01*
X75463578Y-127393627D01*
X75463577Y-127393626D01*
X75400935Y-127242394D01*
X75369000Y-127081846D01*
X75369000Y-126918154D01*
X75400935Y-126757606D01*
X75463577Y-126606374D01*
X75554520Y-126470268D01*
X75554522Y-126470265D01*
X75670265Y-126354522D01*
X75806373Y-126263578D01*
X75806374Y-126263577D01*
X75957606Y-126200935D01*
X75957607Y-126200935D01*
X75957609Y-126200934D01*
X76118152Y-126169000D01*
X76281848Y-126169000D01*
X76442391Y-126200934D01*
X76442391Y-126200934D01*
G37*
G36*
X78982391Y-126200934D02*
X78982393Y-126200935D01*
X78982394Y-126200935D01*
X79133626Y-126263577D01*
X79133627Y-126263578D01*
X79269735Y-126354522D01*
X79385478Y-126470265D01*
X79385480Y-126470268D01*
X79476423Y-126606374D01*
X79539065Y-126757606D01*
X79571000Y-126918154D01*
X79571000Y-127081846D01*
X79539065Y-127242394D01*
X79476423Y-127393626D01*
X79476422Y-127393627D01*
X79385478Y-127529735D01*
X79269735Y-127645478D01*
X79269732Y-127645480D01*
X79133626Y-127736423D01*
X78982394Y-127799065D01*
X78982393Y-127799065D01*
X78982391Y-127799066D01*
X78821848Y-127831000D01*
X78658152Y-127831000D01*
X78497609Y-127799066D01*
X78497607Y-127799065D01*
X78497606Y-127799065D01*
X78346374Y-127736423D01*
X78210268Y-127645480D01*
X78210265Y-127645478D01*
X78094522Y-127529735D01*
X78003578Y-127393627D01*
X78003577Y-127393626D01*
X77940935Y-127242394D01*
X77909000Y-127081846D01*
X77909000Y-126918154D01*
X77940935Y-126757606D01*
X78003577Y-126606374D01*
X78094520Y-126470268D01*
X78094522Y-126470265D01*
X78210265Y-126354522D01*
X78346373Y-126263578D01*
X78346374Y-126263577D01*
X78497606Y-126200935D01*
X78497607Y-126200935D01*
X78497609Y-126200934D01*
X78658152Y-126169000D01*
X78821848Y-126169000D01*
X78982391Y-126200934D01*
X78982391Y-126200934D01*
G37*
G36*
X81522391Y-126200934D02*
X81522393Y-126200935D01*
X81522394Y-126200935D01*
X81673626Y-126263577D01*
X81673627Y-126263578D01*
X81809735Y-126354522D01*
X81925478Y-126470265D01*
X81925480Y-126470268D01*
X82016423Y-126606374D01*
X82079065Y-126757606D01*
X82111000Y-126918154D01*
X82111000Y-127081846D01*
X82079065Y-127242394D01*
X82016423Y-127393626D01*
X82016422Y-127393627D01*
X81925478Y-127529735D01*
X81809735Y-127645478D01*
X81809732Y-127645480D01*
X81673626Y-127736423D01*
X81522394Y-127799065D01*
X81522393Y-127799065D01*
X81522391Y-127799066D01*
X81361848Y-127831000D01*
X81198152Y-127831000D01*
X81037609Y-127799066D01*
X81037607Y-127799065D01*
X81037606Y-127799065D01*
X80886374Y-127736423D01*
X80750268Y-127645480D01*
X80750265Y-127645478D01*
X80634522Y-127529735D01*
X80543578Y-127393627D01*
X80543577Y-127393626D01*
X80480935Y-127242394D01*
X80449000Y-127081846D01*
X80449000Y-126918154D01*
X80480935Y-126757606D01*
X80543577Y-126606374D01*
X80634520Y-126470268D01*
X80634522Y-126470265D01*
X80750265Y-126354522D01*
X80886373Y-126263578D01*
X80886374Y-126263577D01*
X81037606Y-126200935D01*
X81037607Y-126200935D01*
X81037609Y-126200934D01*
X81198152Y-126169000D01*
X81361848Y-126169000D01*
X81522391Y-126200934D01*
X81522391Y-126200934D01*
G37*
G36*
X84062391Y-126200934D02*
X84062393Y-126200935D01*
X84062394Y-126200935D01*
X84213626Y-126263577D01*
X84213627Y-126263578D01*
X84349735Y-126354522D01*
X84465478Y-126470265D01*
X84465480Y-126470268D01*
X84556423Y-126606374D01*
X84619065Y-126757606D01*
X84651000Y-126918154D01*
X84651000Y-127081846D01*
X84619065Y-127242394D01*
X84556423Y-127393626D01*
X84556422Y-127393627D01*
X84465478Y-127529735D01*
X84349735Y-127645478D01*
X84349732Y-127645480D01*
X84213626Y-127736423D01*
X84062394Y-127799065D01*
X84062393Y-127799065D01*
X84062391Y-127799066D01*
X83901848Y-127831000D01*
X83738152Y-127831000D01*
X83577609Y-127799066D01*
X83577607Y-127799065D01*
X83577606Y-127799065D01*
X83426374Y-127736423D01*
X83290268Y-127645480D01*
X83290265Y-127645478D01*
X83174522Y-127529735D01*
X83083578Y-127393627D01*
X83083577Y-127393626D01*
X83020935Y-127242394D01*
X82989000Y-127081846D01*
X82989000Y-126918154D01*
X83020935Y-126757606D01*
X83083577Y-126606374D01*
X83174520Y-126470268D01*
X83174522Y-126470265D01*
X83290265Y-126354522D01*
X83426373Y-126263578D01*
X83426374Y-126263577D01*
X83577606Y-126200935D01*
X83577607Y-126200935D01*
X83577609Y-126200934D01*
X83738152Y-126169000D01*
X83901848Y-126169000D01*
X84062391Y-126200934D01*
X84062391Y-126200934D01*
G37*
G36*
X89142391Y-126200934D02*
X89142393Y-126200935D01*
X89142394Y-126200935D01*
X89293626Y-126263577D01*
X89293627Y-126263578D01*
X89429735Y-126354522D01*
X89545478Y-126470265D01*
X89545480Y-126470268D01*
X89636423Y-126606374D01*
X89699065Y-126757606D01*
X89731000Y-126918154D01*
X89731000Y-127081846D01*
X89699065Y-127242394D01*
X89636423Y-127393626D01*
X89636422Y-127393627D01*
X89545478Y-127529735D01*
X89429735Y-127645478D01*
X89429732Y-127645480D01*
X89293626Y-127736423D01*
X89142394Y-127799065D01*
X89142393Y-127799065D01*
X89142391Y-127799066D01*
X88981848Y-127831000D01*
X88818152Y-127831000D01*
X88657609Y-127799066D01*
X88657607Y-127799065D01*
X88657606Y-127799065D01*
X88506374Y-127736423D01*
X88370268Y-127645480D01*
X88370265Y-127645478D01*
X88254522Y-127529735D01*
X88163578Y-127393627D01*
X88163577Y-127393626D01*
X88100935Y-127242394D01*
X88069000Y-127081846D01*
X88069000Y-126918154D01*
X88100935Y-126757606D01*
X88163577Y-126606374D01*
X88254520Y-126470268D01*
X88254522Y-126470265D01*
X88370265Y-126354522D01*
X88506373Y-126263578D01*
X88506374Y-126263577D01*
X88657606Y-126200935D01*
X88657607Y-126200935D01*
X88657609Y-126200934D01*
X88818152Y-126169000D01*
X88981848Y-126169000D01*
X89142391Y-126200934D01*
X89142391Y-126200934D01*
G37*
G36*
X91682391Y-126200934D02*
X91682393Y-126200935D01*
X91682394Y-126200935D01*
X91833626Y-126263577D01*
X91833627Y-126263578D01*
X91969735Y-126354522D01*
X92085478Y-126470265D01*
X92085480Y-126470268D01*
X92176423Y-126606374D01*
X92239065Y-126757606D01*
X92271000Y-126918154D01*
X92271000Y-127081846D01*
X92239065Y-127242394D01*
X92176423Y-127393626D01*
X92176422Y-127393627D01*
X92085478Y-127529735D01*
X91969735Y-127645478D01*
X91969732Y-127645480D01*
X91833626Y-127736423D01*
X91682394Y-127799065D01*
X91682393Y-127799065D01*
X91682391Y-127799066D01*
X91521848Y-127831000D01*
X91358152Y-127831000D01*
X91197609Y-127799066D01*
X91197607Y-127799065D01*
X91197606Y-127799065D01*
X91046374Y-127736423D01*
X90910268Y-127645480D01*
X90910265Y-127645478D01*
X90794522Y-127529735D01*
X90703578Y-127393627D01*
X90703577Y-127393626D01*
X90640935Y-127242394D01*
X90609000Y-127081846D01*
X90609000Y-126918154D01*
X90640935Y-126757606D01*
X90703577Y-126606374D01*
X90794520Y-126470268D01*
X90794522Y-126470265D01*
X90910265Y-126354522D01*
X91046373Y-126263578D01*
X91046374Y-126263577D01*
X91197606Y-126200935D01*
X91197607Y-126200935D01*
X91197609Y-126200934D01*
X91358152Y-126169000D01*
X91521848Y-126169000D01*
X91682391Y-126200934D01*
X91682391Y-126200934D01*
G37*
G36*
X94222391Y-126200934D02*
X94222393Y-126200935D01*
X94222394Y-126200935D01*
X94373626Y-126263577D01*
X94373627Y-126263578D01*
X94509735Y-126354522D01*
X94625478Y-126470265D01*
X94625480Y-126470268D01*
X94716423Y-126606374D01*
X94779065Y-126757606D01*
X94811000Y-126918154D01*
X94811000Y-127081846D01*
X94779065Y-127242394D01*
X94716423Y-127393626D01*
X94716422Y-127393627D01*
X94625478Y-127529735D01*
X94509735Y-127645478D01*
X94509732Y-127645480D01*
X94373626Y-127736423D01*
X94222394Y-127799065D01*
X94222393Y-127799065D01*
X94222391Y-127799066D01*
X94061848Y-127831000D01*
X93898152Y-127831000D01*
X93737609Y-127799066D01*
X93737607Y-127799065D01*
X93737606Y-127799065D01*
X93586374Y-127736423D01*
X93450268Y-127645480D01*
X93450265Y-127645478D01*
X93334522Y-127529735D01*
X93243578Y-127393627D01*
X93243577Y-127393626D01*
X93180935Y-127242394D01*
X93149000Y-127081846D01*
X93149000Y-126918154D01*
X93180935Y-126757606D01*
X93243577Y-126606374D01*
X93334520Y-126470268D01*
X93334522Y-126470265D01*
X93450265Y-126354522D01*
X93586373Y-126263578D01*
X93586374Y-126263577D01*
X93737606Y-126200935D01*
X93737607Y-126200935D01*
X93737609Y-126200934D01*
X93898152Y-126169000D01*
X94061848Y-126169000D01*
X94222391Y-126200934D01*
X94222391Y-126200934D01*
G37*
G36*
X96762391Y-126200934D02*
X96762393Y-126200935D01*
X96762394Y-126200935D01*
X96913626Y-126263577D01*
X96913627Y-126263578D01*
X97049735Y-126354522D01*
X97165478Y-126470265D01*
X97165480Y-126470268D01*
X97256423Y-126606374D01*
X97319065Y-126757606D01*
X97351000Y-126918154D01*
X97351000Y-127081846D01*
X97319065Y-127242394D01*
X97256423Y-127393626D01*
X97256422Y-127393627D01*
X97165478Y-127529735D01*
X97049735Y-127645478D01*
X97049732Y-127645480D01*
X96913626Y-127736423D01*
X96762394Y-127799065D01*
X96762393Y-127799065D01*
X96762391Y-127799066D01*
X96601848Y-127831000D01*
X96438152Y-127831000D01*
X96277609Y-127799066D01*
X96277607Y-127799065D01*
X96277606Y-127799065D01*
X96126374Y-127736423D01*
X95990268Y-127645480D01*
X95990265Y-127645478D01*
X95874522Y-127529735D01*
X95783578Y-127393627D01*
X95783577Y-127393626D01*
X95720935Y-127242394D01*
X95689000Y-127081846D01*
X95689000Y-126918154D01*
X95720935Y-126757606D01*
X95783577Y-126606374D01*
X95874520Y-126470268D01*
X95874522Y-126470265D01*
X95990265Y-126354522D01*
X96126373Y-126263578D01*
X96126374Y-126263577D01*
X96277606Y-126200935D01*
X96277607Y-126200935D01*
X96277609Y-126200934D01*
X96438152Y-126169000D01*
X96601848Y-126169000D01*
X96762391Y-126200934D01*
X96762391Y-126200934D01*
G37*
G36*
X99302391Y-126200934D02*
X99302393Y-126200935D01*
X99302394Y-126200935D01*
X99453626Y-126263577D01*
X99453627Y-126263578D01*
X99589735Y-126354522D01*
X99705478Y-126470265D01*
X99705480Y-126470268D01*
X99796423Y-126606374D01*
X99859065Y-126757606D01*
X99891000Y-126918154D01*
X99891000Y-127081846D01*
X99859065Y-127242394D01*
X99796423Y-127393626D01*
X99796422Y-127393627D01*
X99705478Y-127529735D01*
X99589735Y-127645478D01*
X99589732Y-127645480D01*
X99453626Y-127736423D01*
X99302394Y-127799065D01*
X99302393Y-127799065D01*
X99302391Y-127799066D01*
X99141848Y-127831000D01*
X98978152Y-127831000D01*
X98817609Y-127799066D01*
X98817607Y-127799065D01*
X98817606Y-127799065D01*
X98666374Y-127736423D01*
X98530268Y-127645480D01*
X98530265Y-127645478D01*
X98414522Y-127529735D01*
X98323578Y-127393627D01*
X98323577Y-127393626D01*
X98260935Y-127242394D01*
X98229000Y-127081846D01*
X98229000Y-126918154D01*
X98260935Y-126757606D01*
X98323577Y-126606374D01*
X98414520Y-126470268D01*
X98414522Y-126470265D01*
X98530265Y-126354522D01*
X98666373Y-126263578D01*
X98666374Y-126263577D01*
X98817606Y-126200935D01*
X98817607Y-126200935D01*
X98817609Y-126200934D01*
X98978152Y-126169000D01*
X99141848Y-126169000D01*
X99302391Y-126200934D01*
X99302391Y-126200934D01*
G37*
G36*
X101842391Y-126200934D02*
X101842393Y-126200935D01*
X101842394Y-126200935D01*
X101993626Y-126263577D01*
X101993627Y-126263578D01*
X102129735Y-126354522D01*
X102245478Y-126470265D01*
X102245480Y-126470268D01*
X102336423Y-126606374D01*
X102399065Y-126757606D01*
X102431000Y-126918154D01*
X102431000Y-127081846D01*
X102399065Y-127242394D01*
X102336423Y-127393626D01*
X102336422Y-127393627D01*
X102245478Y-127529735D01*
X102129735Y-127645478D01*
X102129732Y-127645480D01*
X101993626Y-127736423D01*
X101842394Y-127799065D01*
X101842393Y-127799065D01*
X101842391Y-127799066D01*
X101681848Y-127831000D01*
X101518152Y-127831000D01*
X101357609Y-127799066D01*
X101357607Y-127799065D01*
X101357606Y-127799065D01*
X101206374Y-127736423D01*
X101070268Y-127645480D01*
X101070265Y-127645478D01*
X100954522Y-127529735D01*
X100863578Y-127393627D01*
X100863577Y-127393626D01*
X100800935Y-127242394D01*
X100769000Y-127081846D01*
X100769000Y-126918154D01*
X100800935Y-126757606D01*
X100863577Y-126606374D01*
X100954520Y-126470268D01*
X100954522Y-126470265D01*
X101070265Y-126354522D01*
X101206373Y-126263578D01*
X101206374Y-126263577D01*
X101357606Y-126200935D01*
X101357607Y-126200935D01*
X101357609Y-126200934D01*
X101518152Y-126169000D01*
X101681848Y-126169000D01*
X101842391Y-126200934D01*
X101842391Y-126200934D01*
G37*
G36*
X104382391Y-126200934D02*
X104382393Y-126200935D01*
X104382394Y-126200935D01*
X104533626Y-126263577D01*
X104533627Y-126263578D01*
X104669735Y-126354522D01*
X104785478Y-126470265D01*
X104785480Y-126470268D01*
X104876423Y-126606374D01*
X104939065Y-126757606D01*
X104971000Y-126918154D01*
X104971000Y-127081846D01*
X104939065Y-127242394D01*
X104876423Y-127393626D01*
X104876422Y-127393627D01*
X104785478Y-127529735D01*
X104669735Y-127645478D01*
X104669732Y-127645480D01*
X104533626Y-127736423D01*
X104382394Y-127799065D01*
X104382393Y-127799065D01*
X104382391Y-127799066D01*
X104221848Y-127831000D01*
X104058152Y-127831000D01*
X103897609Y-127799066D01*
X103897607Y-127799065D01*
X103897606Y-127799065D01*
X103746374Y-127736423D01*
X103610268Y-127645480D01*
X103610265Y-127645478D01*
X103494522Y-127529735D01*
X103403578Y-127393627D01*
X103403577Y-127393626D01*
X103340935Y-127242394D01*
X103309000Y-127081846D01*
X103309000Y-126918154D01*
X103340935Y-126757606D01*
X103403577Y-126606374D01*
X103494520Y-126470268D01*
X103494522Y-126470265D01*
X103610265Y-126354522D01*
X103746373Y-126263578D01*
X103746374Y-126263577D01*
X103897606Y-126200935D01*
X103897607Y-126200935D01*
X103897609Y-126200934D01*
X104058152Y-126169000D01*
X104221848Y-126169000D01*
X104382391Y-126200934D01*
X104382391Y-126200934D01*
G37*
G36*
X106922391Y-126200934D02*
X106922393Y-126200935D01*
X106922394Y-126200935D01*
X107073626Y-126263577D01*
X107073627Y-126263578D01*
X107209735Y-126354522D01*
X107325478Y-126470265D01*
X107325480Y-126470268D01*
X107416423Y-126606374D01*
X107479065Y-126757606D01*
X107511000Y-126918154D01*
X107511000Y-127081846D01*
X107479065Y-127242394D01*
X107416423Y-127393626D01*
X107416422Y-127393627D01*
X107325478Y-127529735D01*
X107209735Y-127645478D01*
X107209732Y-127645480D01*
X107073626Y-127736423D01*
X106922394Y-127799065D01*
X106922393Y-127799065D01*
X106922391Y-127799066D01*
X106761848Y-127831000D01*
X106598152Y-127831000D01*
X106437609Y-127799066D01*
X106437607Y-127799065D01*
X106437606Y-127799065D01*
X106286374Y-127736423D01*
X106150268Y-127645480D01*
X106150265Y-127645478D01*
X106034522Y-127529735D01*
X105943578Y-127393627D01*
X105943577Y-127393626D01*
X105880935Y-127242394D01*
X105849000Y-127081846D01*
X105849000Y-126918154D01*
X105880935Y-126757606D01*
X105943577Y-126606374D01*
X106034520Y-126470268D01*
X106034522Y-126470265D01*
X106150265Y-126354522D01*
X106286373Y-126263578D01*
X106286374Y-126263577D01*
X106437606Y-126200935D01*
X106437607Y-126200935D01*
X106437609Y-126200934D01*
X106598152Y-126169000D01*
X106761848Y-126169000D01*
X106922391Y-126200934D01*
X106922391Y-126200934D01*
G37*
G36*
X112002391Y-126200934D02*
X112002393Y-126200935D01*
X112002394Y-126200935D01*
X112153626Y-126263577D01*
X112153627Y-126263578D01*
X112289735Y-126354522D01*
X112405478Y-126470265D01*
X112405480Y-126470268D01*
X112496423Y-126606374D01*
X112559065Y-126757606D01*
X112591000Y-126918154D01*
X112591000Y-127081846D01*
X112559065Y-127242394D01*
X112496423Y-127393626D01*
X112496422Y-127393627D01*
X112405478Y-127529735D01*
X112289735Y-127645478D01*
X112289732Y-127645480D01*
X112153626Y-127736423D01*
X112002394Y-127799065D01*
X112002393Y-127799065D01*
X112002391Y-127799066D01*
X111841848Y-127831000D01*
X111678152Y-127831000D01*
X111517609Y-127799066D01*
X111517607Y-127799065D01*
X111517606Y-127799065D01*
X111366374Y-127736423D01*
X111230268Y-127645480D01*
X111230265Y-127645478D01*
X111114522Y-127529735D01*
X111023578Y-127393627D01*
X111023577Y-127393626D01*
X110960935Y-127242394D01*
X110929000Y-127081846D01*
X110929000Y-126918154D01*
X110960935Y-126757606D01*
X111023577Y-126606374D01*
X111114520Y-126470268D01*
X111114522Y-126470265D01*
X111230265Y-126354522D01*
X111366373Y-126263578D01*
X111366374Y-126263577D01*
X111517606Y-126200935D01*
X111517607Y-126200935D01*
X111517609Y-126200934D01*
X111678152Y-126169000D01*
X111841848Y-126169000D01*
X112002391Y-126200934D01*
X112002391Y-126200934D01*
G37*
G36*
X152775256Y-124121298D02*
X152881579Y-124142447D01*
X153182042Y-124266903D01*
X153448852Y-124445180D01*
X153452454Y-124447587D01*
X153682413Y-124677546D01*
X153682415Y-124677549D01*
X153863097Y-124947958D01*
X153987553Y-125248421D01*
X154051000Y-125567391D01*
X154051000Y-125892609D01*
X153987553Y-126211579D01*
X153863097Y-126512042D01*
X153699016Y-126757606D01*
X153682413Y-126782454D01*
X153452454Y-127012413D01*
X153452451Y-127012415D01*
X153182042Y-127193097D01*
X152881579Y-127317553D01*
X152775256Y-127338702D01*
X152562611Y-127381000D01*
X152237389Y-127381000D01*
X152024744Y-127338702D01*
X151918421Y-127317553D01*
X151617958Y-127193097D01*
X151347549Y-127012415D01*
X151347546Y-127012413D01*
X151117587Y-126782454D01*
X151100984Y-126757606D01*
X150936903Y-126512042D01*
X150812447Y-126211579D01*
X150749000Y-125892609D01*
X150749000Y-125567391D01*
X150812447Y-125248421D01*
X150936903Y-124947958D01*
X151117585Y-124677549D01*
X151117587Y-124677546D01*
X151347546Y-124447587D01*
X151351148Y-124445180D01*
X151617958Y-124266903D01*
X151918421Y-124142447D01*
X152024744Y-124121298D01*
X152237389Y-124079000D01*
X152562611Y-124079000D01*
X152775256Y-124121298D01*
X152775256Y-124121298D01*
G37*
G36*
X142350443Y-124835519D02*
X142416627Y-124842037D01*
X142529853Y-124876384D01*
X142586467Y-124893557D01*
X142688246Y-124947960D01*
X142742991Y-124977222D01*
X142778729Y-125006552D01*
X142880186Y-125089814D01*
X142963448Y-125191271D01*
X142992778Y-125227009D01*
X142992779Y-125227011D01*
X143076443Y-125383533D01*
X143076443Y-125383534D01*
X143127963Y-125553373D01*
X143145359Y-125730000D01*
X143127963Y-125906627D01*
X143093616Y-126019853D01*
X143076443Y-126076467D01*
X143026982Y-126169000D01*
X142992778Y-126232991D01*
X142967676Y-126263578D01*
X142880186Y-126370186D01*
X142778729Y-126453448D01*
X142742991Y-126482778D01*
X142742989Y-126482779D01*
X142586467Y-126566443D01*
X142529853Y-126583616D01*
X142416627Y-126617963D01*
X142350442Y-126624482D01*
X142284260Y-126631000D01*
X142195740Y-126631000D01*
X142129558Y-126624482D01*
X142063373Y-126617963D01*
X141950147Y-126583616D01*
X141893533Y-126566443D01*
X141737011Y-126482779D01*
X141737009Y-126482778D01*
X141701271Y-126453448D01*
X141599814Y-126370186D01*
X141512324Y-126263578D01*
X141487222Y-126232991D01*
X141453018Y-126169000D01*
X141403557Y-126076467D01*
X141386384Y-126019853D01*
X141352037Y-125906627D01*
X141334641Y-125730000D01*
X141352037Y-125553373D01*
X141403557Y-125383534D01*
X141403557Y-125383533D01*
X141487221Y-125227011D01*
X141487222Y-125227009D01*
X141516552Y-125191271D01*
X141599814Y-125089814D01*
X141701271Y-125006552D01*
X141737009Y-124977222D01*
X141791754Y-124947960D01*
X141893533Y-124893557D01*
X141950147Y-124876384D01*
X142063373Y-124842037D01*
X142129557Y-124835519D01*
X142195740Y-124829000D01*
X142284260Y-124829000D01*
X142350443Y-124835519D01*
X142350443Y-124835519D01*
G37*
G36*
X129650443Y-124835519D02*
X129716627Y-124842037D01*
X129829853Y-124876384D01*
X129886467Y-124893557D01*
X129988246Y-124947960D01*
X130042991Y-124977222D01*
X130078729Y-125006552D01*
X130180186Y-125089814D01*
X130263448Y-125191271D01*
X130292778Y-125227009D01*
X130292779Y-125227011D01*
X130376443Y-125383533D01*
X130376443Y-125383534D01*
X130427963Y-125553373D01*
X130445359Y-125730000D01*
X130427963Y-125906627D01*
X130393616Y-126019853D01*
X130376443Y-126076467D01*
X130326982Y-126169000D01*
X130292778Y-126232991D01*
X130267676Y-126263578D01*
X130180186Y-126370186D01*
X130078729Y-126453448D01*
X130042991Y-126482778D01*
X130042989Y-126482779D01*
X129886467Y-126566443D01*
X129829853Y-126583616D01*
X129716627Y-126617963D01*
X129650442Y-126624482D01*
X129584260Y-126631000D01*
X129495740Y-126631000D01*
X129429558Y-126624482D01*
X129363373Y-126617963D01*
X129250147Y-126583616D01*
X129193533Y-126566443D01*
X129037011Y-126482779D01*
X129037009Y-126482778D01*
X129001271Y-126453448D01*
X128899814Y-126370186D01*
X128812324Y-126263578D01*
X128787222Y-126232991D01*
X128753018Y-126169000D01*
X128703557Y-126076467D01*
X128686384Y-126019853D01*
X128652037Y-125906627D01*
X128634641Y-125730000D01*
X128652037Y-125553373D01*
X128703557Y-125383534D01*
X128703557Y-125383533D01*
X128787221Y-125227011D01*
X128787222Y-125227009D01*
X128816552Y-125191271D01*
X128899814Y-125089814D01*
X129001271Y-125006552D01*
X129037009Y-124977222D01*
X129091754Y-124947960D01*
X129193533Y-124893557D01*
X129250147Y-124876384D01*
X129363373Y-124842037D01*
X129429557Y-124835519D01*
X129495740Y-124829000D01*
X129584260Y-124829000D01*
X129650443Y-124835519D01*
X129650443Y-124835519D01*
G37*
G36*
X136000443Y-124835519D02*
X136066627Y-124842037D01*
X136179853Y-124876384D01*
X136236467Y-124893557D01*
X136338246Y-124947960D01*
X136392991Y-124977222D01*
X136428729Y-125006552D01*
X136530186Y-125089814D01*
X136613448Y-125191271D01*
X136642778Y-125227009D01*
X136642779Y-125227011D01*
X136726443Y-125383533D01*
X136726443Y-125383534D01*
X136777963Y-125553373D01*
X136795359Y-125730000D01*
X136777963Y-125906627D01*
X136743616Y-126019853D01*
X136726443Y-126076467D01*
X136676982Y-126169000D01*
X136642778Y-126232991D01*
X136617676Y-126263578D01*
X136530186Y-126370186D01*
X136428729Y-126453448D01*
X136392991Y-126482778D01*
X136392989Y-126482779D01*
X136236467Y-126566443D01*
X136179853Y-126583616D01*
X136066627Y-126617963D01*
X136000442Y-126624482D01*
X135934260Y-126631000D01*
X135845740Y-126631000D01*
X135779558Y-126624482D01*
X135713373Y-126617963D01*
X135600147Y-126583616D01*
X135543533Y-126566443D01*
X135387011Y-126482779D01*
X135387009Y-126482778D01*
X135351271Y-126453448D01*
X135249814Y-126370186D01*
X135162324Y-126263578D01*
X135137222Y-126232991D01*
X135103018Y-126169000D01*
X135053557Y-126076467D01*
X135036384Y-126019853D01*
X135002037Y-125906627D01*
X134984641Y-125730000D01*
X135002037Y-125553373D01*
X135053557Y-125383534D01*
X135053557Y-125383533D01*
X135137221Y-125227011D01*
X135137222Y-125227009D01*
X135166552Y-125191271D01*
X135249814Y-125089814D01*
X135351271Y-125006552D01*
X135387009Y-124977222D01*
X135441754Y-124947960D01*
X135543533Y-124893557D01*
X135600147Y-124876384D01*
X135713373Y-124842037D01*
X135779557Y-124835519D01*
X135845740Y-124829000D01*
X135934260Y-124829000D01*
X136000443Y-124835519D01*
X136000443Y-124835519D01*
G37*
G36*
X124091000Y-126631000D02*
X122289000Y-126631000D01*
X122289000Y-124829000D01*
X124091000Y-124829000D01*
X124091000Y-126631000D01*
X124091000Y-126631000D01*
G37*
G36*
X142350443Y-122295519D02*
X142416627Y-122302037D01*
X142529853Y-122336384D01*
X142586467Y-122353557D01*
X142670993Y-122398738D01*
X142742991Y-122437222D01*
X142778729Y-122466552D01*
X142880186Y-122549814D01*
X142935479Y-122617190D01*
X142992778Y-122687009D01*
X142992779Y-122687011D01*
X143076443Y-122843533D01*
X143076443Y-122843534D01*
X143127963Y-123013373D01*
X143145359Y-123190000D01*
X143127963Y-123366627D01*
X143093616Y-123479853D01*
X143076443Y-123536467D01*
X143002348Y-123675087D01*
X142992778Y-123692991D01*
X142963448Y-123728729D01*
X142880186Y-123830186D01*
X142778729Y-123913448D01*
X142742991Y-123942778D01*
X142742989Y-123942779D01*
X142586467Y-124026443D01*
X142529853Y-124043616D01*
X142416627Y-124077963D01*
X142350442Y-124084482D01*
X142284260Y-124091000D01*
X142195740Y-124091000D01*
X142129558Y-124084482D01*
X142063373Y-124077963D01*
X141950147Y-124043616D01*
X141893533Y-124026443D01*
X141737011Y-123942779D01*
X141737009Y-123942778D01*
X141701271Y-123913448D01*
X141599814Y-123830186D01*
X141516552Y-123728729D01*
X141487222Y-123692991D01*
X141477652Y-123675087D01*
X141403557Y-123536467D01*
X141386384Y-123479853D01*
X141352037Y-123366627D01*
X141334641Y-123190000D01*
X141352037Y-123013373D01*
X141403557Y-122843534D01*
X141403557Y-122843533D01*
X141487221Y-122687011D01*
X141487222Y-122687009D01*
X141544521Y-122617190D01*
X141599814Y-122549814D01*
X141701271Y-122466552D01*
X141737009Y-122437222D01*
X141809007Y-122398738D01*
X141893533Y-122353557D01*
X141950147Y-122336384D01*
X142063373Y-122302037D01*
X142129557Y-122295519D01*
X142195740Y-122289000D01*
X142284260Y-122289000D01*
X142350443Y-122295519D01*
X142350443Y-122295519D01*
G37*
G36*
X129650443Y-122295519D02*
X129716627Y-122302037D01*
X129829853Y-122336384D01*
X129886467Y-122353557D01*
X129970993Y-122398738D01*
X130042991Y-122437222D01*
X130078729Y-122466552D01*
X130180186Y-122549814D01*
X130235479Y-122617190D01*
X130292778Y-122687009D01*
X130292779Y-122687011D01*
X130376443Y-122843533D01*
X130376443Y-122843534D01*
X130427963Y-123013373D01*
X130445359Y-123190000D01*
X130427963Y-123366627D01*
X130393616Y-123479853D01*
X130376443Y-123536467D01*
X130302348Y-123675087D01*
X130292778Y-123692991D01*
X130263448Y-123728729D01*
X130180186Y-123830186D01*
X130078729Y-123913448D01*
X130042991Y-123942778D01*
X130042989Y-123942779D01*
X129886467Y-124026443D01*
X129829853Y-124043616D01*
X129716627Y-124077963D01*
X129650442Y-124084482D01*
X129584260Y-124091000D01*
X129495740Y-124091000D01*
X129429558Y-124084482D01*
X129363373Y-124077963D01*
X129250147Y-124043616D01*
X129193533Y-124026443D01*
X129037011Y-123942779D01*
X129037009Y-123942778D01*
X129001271Y-123913448D01*
X128899814Y-123830186D01*
X128816552Y-123728729D01*
X128787222Y-123692991D01*
X128777652Y-123675087D01*
X128703557Y-123536467D01*
X128686384Y-123479853D01*
X128652037Y-123366627D01*
X128634641Y-123190000D01*
X128652037Y-123013373D01*
X128703557Y-122843534D01*
X128703557Y-122843533D01*
X128787221Y-122687011D01*
X128787222Y-122687009D01*
X128844521Y-122617190D01*
X128899814Y-122549814D01*
X129001271Y-122466552D01*
X129037009Y-122437222D01*
X129109007Y-122398738D01*
X129193533Y-122353557D01*
X129250147Y-122336384D01*
X129363373Y-122302037D01*
X129429557Y-122295519D01*
X129495740Y-122289000D01*
X129584260Y-122289000D01*
X129650443Y-122295519D01*
X129650443Y-122295519D01*
G37*
G36*
X136000443Y-122295519D02*
X136066627Y-122302037D01*
X136179853Y-122336384D01*
X136236467Y-122353557D01*
X136320993Y-122398738D01*
X136392991Y-122437222D01*
X136428729Y-122466552D01*
X136530186Y-122549814D01*
X136585479Y-122617190D01*
X136642778Y-122687009D01*
X136642779Y-122687011D01*
X136726443Y-122843533D01*
X136726443Y-122843534D01*
X136777963Y-123013373D01*
X136795359Y-123190000D01*
X136777963Y-123366627D01*
X136743616Y-123479853D01*
X136726443Y-123536467D01*
X136652348Y-123675087D01*
X136642778Y-123692991D01*
X136613448Y-123728729D01*
X136530186Y-123830186D01*
X136428729Y-123913448D01*
X136392991Y-123942778D01*
X136392989Y-123942779D01*
X136236467Y-124026443D01*
X136179853Y-124043616D01*
X136066627Y-124077963D01*
X136000442Y-124084482D01*
X135934260Y-124091000D01*
X135845740Y-124091000D01*
X135779558Y-124084482D01*
X135713373Y-124077963D01*
X135600147Y-124043616D01*
X135543533Y-124026443D01*
X135387011Y-123942779D01*
X135387009Y-123942778D01*
X135351271Y-123913448D01*
X135249814Y-123830186D01*
X135166552Y-123728729D01*
X135137222Y-123692991D01*
X135127652Y-123675087D01*
X135053557Y-123536467D01*
X135036384Y-123479853D01*
X135002037Y-123366627D01*
X134984641Y-123190000D01*
X135002037Y-123013373D01*
X135053557Y-122843534D01*
X135053557Y-122843533D01*
X135137221Y-122687011D01*
X135137222Y-122687009D01*
X135194521Y-122617190D01*
X135249814Y-122549814D01*
X135351271Y-122466552D01*
X135387009Y-122437222D01*
X135459007Y-122398738D01*
X135543533Y-122353557D01*
X135600147Y-122336384D01*
X135713373Y-122302037D01*
X135779557Y-122295519D01*
X135845740Y-122289000D01*
X135934260Y-122289000D01*
X136000443Y-122295519D01*
X136000443Y-122295519D01*
G37*
G36*
X123300443Y-122295519D02*
X123366627Y-122302037D01*
X123479853Y-122336384D01*
X123536467Y-122353557D01*
X123620993Y-122398738D01*
X123692991Y-122437222D01*
X123728729Y-122466552D01*
X123830186Y-122549814D01*
X123885479Y-122617190D01*
X123942778Y-122687009D01*
X123942779Y-122687011D01*
X124026443Y-122843533D01*
X124026443Y-122843534D01*
X124077963Y-123013373D01*
X124095359Y-123190000D01*
X124077963Y-123366627D01*
X124043616Y-123479853D01*
X124026443Y-123536467D01*
X123952348Y-123675087D01*
X123942778Y-123692991D01*
X123913448Y-123728729D01*
X123830186Y-123830186D01*
X123728729Y-123913448D01*
X123692991Y-123942778D01*
X123692989Y-123942779D01*
X123536467Y-124026443D01*
X123479853Y-124043616D01*
X123366627Y-124077963D01*
X123300442Y-124084482D01*
X123234260Y-124091000D01*
X123145740Y-124091000D01*
X123079558Y-124084482D01*
X123013373Y-124077963D01*
X122900147Y-124043616D01*
X122843533Y-124026443D01*
X122687011Y-123942779D01*
X122687009Y-123942778D01*
X122651271Y-123913448D01*
X122549814Y-123830186D01*
X122466552Y-123728729D01*
X122437222Y-123692991D01*
X122427652Y-123675087D01*
X122353557Y-123536467D01*
X122336384Y-123479853D01*
X122302037Y-123366627D01*
X122284641Y-123190000D01*
X122302037Y-123013373D01*
X122353557Y-122843534D01*
X122353557Y-122843533D01*
X122437221Y-122687011D01*
X122437222Y-122687009D01*
X122494521Y-122617190D01*
X122549814Y-122549814D01*
X122651271Y-122466552D01*
X122687009Y-122437222D01*
X122759007Y-122398738D01*
X122843533Y-122353557D01*
X122900147Y-122336384D01*
X123013373Y-122302037D01*
X123079557Y-122295519D01*
X123145740Y-122289000D01*
X123234260Y-122289000D01*
X123300443Y-122295519D01*
X123300443Y-122295519D01*
G37*
G36*
X71193665Y-121172622D02*
X71267222Y-121179867D01*
X71408786Y-121222810D01*
X71539252Y-121292546D01*
X71653606Y-121386394D01*
X71747454Y-121500748D01*
X71817190Y-121631214D01*
X71860133Y-121772778D01*
X71874633Y-121920000D01*
X71860133Y-122067222D01*
X71817190Y-122208786D01*
X71747454Y-122339252D01*
X71653606Y-122453606D01*
X71539252Y-122547454D01*
X71408786Y-122617190D01*
X71267222Y-122660133D01*
X71193665Y-122667378D01*
X71156888Y-122671000D01*
X71083112Y-122671000D01*
X71046335Y-122667378D01*
X70972778Y-122660133D01*
X70831214Y-122617190D01*
X70700748Y-122547454D01*
X70586394Y-122453606D01*
X70492546Y-122339252D01*
X70422810Y-122208786D01*
X70379867Y-122067222D01*
X70365367Y-121920000D01*
X70379867Y-121772778D01*
X70422810Y-121631214D01*
X70492546Y-121500748D01*
X70586394Y-121386394D01*
X70700748Y-121292546D01*
X70831214Y-121222810D01*
X70972778Y-121179867D01*
X71046335Y-121172622D01*
X71083112Y-121169000D01*
X71156888Y-121169000D01*
X71193665Y-121172622D01*
X71193665Y-121172622D01*
G37*
G36*
X66168600Y-121179867D02*
X66259059Y-121197860D01*
X66395732Y-121254472D01*
X66452715Y-121292547D01*
X66518738Y-121336662D01*
X66623338Y-121441262D01*
X66623340Y-121441265D01*
X66705528Y-121564268D01*
X66762140Y-121700941D01*
X66791000Y-121846033D01*
X66791000Y-121993967D01*
X66762140Y-122139059D01*
X66705528Y-122275732D01*
X66653527Y-122353557D01*
X66623338Y-122398738D01*
X66518738Y-122503338D01*
X66518735Y-122503340D01*
X66395732Y-122585528D01*
X66259059Y-122642140D01*
X66172004Y-122659456D01*
X66113969Y-122671000D01*
X65966031Y-122671000D01*
X65907996Y-122659456D01*
X65820941Y-122642140D01*
X65684268Y-122585528D01*
X65561265Y-122503340D01*
X65561262Y-122503338D01*
X65456662Y-122398738D01*
X65426473Y-122353557D01*
X65374472Y-122275732D01*
X65317860Y-122139059D01*
X65289000Y-121993967D01*
X65289000Y-121846033D01*
X65317860Y-121700941D01*
X65374472Y-121564268D01*
X65456660Y-121441265D01*
X65456662Y-121441262D01*
X65561262Y-121336662D01*
X65627285Y-121292547D01*
X65684268Y-121254472D01*
X65820941Y-121197860D01*
X65911400Y-121179867D01*
X65966031Y-121169000D01*
X66113969Y-121169000D01*
X66168600Y-121179867D01*
X66168600Y-121179867D01*
G37*
G36*
X124091000Y-121551000D02*
X122289000Y-121551000D01*
X122289000Y-119749000D01*
X124091000Y-119749000D01*
X124091000Y-121551000D01*
X124091000Y-121551000D01*
G37*
G36*
X143141000Y-121551000D02*
X141339000Y-121551000D01*
X141339000Y-119749000D01*
X143141000Y-119749000D01*
X143141000Y-121551000D01*
X143141000Y-121551000D01*
G37*
G36*
X136000442Y-119755518D02*
X136066627Y-119762037D01*
X136179853Y-119796384D01*
X136236467Y-119813557D01*
X136375087Y-119887652D01*
X136392991Y-119897222D01*
X136428729Y-119926552D01*
X136530186Y-120009814D01*
X136613448Y-120111271D01*
X136642778Y-120147009D01*
X136642779Y-120147011D01*
X136726443Y-120303533D01*
X136726443Y-120303534D01*
X136777963Y-120473373D01*
X136795359Y-120650000D01*
X136777963Y-120826627D01*
X136743616Y-120939853D01*
X136726443Y-120996467D01*
X136652348Y-121135087D01*
X136642778Y-121152991D01*
X136620721Y-121179867D01*
X136530186Y-121290186D01*
X136428729Y-121373448D01*
X136392991Y-121402778D01*
X136392989Y-121402779D01*
X136236467Y-121486443D01*
X136189312Y-121500747D01*
X136066627Y-121537963D01*
X136000443Y-121544481D01*
X135934260Y-121551000D01*
X135845740Y-121551000D01*
X135779557Y-121544481D01*
X135713373Y-121537963D01*
X135590688Y-121500747D01*
X135543533Y-121486443D01*
X135387011Y-121402779D01*
X135387009Y-121402778D01*
X135351271Y-121373448D01*
X135249814Y-121290186D01*
X135159279Y-121179867D01*
X135137222Y-121152991D01*
X135127652Y-121135087D01*
X135053557Y-120996467D01*
X135036384Y-120939853D01*
X135002037Y-120826627D01*
X134984641Y-120650000D01*
X135002037Y-120473373D01*
X135053557Y-120303534D01*
X135053557Y-120303533D01*
X135137221Y-120147011D01*
X135137222Y-120147009D01*
X135166552Y-120111271D01*
X135249814Y-120009814D01*
X135351271Y-119926552D01*
X135387009Y-119897222D01*
X135404913Y-119887652D01*
X135543533Y-119813557D01*
X135600147Y-119796384D01*
X135713373Y-119762037D01*
X135779558Y-119755518D01*
X135845740Y-119749000D01*
X135934260Y-119749000D01*
X136000442Y-119755518D01*
X136000442Y-119755518D01*
G37*
G36*
X129650442Y-119755518D02*
X129716627Y-119762037D01*
X129829853Y-119796384D01*
X129886467Y-119813557D01*
X130025087Y-119887652D01*
X130042991Y-119897222D01*
X130078729Y-119926552D01*
X130180186Y-120009814D01*
X130263448Y-120111271D01*
X130292778Y-120147009D01*
X130292779Y-120147011D01*
X130376443Y-120303533D01*
X130376443Y-120303534D01*
X130427963Y-120473373D01*
X130445359Y-120650000D01*
X130427963Y-120826627D01*
X130393616Y-120939853D01*
X130376443Y-120996467D01*
X130302348Y-121135087D01*
X130292778Y-121152991D01*
X130270721Y-121179867D01*
X130180186Y-121290186D01*
X130078729Y-121373448D01*
X130042991Y-121402778D01*
X130042989Y-121402779D01*
X129886467Y-121486443D01*
X129839312Y-121500747D01*
X129716627Y-121537963D01*
X129650443Y-121544481D01*
X129584260Y-121551000D01*
X129495740Y-121551000D01*
X129429557Y-121544481D01*
X129363373Y-121537963D01*
X129240688Y-121500747D01*
X129193533Y-121486443D01*
X129037011Y-121402779D01*
X129037009Y-121402778D01*
X129001271Y-121373448D01*
X128899814Y-121290186D01*
X128809279Y-121179867D01*
X128787222Y-121152991D01*
X128777652Y-121135087D01*
X128703557Y-120996467D01*
X128686384Y-120939853D01*
X128652037Y-120826627D01*
X128634641Y-120650000D01*
X128652037Y-120473373D01*
X128703557Y-120303534D01*
X128703557Y-120303533D01*
X128787221Y-120147011D01*
X128787222Y-120147009D01*
X128816552Y-120111271D01*
X128899814Y-120009814D01*
X129001271Y-119926552D01*
X129037009Y-119897222D01*
X129054913Y-119887652D01*
X129193533Y-119813557D01*
X129250147Y-119796384D01*
X129363373Y-119762037D01*
X129429558Y-119755518D01*
X129495740Y-119749000D01*
X129584260Y-119749000D01*
X129650442Y-119755518D01*
X129650442Y-119755518D01*
G37*
G36*
X123300443Y-117215519D02*
X123366627Y-117222037D01*
X123479853Y-117256384D01*
X123536467Y-117273557D01*
X123675087Y-117347652D01*
X123692991Y-117357222D01*
X123728729Y-117386552D01*
X123830186Y-117469814D01*
X123913448Y-117571271D01*
X123942778Y-117607009D01*
X123942779Y-117607011D01*
X124026443Y-117763533D01*
X124026443Y-117763534D01*
X124077963Y-117933373D01*
X124095359Y-118110000D01*
X124077963Y-118286627D01*
X124043616Y-118399853D01*
X124026443Y-118456467D01*
X123952348Y-118595087D01*
X123942778Y-118612991D01*
X123913448Y-118648729D01*
X123830186Y-118750186D01*
X123728729Y-118833448D01*
X123692991Y-118862778D01*
X123692989Y-118862779D01*
X123536467Y-118946443D01*
X123479853Y-118963616D01*
X123366627Y-118997963D01*
X123300443Y-119004481D01*
X123234260Y-119011000D01*
X123145740Y-119011000D01*
X123079557Y-119004481D01*
X123013373Y-118997963D01*
X122900147Y-118963616D01*
X122843533Y-118946443D01*
X122687011Y-118862779D01*
X122687009Y-118862778D01*
X122651271Y-118833448D01*
X122549814Y-118750186D01*
X122466552Y-118648729D01*
X122437222Y-118612991D01*
X122427652Y-118595087D01*
X122353557Y-118456467D01*
X122336384Y-118399853D01*
X122302037Y-118286627D01*
X122284641Y-118110000D01*
X122302037Y-117933373D01*
X122353557Y-117763534D01*
X122353557Y-117763533D01*
X122437221Y-117607011D01*
X122437222Y-117607009D01*
X122466552Y-117571271D01*
X122549814Y-117469814D01*
X122651271Y-117386552D01*
X122687009Y-117357222D01*
X122704913Y-117347652D01*
X122843533Y-117273557D01*
X122900147Y-117256384D01*
X123013373Y-117222037D01*
X123079557Y-117215519D01*
X123145740Y-117209000D01*
X123234260Y-117209000D01*
X123300443Y-117215519D01*
X123300443Y-117215519D01*
G37*
G36*
X136791000Y-119011000D02*
X134989000Y-119011000D01*
X134989000Y-117209000D01*
X136791000Y-117209000D01*
X136791000Y-119011000D01*
X136791000Y-119011000D01*
G37*
G36*
X130441000Y-119011000D02*
X128639000Y-119011000D01*
X128639000Y-117209000D01*
X130441000Y-117209000D01*
X130441000Y-119011000D01*
X130441000Y-119011000D01*
G37*
G36*
X146160442Y-110865518D02*
X146226627Y-110872037D01*
X146339853Y-110906384D01*
X146396467Y-110923557D01*
X146535087Y-110997652D01*
X146552991Y-111007222D01*
X146588729Y-111036552D01*
X146690186Y-111119814D01*
X146773448Y-111221271D01*
X146802778Y-111257009D01*
X146802779Y-111257011D01*
X146886443Y-111413533D01*
X146886443Y-111413534D01*
X146937963Y-111583373D01*
X146955359Y-111760000D01*
X146937963Y-111936627D01*
X146903616Y-112049853D01*
X146886443Y-112106467D01*
X146812348Y-112245087D01*
X146802778Y-112262991D01*
X146773448Y-112298729D01*
X146690186Y-112400186D01*
X146588729Y-112483448D01*
X146552991Y-112512778D01*
X146552989Y-112512779D01*
X146396467Y-112596443D01*
X146339853Y-112613616D01*
X146226627Y-112647963D01*
X146160442Y-112654482D01*
X146094260Y-112661000D01*
X146005740Y-112661000D01*
X145939558Y-112654482D01*
X145873373Y-112647963D01*
X145760147Y-112613616D01*
X145703533Y-112596443D01*
X145547011Y-112512779D01*
X145547009Y-112512778D01*
X145511271Y-112483448D01*
X145409814Y-112400186D01*
X145326552Y-112298729D01*
X145297222Y-112262991D01*
X145287652Y-112245087D01*
X145213557Y-112106467D01*
X145196384Y-112049853D01*
X145162037Y-111936627D01*
X145144641Y-111760000D01*
X145162037Y-111583373D01*
X145213557Y-111413534D01*
X145213557Y-111413533D01*
X145297221Y-111257011D01*
X145297222Y-111257009D01*
X145326552Y-111221271D01*
X145409814Y-111119814D01*
X145511271Y-111036552D01*
X145547009Y-111007222D01*
X145564913Y-110997652D01*
X145703533Y-110923557D01*
X145760147Y-110906384D01*
X145873373Y-110872037D01*
X145939558Y-110865518D01*
X146005740Y-110859000D01*
X146094260Y-110859000D01*
X146160442Y-110865518D01*
X146160442Y-110865518D01*
G37*
G36*
X136000442Y-110865518D02*
X136066627Y-110872037D01*
X136179853Y-110906384D01*
X136236467Y-110923557D01*
X136375087Y-110997652D01*
X136392991Y-111007222D01*
X136428729Y-111036552D01*
X136530186Y-111119814D01*
X136613448Y-111221271D01*
X136642778Y-111257009D01*
X136642779Y-111257011D01*
X136726443Y-111413533D01*
X136726443Y-111413534D01*
X136777963Y-111583373D01*
X136795359Y-111760000D01*
X136777963Y-111936627D01*
X136743616Y-112049853D01*
X136726443Y-112106467D01*
X136652348Y-112245087D01*
X136642778Y-112262991D01*
X136613448Y-112298729D01*
X136530186Y-112400186D01*
X136428729Y-112483448D01*
X136392991Y-112512778D01*
X136392989Y-112512779D01*
X136236467Y-112596443D01*
X136179853Y-112613616D01*
X136066627Y-112647963D01*
X136000442Y-112654482D01*
X135934260Y-112661000D01*
X135845740Y-112661000D01*
X135779558Y-112654482D01*
X135713373Y-112647963D01*
X135600147Y-112613616D01*
X135543533Y-112596443D01*
X135387011Y-112512779D01*
X135387009Y-112512778D01*
X135351271Y-112483448D01*
X135249814Y-112400186D01*
X135166552Y-112298729D01*
X135137222Y-112262991D01*
X135127652Y-112245087D01*
X135053557Y-112106467D01*
X135036384Y-112049853D01*
X135002037Y-111936627D01*
X134984641Y-111760000D01*
X135002037Y-111583373D01*
X135053557Y-111413534D01*
X135053557Y-111413533D01*
X135137221Y-111257011D01*
X135137222Y-111257009D01*
X135166552Y-111221271D01*
X135249814Y-111119814D01*
X135351271Y-111036552D01*
X135387009Y-111007222D01*
X135404913Y-110997652D01*
X135543533Y-110923557D01*
X135600147Y-110906384D01*
X135713373Y-110872037D01*
X135779558Y-110865518D01*
X135845740Y-110859000D01*
X135934260Y-110859000D01*
X136000442Y-110865518D01*
X136000442Y-110865518D01*
G37*
G36*
X125840442Y-110865518D02*
X125906627Y-110872037D01*
X126019853Y-110906384D01*
X126076467Y-110923557D01*
X126215087Y-110997652D01*
X126232991Y-111007222D01*
X126268729Y-111036552D01*
X126370186Y-111119814D01*
X126453448Y-111221271D01*
X126482778Y-111257009D01*
X126482779Y-111257011D01*
X126566443Y-111413533D01*
X126566443Y-111413534D01*
X126617963Y-111583373D01*
X126635359Y-111760000D01*
X126617963Y-111936627D01*
X126583616Y-112049853D01*
X126566443Y-112106467D01*
X126492348Y-112245087D01*
X126482778Y-112262991D01*
X126453448Y-112298729D01*
X126370186Y-112400186D01*
X126268729Y-112483448D01*
X126232991Y-112512778D01*
X126232989Y-112512779D01*
X126076467Y-112596443D01*
X126019853Y-112613616D01*
X125906627Y-112647963D01*
X125840442Y-112654482D01*
X125774260Y-112661000D01*
X125685740Y-112661000D01*
X125619558Y-112654482D01*
X125553373Y-112647963D01*
X125440147Y-112613616D01*
X125383533Y-112596443D01*
X125227011Y-112512779D01*
X125227009Y-112512778D01*
X125191271Y-112483448D01*
X125089814Y-112400186D01*
X125006552Y-112298729D01*
X124977222Y-112262991D01*
X124967652Y-112245087D01*
X124893557Y-112106467D01*
X124876384Y-112049853D01*
X124842037Y-111936627D01*
X124824641Y-111760000D01*
X124842037Y-111583373D01*
X124893557Y-111413534D01*
X124893557Y-111413533D01*
X124977221Y-111257011D01*
X124977222Y-111257009D01*
X125006552Y-111221271D01*
X125089814Y-111119814D01*
X125191271Y-111036552D01*
X125227009Y-111007222D01*
X125244913Y-110997652D01*
X125383533Y-110923557D01*
X125440147Y-110906384D01*
X125553373Y-110872037D01*
X125619558Y-110865518D01*
X125685740Y-110859000D01*
X125774260Y-110859000D01*
X125840442Y-110865518D01*
X125840442Y-110865518D01*
G37*
G36*
X146160443Y-108325519D02*
X146226627Y-108332037D01*
X146339853Y-108366384D01*
X146396467Y-108383557D01*
X146535087Y-108457652D01*
X146552991Y-108467222D01*
X146588729Y-108496552D01*
X146690186Y-108579814D01*
X146773448Y-108681271D01*
X146802778Y-108717009D01*
X146802779Y-108717011D01*
X146886443Y-108873533D01*
X146886443Y-108873534D01*
X146937963Y-109043373D01*
X146955359Y-109220000D01*
X146937963Y-109396627D01*
X146903616Y-109509853D01*
X146886443Y-109566467D01*
X146812348Y-109705087D01*
X146802778Y-109722991D01*
X146773448Y-109758729D01*
X146690186Y-109860186D01*
X146588729Y-109943448D01*
X146552991Y-109972778D01*
X146552989Y-109972779D01*
X146396467Y-110056443D01*
X146339853Y-110073616D01*
X146226627Y-110107963D01*
X146160443Y-110114481D01*
X146094260Y-110121000D01*
X146005740Y-110121000D01*
X145939557Y-110114481D01*
X145873373Y-110107963D01*
X145760147Y-110073616D01*
X145703533Y-110056443D01*
X145547011Y-109972779D01*
X145547009Y-109972778D01*
X145511271Y-109943448D01*
X145409814Y-109860186D01*
X145326552Y-109758729D01*
X145297222Y-109722991D01*
X145287652Y-109705087D01*
X145213557Y-109566467D01*
X145196384Y-109509853D01*
X145162037Y-109396627D01*
X145144641Y-109220000D01*
X145162037Y-109043373D01*
X145213557Y-108873534D01*
X145213557Y-108873533D01*
X145297221Y-108717011D01*
X145297222Y-108717009D01*
X145326552Y-108681271D01*
X145409814Y-108579814D01*
X145511271Y-108496552D01*
X145547009Y-108467222D01*
X145564913Y-108457652D01*
X145703533Y-108383557D01*
X145760147Y-108366384D01*
X145873373Y-108332037D01*
X145939557Y-108325519D01*
X146005740Y-108319000D01*
X146094260Y-108319000D01*
X146160443Y-108325519D01*
X146160443Y-108325519D01*
G37*
G36*
X125840443Y-108325519D02*
X125906627Y-108332037D01*
X126019853Y-108366384D01*
X126076467Y-108383557D01*
X126215087Y-108457652D01*
X126232991Y-108467222D01*
X126268729Y-108496552D01*
X126370186Y-108579814D01*
X126453448Y-108681271D01*
X126482778Y-108717009D01*
X126482779Y-108717011D01*
X126566443Y-108873533D01*
X126566443Y-108873534D01*
X126617963Y-109043373D01*
X126635359Y-109220000D01*
X126617963Y-109396627D01*
X126583616Y-109509853D01*
X126566443Y-109566467D01*
X126492348Y-109705087D01*
X126482778Y-109722991D01*
X126453448Y-109758729D01*
X126370186Y-109860186D01*
X126268729Y-109943448D01*
X126232991Y-109972778D01*
X126232989Y-109972779D01*
X126076467Y-110056443D01*
X126019853Y-110073616D01*
X125906627Y-110107963D01*
X125840443Y-110114481D01*
X125774260Y-110121000D01*
X125685740Y-110121000D01*
X125619557Y-110114481D01*
X125553373Y-110107963D01*
X125440147Y-110073616D01*
X125383533Y-110056443D01*
X125227011Y-109972779D01*
X125227009Y-109972778D01*
X125191271Y-109943448D01*
X125089814Y-109860186D01*
X125006552Y-109758729D01*
X124977222Y-109722991D01*
X124967652Y-109705087D01*
X124893557Y-109566467D01*
X124876384Y-109509853D01*
X124842037Y-109396627D01*
X124824641Y-109220000D01*
X124842037Y-109043373D01*
X124893557Y-108873534D01*
X124893557Y-108873533D01*
X124977221Y-108717011D01*
X124977222Y-108717009D01*
X125006552Y-108681271D01*
X125089814Y-108579814D01*
X125191271Y-108496552D01*
X125227009Y-108467222D01*
X125244913Y-108457652D01*
X125383533Y-108383557D01*
X125440147Y-108366384D01*
X125553373Y-108332037D01*
X125619557Y-108325519D01*
X125685740Y-108319000D01*
X125774260Y-108319000D01*
X125840443Y-108325519D01*
X125840443Y-108325519D01*
G37*
G36*
X136000443Y-108325519D02*
X136066627Y-108332037D01*
X136179853Y-108366384D01*
X136236467Y-108383557D01*
X136375087Y-108457652D01*
X136392991Y-108467222D01*
X136428729Y-108496552D01*
X136530186Y-108579814D01*
X136613448Y-108681271D01*
X136642778Y-108717009D01*
X136642779Y-108717011D01*
X136726443Y-108873533D01*
X136726443Y-108873534D01*
X136777963Y-109043373D01*
X136795359Y-109220000D01*
X136777963Y-109396627D01*
X136743616Y-109509853D01*
X136726443Y-109566467D01*
X136652348Y-109705087D01*
X136642778Y-109722991D01*
X136613448Y-109758729D01*
X136530186Y-109860186D01*
X136428729Y-109943448D01*
X136392991Y-109972778D01*
X136392989Y-109972779D01*
X136236467Y-110056443D01*
X136179853Y-110073616D01*
X136066627Y-110107963D01*
X136000443Y-110114481D01*
X135934260Y-110121000D01*
X135845740Y-110121000D01*
X135779557Y-110114481D01*
X135713373Y-110107963D01*
X135600147Y-110073616D01*
X135543533Y-110056443D01*
X135387011Y-109972779D01*
X135387009Y-109972778D01*
X135351271Y-109943448D01*
X135249814Y-109860186D01*
X135166552Y-109758729D01*
X135137222Y-109722991D01*
X135127652Y-109705087D01*
X135053557Y-109566467D01*
X135036384Y-109509853D01*
X135002037Y-109396627D01*
X134984641Y-109220000D01*
X135002037Y-109043373D01*
X135053557Y-108873534D01*
X135053557Y-108873533D01*
X135137221Y-108717011D01*
X135137222Y-108717009D01*
X135166552Y-108681271D01*
X135249814Y-108579814D01*
X135351271Y-108496552D01*
X135387009Y-108467222D01*
X135404913Y-108457652D01*
X135543533Y-108383557D01*
X135600147Y-108366384D01*
X135713373Y-108332037D01*
X135779557Y-108325519D01*
X135845740Y-108319000D01*
X135934260Y-108319000D01*
X136000443Y-108325519D01*
X136000443Y-108325519D01*
G37*
G36*
X146160443Y-105785519D02*
X146226627Y-105792037D01*
X146339853Y-105826384D01*
X146396467Y-105843557D01*
X146535087Y-105917652D01*
X146552991Y-105927222D01*
X146588729Y-105956552D01*
X146690186Y-106039814D01*
X146773448Y-106141271D01*
X146802778Y-106177009D01*
X146802779Y-106177011D01*
X146886443Y-106333533D01*
X146886443Y-106333534D01*
X146937963Y-106503373D01*
X146955359Y-106680000D01*
X146937963Y-106856627D01*
X146903616Y-106969853D01*
X146886443Y-107026467D01*
X146812348Y-107165087D01*
X146802778Y-107182991D01*
X146773448Y-107218729D01*
X146690186Y-107320186D01*
X146588729Y-107403448D01*
X146552991Y-107432778D01*
X146552989Y-107432779D01*
X146396467Y-107516443D01*
X146339853Y-107533616D01*
X146226627Y-107567963D01*
X146160443Y-107574481D01*
X146094260Y-107581000D01*
X146005740Y-107581000D01*
X145939557Y-107574481D01*
X145873373Y-107567963D01*
X145760147Y-107533616D01*
X145703533Y-107516443D01*
X145547011Y-107432779D01*
X145547009Y-107432778D01*
X145511271Y-107403448D01*
X145409814Y-107320186D01*
X145326552Y-107218729D01*
X145297222Y-107182991D01*
X145287652Y-107165087D01*
X145213557Y-107026467D01*
X145196384Y-106969853D01*
X145162037Y-106856627D01*
X145144641Y-106680000D01*
X145162037Y-106503373D01*
X145213557Y-106333534D01*
X145213557Y-106333533D01*
X145297221Y-106177011D01*
X145297222Y-106177009D01*
X145326552Y-106141271D01*
X145409814Y-106039814D01*
X145511271Y-105956552D01*
X145547009Y-105927222D01*
X145564913Y-105917652D01*
X145703533Y-105843557D01*
X145760147Y-105826384D01*
X145873373Y-105792037D01*
X145939557Y-105785519D01*
X146005740Y-105779000D01*
X146094260Y-105779000D01*
X146160443Y-105785519D01*
X146160443Y-105785519D01*
G37*
G36*
X136000443Y-105785519D02*
X136066627Y-105792037D01*
X136179853Y-105826384D01*
X136236467Y-105843557D01*
X136375087Y-105917652D01*
X136392991Y-105927222D01*
X136428729Y-105956552D01*
X136530186Y-106039814D01*
X136613448Y-106141271D01*
X136642778Y-106177009D01*
X136642779Y-106177011D01*
X136726443Y-106333533D01*
X136726443Y-106333534D01*
X136777963Y-106503373D01*
X136795359Y-106680000D01*
X136777963Y-106856627D01*
X136743616Y-106969853D01*
X136726443Y-107026467D01*
X136652348Y-107165087D01*
X136642778Y-107182991D01*
X136613448Y-107218729D01*
X136530186Y-107320186D01*
X136428729Y-107403448D01*
X136392991Y-107432778D01*
X136392989Y-107432779D01*
X136236467Y-107516443D01*
X136179853Y-107533616D01*
X136066627Y-107567963D01*
X136000443Y-107574481D01*
X135934260Y-107581000D01*
X135845740Y-107581000D01*
X135779557Y-107574481D01*
X135713373Y-107567963D01*
X135600147Y-107533616D01*
X135543533Y-107516443D01*
X135387011Y-107432779D01*
X135387009Y-107432778D01*
X135351271Y-107403448D01*
X135249814Y-107320186D01*
X135166552Y-107218729D01*
X135137222Y-107182991D01*
X135127652Y-107165087D01*
X135053557Y-107026467D01*
X135036384Y-106969853D01*
X135002037Y-106856627D01*
X134984641Y-106680000D01*
X135002037Y-106503373D01*
X135053557Y-106333534D01*
X135053557Y-106333533D01*
X135137221Y-106177011D01*
X135137222Y-106177009D01*
X135166552Y-106141271D01*
X135249814Y-106039814D01*
X135351271Y-105956552D01*
X135387009Y-105927222D01*
X135404913Y-105917652D01*
X135543533Y-105843557D01*
X135600147Y-105826384D01*
X135713373Y-105792037D01*
X135779557Y-105785519D01*
X135845740Y-105779000D01*
X135934260Y-105779000D01*
X136000443Y-105785519D01*
X136000443Y-105785519D01*
G37*
G36*
X125840443Y-105785519D02*
X125906627Y-105792037D01*
X126019853Y-105826384D01*
X126076467Y-105843557D01*
X126215087Y-105917652D01*
X126232991Y-105927222D01*
X126268729Y-105956552D01*
X126370186Y-106039814D01*
X126453448Y-106141271D01*
X126482778Y-106177009D01*
X126482779Y-106177011D01*
X126566443Y-106333533D01*
X126566443Y-106333534D01*
X126617963Y-106503373D01*
X126635359Y-106680000D01*
X126617963Y-106856627D01*
X126583616Y-106969853D01*
X126566443Y-107026467D01*
X126492348Y-107165087D01*
X126482778Y-107182991D01*
X126453448Y-107218729D01*
X126370186Y-107320186D01*
X126268729Y-107403448D01*
X126232991Y-107432778D01*
X126232989Y-107432779D01*
X126076467Y-107516443D01*
X126019853Y-107533616D01*
X125906627Y-107567963D01*
X125840443Y-107574481D01*
X125774260Y-107581000D01*
X125685740Y-107581000D01*
X125619557Y-107574481D01*
X125553373Y-107567963D01*
X125440147Y-107533616D01*
X125383533Y-107516443D01*
X125227011Y-107432779D01*
X125227009Y-107432778D01*
X125191271Y-107403448D01*
X125089814Y-107320186D01*
X125006552Y-107218729D01*
X124977222Y-107182991D01*
X124967652Y-107165087D01*
X124893557Y-107026467D01*
X124876384Y-106969853D01*
X124842037Y-106856627D01*
X124824641Y-106680000D01*
X124842037Y-106503373D01*
X124893557Y-106333534D01*
X124893557Y-106333533D01*
X124977221Y-106177011D01*
X124977222Y-106177009D01*
X125006552Y-106141271D01*
X125089814Y-106039814D01*
X125191271Y-105956552D01*
X125227009Y-105927222D01*
X125244913Y-105917652D01*
X125383533Y-105843557D01*
X125440147Y-105826384D01*
X125553373Y-105792037D01*
X125619557Y-105785519D01*
X125685740Y-105779000D01*
X125774260Y-105779000D01*
X125840443Y-105785519D01*
X125840443Y-105785519D01*
G37*
G36*
X146951000Y-105041000D02*
X145149000Y-105041000D01*
X145149000Y-103239000D01*
X146951000Y-103239000D01*
X146951000Y-105041000D01*
X146951000Y-105041000D01*
G37*
G36*
X136791000Y-105041000D02*
X134989000Y-105041000D01*
X134989000Y-103239000D01*
X136791000Y-103239000D01*
X136791000Y-105041000D01*
X136791000Y-105041000D01*
G37*
G36*
X126631000Y-105041000D02*
X124829000Y-105041000D01*
X124829000Y-103239000D01*
X126631000Y-103239000D01*
X126631000Y-105041000D01*
X126631000Y-105041000D01*
G37*
G36*
X78982391Y-100800934D02*
X78982393Y-100800935D01*
X78982394Y-100800935D01*
X79133626Y-100863577D01*
X79133627Y-100863578D01*
X79269735Y-100954522D01*
X79385478Y-101070265D01*
X79385480Y-101070268D01*
X79476423Y-101206374D01*
X79539065Y-101357606D01*
X79571000Y-101518154D01*
X79571000Y-101681846D01*
X79539065Y-101842394D01*
X79476423Y-101993626D01*
X79476422Y-101993627D01*
X79385478Y-102129735D01*
X79269735Y-102245478D01*
X79269732Y-102245480D01*
X79133626Y-102336423D01*
X78982394Y-102399065D01*
X78982393Y-102399065D01*
X78982391Y-102399066D01*
X78821848Y-102431000D01*
X78658152Y-102431000D01*
X78497609Y-102399066D01*
X78497607Y-102399065D01*
X78497606Y-102399065D01*
X78346374Y-102336423D01*
X78210268Y-102245480D01*
X78210265Y-102245478D01*
X78094522Y-102129735D01*
X78003578Y-101993627D01*
X78003577Y-101993626D01*
X77940935Y-101842394D01*
X77909000Y-101681846D01*
X77909000Y-101518154D01*
X77940935Y-101357606D01*
X78003577Y-101206374D01*
X78094520Y-101070268D01*
X78094522Y-101070265D01*
X78210265Y-100954522D01*
X78346373Y-100863578D01*
X78346374Y-100863577D01*
X78497606Y-100800935D01*
X78497607Y-100800935D01*
X78497609Y-100800934D01*
X78658152Y-100769000D01*
X78821848Y-100769000D01*
X78982391Y-100800934D01*
X78982391Y-100800934D01*
G37*
G36*
X81522391Y-100800934D02*
X81522393Y-100800935D01*
X81522394Y-100800935D01*
X81673626Y-100863577D01*
X81673627Y-100863578D01*
X81809735Y-100954522D01*
X81925478Y-101070265D01*
X81925480Y-101070268D01*
X82016423Y-101206374D01*
X82079065Y-101357606D01*
X82111000Y-101518154D01*
X82111000Y-101681846D01*
X82079065Y-101842394D01*
X82016423Y-101993626D01*
X82016422Y-101993627D01*
X81925478Y-102129735D01*
X81809735Y-102245478D01*
X81809732Y-102245480D01*
X81673626Y-102336423D01*
X81522394Y-102399065D01*
X81522393Y-102399065D01*
X81522391Y-102399066D01*
X81361848Y-102431000D01*
X81198152Y-102431000D01*
X81037609Y-102399066D01*
X81037607Y-102399065D01*
X81037606Y-102399065D01*
X80886374Y-102336423D01*
X80750268Y-102245480D01*
X80750265Y-102245478D01*
X80634522Y-102129735D01*
X80543578Y-101993627D01*
X80543577Y-101993626D01*
X80480935Y-101842394D01*
X80449000Y-101681846D01*
X80449000Y-101518154D01*
X80480935Y-101357606D01*
X80543577Y-101206374D01*
X80634520Y-101070268D01*
X80634522Y-101070265D01*
X80750265Y-100954522D01*
X80886373Y-100863578D01*
X80886374Y-100863577D01*
X81037606Y-100800935D01*
X81037607Y-100800935D01*
X81037609Y-100800934D01*
X81198152Y-100769000D01*
X81361848Y-100769000D01*
X81522391Y-100800934D01*
X81522391Y-100800934D01*
G37*
G36*
X68822391Y-100800934D02*
X68822393Y-100800935D01*
X68822394Y-100800935D01*
X68973626Y-100863577D01*
X68973627Y-100863578D01*
X69109735Y-100954522D01*
X69225478Y-101070265D01*
X69225480Y-101070268D01*
X69316423Y-101206374D01*
X69379065Y-101357606D01*
X69411000Y-101518154D01*
X69411000Y-101681846D01*
X69379065Y-101842394D01*
X69316423Y-101993626D01*
X69316422Y-101993627D01*
X69225478Y-102129735D01*
X69109735Y-102245478D01*
X69109732Y-102245480D01*
X68973626Y-102336423D01*
X68822394Y-102399065D01*
X68822393Y-102399065D01*
X68822391Y-102399066D01*
X68661848Y-102431000D01*
X68498152Y-102431000D01*
X68337609Y-102399066D01*
X68337607Y-102399065D01*
X68337606Y-102399065D01*
X68186374Y-102336423D01*
X68050268Y-102245480D01*
X68050265Y-102245478D01*
X67934522Y-102129735D01*
X67843578Y-101993627D01*
X67843577Y-101993626D01*
X67780935Y-101842394D01*
X67749000Y-101681846D01*
X67749000Y-101518154D01*
X67780935Y-101357606D01*
X67843577Y-101206374D01*
X67934520Y-101070268D01*
X67934522Y-101070265D01*
X68050265Y-100954522D01*
X68186373Y-100863578D01*
X68186374Y-100863577D01*
X68337606Y-100800935D01*
X68337607Y-100800935D01*
X68337609Y-100800934D01*
X68498152Y-100769000D01*
X68661848Y-100769000D01*
X68822391Y-100800934D01*
X68822391Y-100800934D01*
G37*
G36*
X71362391Y-100800934D02*
X71362393Y-100800935D01*
X71362394Y-100800935D01*
X71513626Y-100863577D01*
X71513627Y-100863578D01*
X71649735Y-100954522D01*
X71765478Y-101070265D01*
X71765480Y-101070268D01*
X71856423Y-101206374D01*
X71919065Y-101357606D01*
X71951000Y-101518154D01*
X71951000Y-101681846D01*
X71919065Y-101842394D01*
X71856423Y-101993626D01*
X71856422Y-101993627D01*
X71765478Y-102129735D01*
X71649735Y-102245478D01*
X71649732Y-102245480D01*
X71513626Y-102336423D01*
X71362394Y-102399065D01*
X71362393Y-102399065D01*
X71362391Y-102399066D01*
X71201848Y-102431000D01*
X71038152Y-102431000D01*
X70877609Y-102399066D01*
X70877607Y-102399065D01*
X70877606Y-102399065D01*
X70726374Y-102336423D01*
X70590268Y-102245480D01*
X70590265Y-102245478D01*
X70474522Y-102129735D01*
X70383578Y-101993627D01*
X70383577Y-101993626D01*
X70320935Y-101842394D01*
X70289000Y-101681846D01*
X70289000Y-101518154D01*
X70320935Y-101357606D01*
X70383577Y-101206374D01*
X70474520Y-101070268D01*
X70474522Y-101070265D01*
X70590265Y-100954522D01*
X70726373Y-100863578D01*
X70726374Y-100863577D01*
X70877606Y-100800935D01*
X70877607Y-100800935D01*
X70877609Y-100800934D01*
X71038152Y-100769000D01*
X71201848Y-100769000D01*
X71362391Y-100800934D01*
X71362391Y-100800934D01*
G37*
G36*
X73902391Y-100800934D02*
X73902393Y-100800935D01*
X73902394Y-100800935D01*
X74053626Y-100863577D01*
X74053627Y-100863578D01*
X74189735Y-100954522D01*
X74305478Y-101070265D01*
X74305480Y-101070268D01*
X74396423Y-101206374D01*
X74459065Y-101357606D01*
X74491000Y-101518154D01*
X74491000Y-101681846D01*
X74459065Y-101842394D01*
X74396423Y-101993626D01*
X74396422Y-101993627D01*
X74305478Y-102129735D01*
X74189735Y-102245478D01*
X74189732Y-102245480D01*
X74053626Y-102336423D01*
X73902394Y-102399065D01*
X73902393Y-102399065D01*
X73902391Y-102399066D01*
X73741848Y-102431000D01*
X73578152Y-102431000D01*
X73417609Y-102399066D01*
X73417607Y-102399065D01*
X73417606Y-102399065D01*
X73266374Y-102336423D01*
X73130268Y-102245480D01*
X73130265Y-102245478D01*
X73014522Y-102129735D01*
X72923578Y-101993627D01*
X72923577Y-101993626D01*
X72860935Y-101842394D01*
X72829000Y-101681846D01*
X72829000Y-101518154D01*
X72860935Y-101357606D01*
X72923577Y-101206374D01*
X73014520Y-101070268D01*
X73014522Y-101070265D01*
X73130265Y-100954522D01*
X73266373Y-100863578D01*
X73266374Y-100863577D01*
X73417606Y-100800935D01*
X73417607Y-100800935D01*
X73417609Y-100800934D01*
X73578152Y-100769000D01*
X73741848Y-100769000D01*
X73902391Y-100800934D01*
X73902391Y-100800934D01*
G37*
G36*
X76442391Y-100800934D02*
X76442393Y-100800935D01*
X76442394Y-100800935D01*
X76593626Y-100863577D01*
X76593627Y-100863578D01*
X76729735Y-100954522D01*
X76845478Y-101070265D01*
X76845480Y-101070268D01*
X76936423Y-101206374D01*
X76999065Y-101357606D01*
X77031000Y-101518154D01*
X77031000Y-101681846D01*
X76999065Y-101842394D01*
X76936423Y-101993626D01*
X76936422Y-101993627D01*
X76845478Y-102129735D01*
X76729735Y-102245478D01*
X76729732Y-102245480D01*
X76593626Y-102336423D01*
X76442394Y-102399065D01*
X76442393Y-102399065D01*
X76442391Y-102399066D01*
X76281848Y-102431000D01*
X76118152Y-102431000D01*
X75957609Y-102399066D01*
X75957607Y-102399065D01*
X75957606Y-102399065D01*
X75806374Y-102336423D01*
X75670268Y-102245480D01*
X75670265Y-102245478D01*
X75554522Y-102129735D01*
X75463578Y-101993627D01*
X75463577Y-101993626D01*
X75400935Y-101842394D01*
X75369000Y-101681846D01*
X75369000Y-101518154D01*
X75400935Y-101357606D01*
X75463577Y-101206374D01*
X75554520Y-101070268D01*
X75554522Y-101070265D01*
X75670265Y-100954522D01*
X75806373Y-100863578D01*
X75806374Y-100863577D01*
X75957606Y-100800935D01*
X75957607Y-100800935D01*
X75957609Y-100800934D01*
X76118152Y-100769000D01*
X76281848Y-100769000D01*
X76442391Y-100800934D01*
X76442391Y-100800934D01*
G37*
G36*
X112591000Y-102431000D02*
X110929000Y-102431000D01*
X110929000Y-100769000D01*
X112591000Y-100769000D01*
X112591000Y-102431000D01*
X112591000Y-102431000D01*
G37*
G36*
X91682391Y-100800934D02*
X91682393Y-100800935D01*
X91682394Y-100800935D01*
X91833626Y-100863577D01*
X91833627Y-100863578D01*
X91969735Y-100954522D01*
X92085478Y-101070265D01*
X92085480Y-101070268D01*
X92176423Y-101206374D01*
X92239065Y-101357606D01*
X92271000Y-101518154D01*
X92271000Y-101681846D01*
X92239065Y-101842394D01*
X92176423Y-101993626D01*
X92176422Y-101993627D01*
X92085478Y-102129735D01*
X91969735Y-102245478D01*
X91969732Y-102245480D01*
X91833626Y-102336423D01*
X91682394Y-102399065D01*
X91682393Y-102399065D01*
X91682391Y-102399066D01*
X91521848Y-102431000D01*
X91358152Y-102431000D01*
X91197609Y-102399066D01*
X91197607Y-102399065D01*
X91197606Y-102399065D01*
X91046374Y-102336423D01*
X90910268Y-102245480D01*
X90910265Y-102245478D01*
X90794522Y-102129735D01*
X90703578Y-101993627D01*
X90703577Y-101993626D01*
X90640935Y-101842394D01*
X90609000Y-101681846D01*
X90609000Y-101518154D01*
X90640935Y-101357606D01*
X90703577Y-101206374D01*
X90794520Y-101070268D01*
X90794522Y-101070265D01*
X90910265Y-100954522D01*
X91046373Y-100863578D01*
X91046374Y-100863577D01*
X91197606Y-100800935D01*
X91197607Y-100800935D01*
X91197609Y-100800934D01*
X91358152Y-100769000D01*
X91521848Y-100769000D01*
X91682391Y-100800934D01*
X91682391Y-100800934D01*
G37*
G36*
X86602391Y-100800934D02*
X86602393Y-100800935D01*
X86602394Y-100800935D01*
X86753626Y-100863577D01*
X86753627Y-100863578D01*
X86889735Y-100954522D01*
X87005478Y-101070265D01*
X87005480Y-101070268D01*
X87096423Y-101206374D01*
X87159065Y-101357606D01*
X87191000Y-101518154D01*
X87191000Y-101681846D01*
X87159065Y-101842394D01*
X87096423Y-101993626D01*
X87096422Y-101993627D01*
X87005478Y-102129735D01*
X86889735Y-102245478D01*
X86889732Y-102245480D01*
X86753626Y-102336423D01*
X86602394Y-102399065D01*
X86602393Y-102399065D01*
X86602391Y-102399066D01*
X86441848Y-102431000D01*
X86278152Y-102431000D01*
X86117609Y-102399066D01*
X86117607Y-102399065D01*
X86117606Y-102399065D01*
X85966374Y-102336423D01*
X85830268Y-102245480D01*
X85830265Y-102245478D01*
X85714522Y-102129735D01*
X85623578Y-101993627D01*
X85623577Y-101993626D01*
X85560935Y-101842394D01*
X85529000Y-101681846D01*
X85529000Y-101518154D01*
X85560935Y-101357606D01*
X85623577Y-101206374D01*
X85714520Y-101070268D01*
X85714522Y-101070265D01*
X85830265Y-100954522D01*
X85966373Y-100863578D01*
X85966374Y-100863577D01*
X86117606Y-100800935D01*
X86117607Y-100800935D01*
X86117609Y-100800934D01*
X86278152Y-100769000D01*
X86441848Y-100769000D01*
X86602391Y-100800934D01*
X86602391Y-100800934D01*
G37*
G36*
X94222391Y-100800934D02*
X94222393Y-100800935D01*
X94222394Y-100800935D01*
X94373626Y-100863577D01*
X94373627Y-100863578D01*
X94509735Y-100954522D01*
X94625478Y-101070265D01*
X94625480Y-101070268D01*
X94716423Y-101206374D01*
X94779065Y-101357606D01*
X94811000Y-101518154D01*
X94811000Y-101681846D01*
X94779065Y-101842394D01*
X94716423Y-101993626D01*
X94716422Y-101993627D01*
X94625478Y-102129735D01*
X94509735Y-102245478D01*
X94509732Y-102245480D01*
X94373626Y-102336423D01*
X94222394Y-102399065D01*
X94222393Y-102399065D01*
X94222391Y-102399066D01*
X94061848Y-102431000D01*
X93898152Y-102431000D01*
X93737609Y-102399066D01*
X93737607Y-102399065D01*
X93737606Y-102399065D01*
X93586374Y-102336423D01*
X93450268Y-102245480D01*
X93450265Y-102245478D01*
X93334522Y-102129735D01*
X93243578Y-101993627D01*
X93243577Y-101993626D01*
X93180935Y-101842394D01*
X93149000Y-101681846D01*
X93149000Y-101518154D01*
X93180935Y-101357606D01*
X93243577Y-101206374D01*
X93334520Y-101070268D01*
X93334522Y-101070265D01*
X93450265Y-100954522D01*
X93586373Y-100863578D01*
X93586374Y-100863577D01*
X93737606Y-100800935D01*
X93737607Y-100800935D01*
X93737609Y-100800934D01*
X93898152Y-100769000D01*
X94061848Y-100769000D01*
X94222391Y-100800934D01*
X94222391Y-100800934D01*
G37*
G36*
X96762391Y-100800934D02*
X96762393Y-100800935D01*
X96762394Y-100800935D01*
X96913626Y-100863577D01*
X96913627Y-100863578D01*
X97049735Y-100954522D01*
X97165478Y-101070265D01*
X97165480Y-101070268D01*
X97256423Y-101206374D01*
X97319065Y-101357606D01*
X97351000Y-101518154D01*
X97351000Y-101681846D01*
X97319065Y-101842394D01*
X97256423Y-101993626D01*
X97256422Y-101993627D01*
X97165478Y-102129735D01*
X97049735Y-102245478D01*
X97049732Y-102245480D01*
X96913626Y-102336423D01*
X96762394Y-102399065D01*
X96762393Y-102399065D01*
X96762391Y-102399066D01*
X96601848Y-102431000D01*
X96438152Y-102431000D01*
X96277609Y-102399066D01*
X96277607Y-102399065D01*
X96277606Y-102399065D01*
X96126374Y-102336423D01*
X95990268Y-102245480D01*
X95990265Y-102245478D01*
X95874522Y-102129735D01*
X95783578Y-101993627D01*
X95783577Y-101993626D01*
X95720935Y-101842394D01*
X95689000Y-101681846D01*
X95689000Y-101518154D01*
X95720935Y-101357606D01*
X95783577Y-101206374D01*
X95874520Y-101070268D01*
X95874522Y-101070265D01*
X95990265Y-100954522D01*
X96126373Y-100863578D01*
X96126374Y-100863577D01*
X96277606Y-100800935D01*
X96277607Y-100800935D01*
X96277609Y-100800934D01*
X96438152Y-100769000D01*
X96601848Y-100769000D01*
X96762391Y-100800934D01*
X96762391Y-100800934D01*
G37*
G36*
X99302391Y-100800934D02*
X99302393Y-100800935D01*
X99302394Y-100800935D01*
X99453626Y-100863577D01*
X99453627Y-100863578D01*
X99589735Y-100954522D01*
X99705478Y-101070265D01*
X99705480Y-101070268D01*
X99796423Y-101206374D01*
X99859065Y-101357606D01*
X99891000Y-101518154D01*
X99891000Y-101681846D01*
X99859065Y-101842394D01*
X99796423Y-101993626D01*
X99796422Y-101993627D01*
X99705478Y-102129735D01*
X99589735Y-102245478D01*
X99589732Y-102245480D01*
X99453626Y-102336423D01*
X99302394Y-102399065D01*
X99302393Y-102399065D01*
X99302391Y-102399066D01*
X99141848Y-102431000D01*
X98978152Y-102431000D01*
X98817609Y-102399066D01*
X98817607Y-102399065D01*
X98817606Y-102399065D01*
X98666374Y-102336423D01*
X98530268Y-102245480D01*
X98530265Y-102245478D01*
X98414522Y-102129735D01*
X98323578Y-101993627D01*
X98323577Y-101993626D01*
X98260935Y-101842394D01*
X98229000Y-101681846D01*
X98229000Y-101518154D01*
X98260935Y-101357606D01*
X98323577Y-101206374D01*
X98414520Y-101070268D01*
X98414522Y-101070265D01*
X98530265Y-100954522D01*
X98666373Y-100863578D01*
X98666374Y-100863577D01*
X98817606Y-100800935D01*
X98817607Y-100800935D01*
X98817609Y-100800934D01*
X98978152Y-100769000D01*
X99141848Y-100769000D01*
X99302391Y-100800934D01*
X99302391Y-100800934D01*
G37*
G36*
X101842391Y-100800934D02*
X101842393Y-100800935D01*
X101842394Y-100800935D01*
X101993626Y-100863577D01*
X101993627Y-100863578D01*
X102129735Y-100954522D01*
X102245478Y-101070265D01*
X102245480Y-101070268D01*
X102336423Y-101206374D01*
X102399065Y-101357606D01*
X102431000Y-101518154D01*
X102431000Y-101681846D01*
X102399065Y-101842394D01*
X102336423Y-101993626D01*
X102336422Y-101993627D01*
X102245478Y-102129735D01*
X102129735Y-102245478D01*
X102129732Y-102245480D01*
X101993626Y-102336423D01*
X101842394Y-102399065D01*
X101842393Y-102399065D01*
X101842391Y-102399066D01*
X101681848Y-102431000D01*
X101518152Y-102431000D01*
X101357609Y-102399066D01*
X101357607Y-102399065D01*
X101357606Y-102399065D01*
X101206374Y-102336423D01*
X101070268Y-102245480D01*
X101070265Y-102245478D01*
X100954522Y-102129735D01*
X100863578Y-101993627D01*
X100863577Y-101993626D01*
X100800935Y-101842394D01*
X100769000Y-101681846D01*
X100769000Y-101518154D01*
X100800935Y-101357606D01*
X100863577Y-101206374D01*
X100954520Y-101070268D01*
X100954522Y-101070265D01*
X101070265Y-100954522D01*
X101206373Y-100863578D01*
X101206374Y-100863577D01*
X101357606Y-100800935D01*
X101357607Y-100800935D01*
X101357609Y-100800934D01*
X101518152Y-100769000D01*
X101681848Y-100769000D01*
X101842391Y-100800934D01*
X101842391Y-100800934D01*
G37*
G36*
X104382391Y-100800934D02*
X104382393Y-100800935D01*
X104382394Y-100800935D01*
X104533626Y-100863577D01*
X104533627Y-100863578D01*
X104669735Y-100954522D01*
X104785478Y-101070265D01*
X104785480Y-101070268D01*
X104876423Y-101206374D01*
X104939065Y-101357606D01*
X104971000Y-101518154D01*
X104971000Y-101681846D01*
X104939065Y-101842394D01*
X104876423Y-101993626D01*
X104876422Y-101993627D01*
X104785478Y-102129735D01*
X104669735Y-102245478D01*
X104669732Y-102245480D01*
X104533626Y-102336423D01*
X104382394Y-102399065D01*
X104382393Y-102399065D01*
X104382391Y-102399066D01*
X104221848Y-102431000D01*
X104058152Y-102431000D01*
X103897609Y-102399066D01*
X103897607Y-102399065D01*
X103897606Y-102399065D01*
X103746374Y-102336423D01*
X103610268Y-102245480D01*
X103610265Y-102245478D01*
X103494522Y-102129735D01*
X103403578Y-101993627D01*
X103403577Y-101993626D01*
X103340935Y-101842394D01*
X103309000Y-101681846D01*
X103309000Y-101518154D01*
X103340935Y-101357606D01*
X103403577Y-101206374D01*
X103494520Y-101070268D01*
X103494522Y-101070265D01*
X103610265Y-100954522D01*
X103746373Y-100863578D01*
X103746374Y-100863577D01*
X103897606Y-100800935D01*
X103897607Y-100800935D01*
X103897609Y-100800934D01*
X104058152Y-100769000D01*
X104221848Y-100769000D01*
X104382391Y-100800934D01*
X104382391Y-100800934D01*
G37*
G36*
X106922391Y-100800934D02*
X106922393Y-100800935D01*
X106922394Y-100800935D01*
X107073626Y-100863577D01*
X107073627Y-100863578D01*
X107209735Y-100954522D01*
X107325478Y-101070265D01*
X107325480Y-101070268D01*
X107416423Y-101206374D01*
X107479065Y-101357606D01*
X107511000Y-101518154D01*
X107511000Y-101681846D01*
X107479065Y-101842394D01*
X107416423Y-101993626D01*
X107416422Y-101993627D01*
X107325478Y-102129735D01*
X107209735Y-102245478D01*
X107209732Y-102245480D01*
X107073626Y-102336423D01*
X106922394Y-102399065D01*
X106922393Y-102399065D01*
X106922391Y-102399066D01*
X106761848Y-102431000D01*
X106598152Y-102431000D01*
X106437609Y-102399066D01*
X106437607Y-102399065D01*
X106437606Y-102399065D01*
X106286374Y-102336423D01*
X106150268Y-102245480D01*
X106150265Y-102245478D01*
X106034522Y-102129735D01*
X105943578Y-101993627D01*
X105943577Y-101993626D01*
X105880935Y-101842394D01*
X105849000Y-101681846D01*
X105849000Y-101518154D01*
X105880935Y-101357606D01*
X105943577Y-101206374D01*
X106034520Y-101070268D01*
X106034522Y-101070265D01*
X106150265Y-100954522D01*
X106286373Y-100863578D01*
X106286374Y-100863577D01*
X106437606Y-100800935D01*
X106437607Y-100800935D01*
X106437609Y-100800934D01*
X106598152Y-100769000D01*
X106761848Y-100769000D01*
X106922391Y-100800934D01*
X106922391Y-100800934D01*
G37*
G36*
X109462391Y-100800934D02*
X109462393Y-100800935D01*
X109462394Y-100800935D01*
X109613626Y-100863577D01*
X109613627Y-100863578D01*
X109749735Y-100954522D01*
X109865478Y-101070265D01*
X109865480Y-101070268D01*
X109956423Y-101206374D01*
X110019065Y-101357606D01*
X110051000Y-101518154D01*
X110051000Y-101681846D01*
X110019065Y-101842394D01*
X109956423Y-101993626D01*
X109956422Y-101993627D01*
X109865478Y-102129735D01*
X109749735Y-102245478D01*
X109749732Y-102245480D01*
X109613626Y-102336423D01*
X109462394Y-102399065D01*
X109462393Y-102399065D01*
X109462391Y-102399066D01*
X109301848Y-102431000D01*
X109138152Y-102431000D01*
X108977609Y-102399066D01*
X108977607Y-102399065D01*
X108977606Y-102399065D01*
X108826374Y-102336423D01*
X108690268Y-102245480D01*
X108690265Y-102245478D01*
X108574522Y-102129735D01*
X108483578Y-101993627D01*
X108483577Y-101993626D01*
X108420935Y-101842394D01*
X108389000Y-101681846D01*
X108389000Y-101518154D01*
X108420935Y-101357606D01*
X108483577Y-101206374D01*
X108574520Y-101070268D01*
X108574522Y-101070265D01*
X108690265Y-100954522D01*
X108826373Y-100863578D01*
X108826374Y-100863577D01*
X108977606Y-100800935D01*
X108977607Y-100800935D01*
X108977609Y-100800934D01*
X109138152Y-100769000D01*
X109301848Y-100769000D01*
X109462391Y-100800934D01*
X109462391Y-100800934D01*
G37*
G36*
X66282391Y-100800934D02*
X66282393Y-100800935D01*
X66282394Y-100800935D01*
X66433626Y-100863577D01*
X66433627Y-100863578D01*
X66569735Y-100954522D01*
X66685478Y-101070265D01*
X66685480Y-101070268D01*
X66776423Y-101206374D01*
X66839065Y-101357606D01*
X66871000Y-101518154D01*
X66871000Y-101681846D01*
X66839065Y-101842394D01*
X66776423Y-101993626D01*
X66776422Y-101993627D01*
X66685478Y-102129735D01*
X66569735Y-102245478D01*
X66569732Y-102245480D01*
X66433626Y-102336423D01*
X66282394Y-102399065D01*
X66282393Y-102399065D01*
X66282391Y-102399066D01*
X66121848Y-102431000D01*
X65958152Y-102431000D01*
X65797609Y-102399066D01*
X65797607Y-102399065D01*
X65797606Y-102399065D01*
X65646374Y-102336423D01*
X65510268Y-102245480D01*
X65510265Y-102245478D01*
X65394522Y-102129735D01*
X65303578Y-101993627D01*
X65303577Y-101993626D01*
X65240935Y-101842394D01*
X65209000Y-101681846D01*
X65209000Y-101518154D01*
X65240935Y-101357606D01*
X65303577Y-101206374D01*
X65394520Y-101070268D01*
X65394522Y-101070265D01*
X65510265Y-100954522D01*
X65646373Y-100863578D01*
X65646374Y-100863577D01*
X65797606Y-100800935D01*
X65797607Y-100800935D01*
X65797609Y-100800934D01*
X65958152Y-100769000D01*
X66121848Y-100769000D01*
X66282391Y-100800934D01*
X66282391Y-100800934D01*
G37*
G36*
X84062391Y-100800934D02*
X84062393Y-100800935D01*
X84062394Y-100800935D01*
X84213626Y-100863577D01*
X84213627Y-100863578D01*
X84349735Y-100954522D01*
X84465478Y-101070265D01*
X84465480Y-101070268D01*
X84556423Y-101206374D01*
X84619065Y-101357606D01*
X84651000Y-101518154D01*
X84651000Y-101681846D01*
X84619065Y-101842394D01*
X84556423Y-101993626D01*
X84556422Y-101993627D01*
X84465478Y-102129735D01*
X84349735Y-102245478D01*
X84349732Y-102245480D01*
X84213626Y-102336423D01*
X84062394Y-102399065D01*
X84062393Y-102399065D01*
X84062391Y-102399066D01*
X83901848Y-102431000D01*
X83738152Y-102431000D01*
X83577609Y-102399066D01*
X83577607Y-102399065D01*
X83577606Y-102399065D01*
X83426374Y-102336423D01*
X83290268Y-102245480D01*
X83290265Y-102245478D01*
X83174522Y-102129735D01*
X83083578Y-101993627D01*
X83083577Y-101993626D01*
X83020935Y-101842394D01*
X82989000Y-101681846D01*
X82989000Y-101518154D01*
X83020935Y-101357606D01*
X83083577Y-101206374D01*
X83174520Y-101070268D01*
X83174522Y-101070265D01*
X83290265Y-100954522D01*
X83426373Y-100863578D01*
X83426374Y-100863577D01*
X83577606Y-100800935D01*
X83577607Y-100800935D01*
X83577609Y-100800934D01*
X83738152Y-100769000D01*
X83901848Y-100769000D01*
X84062391Y-100800934D01*
X84062391Y-100800934D01*
G37*
G36*
X89142391Y-100800934D02*
X89142393Y-100800935D01*
X89142394Y-100800935D01*
X89293626Y-100863577D01*
X89293627Y-100863578D01*
X89429735Y-100954522D01*
X89545478Y-101070265D01*
X89545480Y-101070268D01*
X89636423Y-101206374D01*
X89699065Y-101357606D01*
X89731000Y-101518154D01*
X89731000Y-101681846D01*
X89699065Y-101842394D01*
X89636423Y-101993626D01*
X89636422Y-101993627D01*
X89545478Y-102129735D01*
X89429735Y-102245478D01*
X89429732Y-102245480D01*
X89293626Y-102336423D01*
X89142394Y-102399065D01*
X89142393Y-102399065D01*
X89142391Y-102399066D01*
X88981848Y-102431000D01*
X88818152Y-102431000D01*
X88657609Y-102399066D01*
X88657607Y-102399065D01*
X88657606Y-102399065D01*
X88506374Y-102336423D01*
X88370268Y-102245480D01*
X88370265Y-102245478D01*
X88254522Y-102129735D01*
X88163578Y-101993627D01*
X88163577Y-101993626D01*
X88100935Y-101842394D01*
X88069000Y-101681846D01*
X88069000Y-101518154D01*
X88100935Y-101357606D01*
X88163577Y-101206374D01*
X88254520Y-101070268D01*
X88254522Y-101070265D01*
X88370265Y-100954522D01*
X88506373Y-100863578D01*
X88506374Y-100863577D01*
X88657606Y-100800935D01*
X88657607Y-100800935D01*
X88657609Y-100800934D01*
X88818152Y-100769000D01*
X88981848Y-100769000D01*
X89142391Y-100800934D01*
X89142391Y-100800934D01*
G37*
G36*
X136000442Y-96895518D02*
X136066627Y-96902037D01*
X136179853Y-96936384D01*
X136236467Y-96953557D01*
X136375087Y-97027652D01*
X136392991Y-97037222D01*
X136428729Y-97066552D01*
X136530186Y-97149814D01*
X136613448Y-97251271D01*
X136642778Y-97287009D01*
X136642779Y-97287011D01*
X136726443Y-97443533D01*
X136726443Y-97443534D01*
X136777963Y-97613373D01*
X136795359Y-97790000D01*
X136777963Y-97966627D01*
X136743616Y-98079853D01*
X136726443Y-98136467D01*
X136652348Y-98275087D01*
X136642778Y-98292991D01*
X136613448Y-98328729D01*
X136530186Y-98430186D01*
X136428729Y-98513448D01*
X136392991Y-98542778D01*
X136392989Y-98542779D01*
X136236467Y-98626443D01*
X136179853Y-98643616D01*
X136066627Y-98677963D01*
X136000442Y-98684482D01*
X135934260Y-98691000D01*
X135845740Y-98691000D01*
X135779558Y-98684482D01*
X135713373Y-98677963D01*
X135600147Y-98643616D01*
X135543533Y-98626443D01*
X135387011Y-98542779D01*
X135387009Y-98542778D01*
X135351271Y-98513448D01*
X135249814Y-98430186D01*
X135166552Y-98328729D01*
X135137222Y-98292991D01*
X135127652Y-98275087D01*
X135053557Y-98136467D01*
X135036384Y-98079853D01*
X135002037Y-97966627D01*
X134984641Y-97790000D01*
X135002037Y-97613373D01*
X135053557Y-97443534D01*
X135053557Y-97443533D01*
X135137221Y-97287011D01*
X135137222Y-97287009D01*
X135166552Y-97251271D01*
X135249814Y-97149814D01*
X135351271Y-97066552D01*
X135387009Y-97037222D01*
X135404913Y-97027652D01*
X135543533Y-96953557D01*
X135600147Y-96936384D01*
X135713373Y-96902037D01*
X135779558Y-96895518D01*
X135845740Y-96889000D01*
X135934260Y-96889000D01*
X136000442Y-96895518D01*
X136000442Y-96895518D01*
G37*
G36*
X134251000Y-98691000D02*
X132449000Y-98691000D01*
X132449000Y-96889000D01*
X134251000Y-96889000D01*
X134251000Y-98691000D01*
X134251000Y-98691000D01*
G37*
G36*
X146160442Y-94355518D02*
X146226627Y-94362037D01*
X146339853Y-94396384D01*
X146396467Y-94413557D01*
X146535087Y-94487652D01*
X146552991Y-94497222D01*
X146588729Y-94526552D01*
X146690186Y-94609814D01*
X146773448Y-94711271D01*
X146802778Y-94747009D01*
X146802779Y-94747011D01*
X146886443Y-94903533D01*
X146886443Y-94903534D01*
X146937963Y-95073373D01*
X146955359Y-95250000D01*
X146937963Y-95426627D01*
X146903616Y-95539853D01*
X146886443Y-95596467D01*
X146812348Y-95735087D01*
X146802778Y-95752991D01*
X146773448Y-95788729D01*
X146690186Y-95890186D01*
X146588729Y-95973448D01*
X146552991Y-96002778D01*
X146552989Y-96002779D01*
X146396467Y-96086443D01*
X146339853Y-96103616D01*
X146226627Y-96137963D01*
X146160443Y-96144481D01*
X146094260Y-96151000D01*
X146005740Y-96151000D01*
X145939558Y-96144482D01*
X145873373Y-96137963D01*
X145760147Y-96103616D01*
X145703533Y-96086443D01*
X145547011Y-96002779D01*
X145547009Y-96002778D01*
X145511271Y-95973448D01*
X145409814Y-95890186D01*
X145326552Y-95788729D01*
X145297222Y-95752991D01*
X145287652Y-95735087D01*
X145213557Y-95596467D01*
X145196384Y-95539853D01*
X145162037Y-95426627D01*
X145144641Y-95250000D01*
X145162037Y-95073373D01*
X145213557Y-94903534D01*
X145213557Y-94903533D01*
X145297221Y-94747011D01*
X145297222Y-94747009D01*
X145326552Y-94711271D01*
X145409814Y-94609814D01*
X145511271Y-94526552D01*
X145547009Y-94497222D01*
X145564913Y-94487652D01*
X145703533Y-94413557D01*
X145760147Y-94396384D01*
X145873373Y-94362037D01*
X145939557Y-94355519D01*
X146005740Y-94349000D01*
X146094260Y-94349000D01*
X146160442Y-94355518D01*
X146160442Y-94355518D01*
G37*
G36*
X146160442Y-91815518D02*
X146226627Y-91822037D01*
X146339853Y-91856384D01*
X146396467Y-91873557D01*
X146535087Y-91947652D01*
X146552991Y-91957222D01*
X146588729Y-91986552D01*
X146690186Y-92069814D01*
X146773448Y-92171271D01*
X146802778Y-92207009D01*
X146802779Y-92207011D01*
X146886443Y-92363533D01*
X146886443Y-92363534D01*
X146937963Y-92533373D01*
X146955359Y-92710000D01*
X146937963Y-92886627D01*
X146903616Y-92999853D01*
X146886443Y-93056467D01*
X146812348Y-93195087D01*
X146802778Y-93212991D01*
X146773448Y-93248729D01*
X146690186Y-93350186D01*
X146588729Y-93433448D01*
X146552991Y-93462778D01*
X146552989Y-93462779D01*
X146396467Y-93546443D01*
X146339853Y-93563616D01*
X146226627Y-93597963D01*
X146160442Y-93604482D01*
X146094260Y-93611000D01*
X146005740Y-93611000D01*
X145939557Y-93604481D01*
X145873373Y-93597963D01*
X145760147Y-93563616D01*
X145703533Y-93546443D01*
X145547011Y-93462779D01*
X145547009Y-93462778D01*
X145511271Y-93433448D01*
X145409814Y-93350186D01*
X145326552Y-93248729D01*
X145297222Y-93212991D01*
X145287652Y-93195087D01*
X145213557Y-93056467D01*
X145196384Y-92999853D01*
X145162037Y-92886627D01*
X145144641Y-92710000D01*
X145162037Y-92533373D01*
X145213557Y-92363534D01*
X145213557Y-92363533D01*
X145297221Y-92207011D01*
X145297222Y-92207009D01*
X145326552Y-92171271D01*
X145409814Y-92069814D01*
X145511271Y-91986552D01*
X145547009Y-91957222D01*
X145564913Y-91947652D01*
X145703533Y-91873557D01*
X145760147Y-91856384D01*
X145873373Y-91822037D01*
X145939558Y-91815518D01*
X146005740Y-91809000D01*
X146094260Y-91809000D01*
X146160442Y-91815518D01*
X146160442Y-91815518D01*
G37*
G36*
X136791000Y-93611000D02*
X134989000Y-93611000D01*
X134989000Y-91809000D01*
X136791000Y-91809000D01*
X136791000Y-93611000D01*
X136791000Y-93611000D01*
G37*
G36*
X146160443Y-89275519D02*
X146226627Y-89282037D01*
X146339853Y-89316384D01*
X146396467Y-89333557D01*
X146535087Y-89407652D01*
X146552991Y-89417222D01*
X146588729Y-89446552D01*
X146690186Y-89529814D01*
X146773448Y-89631271D01*
X146802778Y-89667009D01*
X146802779Y-89667011D01*
X146886443Y-89823533D01*
X146886443Y-89823534D01*
X146937963Y-89993373D01*
X146955359Y-90170000D01*
X146937963Y-90346627D01*
X146903616Y-90459853D01*
X146886443Y-90516467D01*
X146812348Y-90655087D01*
X146802778Y-90672991D01*
X146773448Y-90708729D01*
X146690186Y-90810186D01*
X146588729Y-90893448D01*
X146552991Y-90922778D01*
X146552989Y-90922779D01*
X146396467Y-91006443D01*
X146339853Y-91023616D01*
X146226627Y-91057963D01*
X146160442Y-91064482D01*
X146094260Y-91071000D01*
X146005740Y-91071000D01*
X145939558Y-91064482D01*
X145873373Y-91057963D01*
X145760147Y-91023616D01*
X145703533Y-91006443D01*
X145547011Y-90922779D01*
X145547009Y-90922778D01*
X145511271Y-90893448D01*
X145409814Y-90810186D01*
X145326552Y-90708729D01*
X145297222Y-90672991D01*
X145287652Y-90655087D01*
X145213557Y-90516467D01*
X145196384Y-90459853D01*
X145162037Y-90346627D01*
X145144641Y-90170000D01*
X145162037Y-89993373D01*
X145213557Y-89823534D01*
X145213557Y-89823533D01*
X145297221Y-89667011D01*
X145297222Y-89667009D01*
X145326552Y-89631271D01*
X145409814Y-89529814D01*
X145511271Y-89446552D01*
X145547009Y-89417222D01*
X145564913Y-89407652D01*
X145703533Y-89333557D01*
X145760147Y-89316384D01*
X145873373Y-89282037D01*
X145939557Y-89275519D01*
X146005740Y-89269000D01*
X146094260Y-89269000D01*
X146160443Y-89275519D01*
X146160443Y-89275519D01*
G37*
G36*
X136000443Y-89275519D02*
X136066627Y-89282037D01*
X136179853Y-89316384D01*
X136236467Y-89333557D01*
X136375087Y-89407652D01*
X136392991Y-89417222D01*
X136428729Y-89446552D01*
X136530186Y-89529814D01*
X136613448Y-89631271D01*
X136642778Y-89667009D01*
X136642779Y-89667011D01*
X136726443Y-89823533D01*
X136726443Y-89823534D01*
X136777963Y-89993373D01*
X136795359Y-90170000D01*
X136777963Y-90346627D01*
X136743616Y-90459853D01*
X136726443Y-90516467D01*
X136652348Y-90655087D01*
X136642778Y-90672991D01*
X136613448Y-90708729D01*
X136530186Y-90810186D01*
X136428729Y-90893448D01*
X136392991Y-90922778D01*
X136392989Y-90922779D01*
X136236467Y-91006443D01*
X136179853Y-91023616D01*
X136066627Y-91057963D01*
X136000442Y-91064482D01*
X135934260Y-91071000D01*
X135845740Y-91071000D01*
X135779558Y-91064482D01*
X135713373Y-91057963D01*
X135600147Y-91023616D01*
X135543533Y-91006443D01*
X135387011Y-90922779D01*
X135387009Y-90922778D01*
X135351271Y-90893448D01*
X135249814Y-90810186D01*
X135166552Y-90708729D01*
X135137222Y-90672991D01*
X135127652Y-90655087D01*
X135053557Y-90516467D01*
X135036384Y-90459853D01*
X135002037Y-90346627D01*
X134984641Y-90170000D01*
X135002037Y-89993373D01*
X135053557Y-89823534D01*
X135053557Y-89823533D01*
X135137221Y-89667011D01*
X135137222Y-89667009D01*
X135166552Y-89631271D01*
X135249814Y-89529814D01*
X135351271Y-89446552D01*
X135387009Y-89417222D01*
X135404913Y-89407652D01*
X135543533Y-89333557D01*
X135600147Y-89316384D01*
X135713373Y-89282037D01*
X135779557Y-89275519D01*
X135845740Y-89269000D01*
X135934260Y-89269000D01*
X136000443Y-89275519D01*
X136000443Y-89275519D01*
G37*
G36*
X146160442Y-86735518D02*
X146226627Y-86742037D01*
X146339853Y-86776384D01*
X146396467Y-86793557D01*
X146535087Y-86867652D01*
X146552991Y-86877222D01*
X146588729Y-86906552D01*
X146690186Y-86989814D01*
X146773448Y-87091271D01*
X146802778Y-87127009D01*
X146802779Y-87127011D01*
X146886443Y-87283533D01*
X146886443Y-87283534D01*
X146937963Y-87453373D01*
X146955359Y-87630000D01*
X146937963Y-87806627D01*
X146903616Y-87919853D01*
X146886443Y-87976467D01*
X146812348Y-88115087D01*
X146802778Y-88132991D01*
X146773448Y-88168729D01*
X146690186Y-88270186D01*
X146588729Y-88353448D01*
X146552991Y-88382778D01*
X146552989Y-88382779D01*
X146396467Y-88466443D01*
X146339853Y-88483616D01*
X146226627Y-88517963D01*
X146160442Y-88524482D01*
X146094260Y-88531000D01*
X146005740Y-88531000D01*
X145939558Y-88524482D01*
X145873373Y-88517963D01*
X145760147Y-88483616D01*
X145703533Y-88466443D01*
X145547011Y-88382779D01*
X145547009Y-88382778D01*
X145511271Y-88353448D01*
X145409814Y-88270186D01*
X145326552Y-88168729D01*
X145297222Y-88132991D01*
X145287652Y-88115087D01*
X145213557Y-87976467D01*
X145196384Y-87919853D01*
X145162037Y-87806627D01*
X145144641Y-87630000D01*
X145162037Y-87453373D01*
X145213557Y-87283534D01*
X145213557Y-87283533D01*
X145297221Y-87127011D01*
X145297222Y-87127009D01*
X145326552Y-87091271D01*
X145409814Y-86989814D01*
X145511271Y-86906552D01*
X145547009Y-86877222D01*
X145564913Y-86867652D01*
X145703533Y-86793557D01*
X145760147Y-86776384D01*
X145873373Y-86742037D01*
X145939558Y-86735518D01*
X146005740Y-86729000D01*
X146094260Y-86729000D01*
X146160442Y-86735518D01*
X146160442Y-86735518D01*
G37*
G36*
X136000442Y-86735518D02*
X136066627Y-86742037D01*
X136179853Y-86776384D01*
X136236467Y-86793557D01*
X136375087Y-86867652D01*
X136392991Y-86877222D01*
X136428729Y-86906552D01*
X136530186Y-86989814D01*
X136613448Y-87091271D01*
X136642778Y-87127009D01*
X136642779Y-87127011D01*
X136726443Y-87283533D01*
X136726443Y-87283534D01*
X136777963Y-87453373D01*
X136795359Y-87630000D01*
X136777963Y-87806627D01*
X136743616Y-87919853D01*
X136726443Y-87976467D01*
X136652348Y-88115087D01*
X136642778Y-88132991D01*
X136613448Y-88168729D01*
X136530186Y-88270186D01*
X136428729Y-88353448D01*
X136392991Y-88382778D01*
X136392989Y-88382779D01*
X136236467Y-88466443D01*
X136179853Y-88483616D01*
X136066627Y-88517963D01*
X136000442Y-88524482D01*
X135934260Y-88531000D01*
X135845740Y-88531000D01*
X135779558Y-88524482D01*
X135713373Y-88517963D01*
X135600147Y-88483616D01*
X135543533Y-88466443D01*
X135387011Y-88382779D01*
X135387009Y-88382778D01*
X135351271Y-88353448D01*
X135249814Y-88270186D01*
X135166552Y-88168729D01*
X135137222Y-88132991D01*
X135127652Y-88115087D01*
X135053557Y-87976467D01*
X135036384Y-87919853D01*
X135002037Y-87806627D01*
X134984641Y-87630000D01*
X135002037Y-87453373D01*
X135053557Y-87283534D01*
X135053557Y-87283533D01*
X135137221Y-87127011D01*
X135137222Y-87127009D01*
X135166552Y-87091271D01*
X135249814Y-86989814D01*
X135351271Y-86906552D01*
X135387009Y-86877222D01*
X135404913Y-86867652D01*
X135543533Y-86793557D01*
X135600147Y-86776384D01*
X135713373Y-86742037D01*
X135779558Y-86735518D01*
X135845740Y-86729000D01*
X135934260Y-86729000D01*
X136000442Y-86735518D01*
X136000442Y-86735518D01*
G37*
G36*
X136000442Y-84195518D02*
X136066627Y-84202037D01*
X136179853Y-84236384D01*
X136236467Y-84253557D01*
X136375087Y-84327652D01*
X136392991Y-84337222D01*
X136428729Y-84366552D01*
X136530186Y-84449814D01*
X136613448Y-84551271D01*
X136642778Y-84587009D01*
X136642779Y-84587011D01*
X136726443Y-84743533D01*
X136726443Y-84743534D01*
X136777963Y-84913373D01*
X136795359Y-85090000D01*
X136777963Y-85266627D01*
X136743616Y-85379853D01*
X136726443Y-85436467D01*
X136652348Y-85575087D01*
X136642778Y-85592991D01*
X136613448Y-85628729D01*
X136530186Y-85730186D01*
X136428729Y-85813448D01*
X136392991Y-85842778D01*
X136392989Y-85842779D01*
X136236467Y-85926443D01*
X136179853Y-85943616D01*
X136066627Y-85977963D01*
X136000442Y-85984482D01*
X135934260Y-85991000D01*
X135845740Y-85991000D01*
X135779558Y-85984482D01*
X135713373Y-85977963D01*
X135600147Y-85943616D01*
X135543533Y-85926443D01*
X135387011Y-85842779D01*
X135387009Y-85842778D01*
X135351271Y-85813448D01*
X135249814Y-85730186D01*
X135166552Y-85628729D01*
X135137222Y-85592991D01*
X135127652Y-85575087D01*
X135053557Y-85436467D01*
X135036384Y-85379853D01*
X135002037Y-85266627D01*
X134984641Y-85090000D01*
X135002037Y-84913373D01*
X135053557Y-84743534D01*
X135053557Y-84743533D01*
X135137221Y-84587011D01*
X135137222Y-84587009D01*
X135166552Y-84551271D01*
X135249814Y-84449814D01*
X135351271Y-84366552D01*
X135387009Y-84337222D01*
X135404913Y-84327652D01*
X135543533Y-84253557D01*
X135600147Y-84236384D01*
X135713373Y-84202037D01*
X135779558Y-84195518D01*
X135845740Y-84189000D01*
X135934260Y-84189000D01*
X136000442Y-84195518D01*
X136000442Y-84195518D01*
G37*
G36*
X146160442Y-84195518D02*
X146226627Y-84202037D01*
X146339853Y-84236384D01*
X146396467Y-84253557D01*
X146535087Y-84327652D01*
X146552991Y-84337222D01*
X146588729Y-84366552D01*
X146690186Y-84449814D01*
X146773448Y-84551271D01*
X146802778Y-84587009D01*
X146802779Y-84587011D01*
X146886443Y-84743533D01*
X146886443Y-84743534D01*
X146937963Y-84913373D01*
X146955359Y-85090000D01*
X146937963Y-85266627D01*
X146903616Y-85379853D01*
X146886443Y-85436467D01*
X146812348Y-85575087D01*
X146802778Y-85592991D01*
X146773448Y-85628729D01*
X146690186Y-85730186D01*
X146588729Y-85813448D01*
X146552991Y-85842778D01*
X146552989Y-85842779D01*
X146396467Y-85926443D01*
X146339853Y-85943616D01*
X146226627Y-85977963D01*
X146160442Y-85984482D01*
X146094260Y-85991000D01*
X146005740Y-85991000D01*
X145939558Y-85984482D01*
X145873373Y-85977963D01*
X145760147Y-85943616D01*
X145703533Y-85926443D01*
X145547011Y-85842779D01*
X145547009Y-85842778D01*
X145511271Y-85813448D01*
X145409814Y-85730186D01*
X145326552Y-85628729D01*
X145297222Y-85592991D01*
X145287652Y-85575087D01*
X145213557Y-85436467D01*
X145196384Y-85379853D01*
X145162037Y-85266627D01*
X145144641Y-85090000D01*
X145162037Y-84913373D01*
X145213557Y-84743534D01*
X145213557Y-84743533D01*
X145297221Y-84587011D01*
X145297222Y-84587009D01*
X145326552Y-84551271D01*
X145409814Y-84449814D01*
X145511271Y-84366552D01*
X145547009Y-84337222D01*
X145564913Y-84327652D01*
X145703533Y-84253557D01*
X145760147Y-84236384D01*
X145873373Y-84202037D01*
X145939558Y-84195518D01*
X146005740Y-84189000D01*
X146094260Y-84189000D01*
X146160442Y-84195518D01*
X146160442Y-84195518D01*
G37*
G36*
X146951000Y-83451000D02*
X145149000Y-83451000D01*
X145149000Y-81649000D01*
X146951000Y-81649000D01*
X146951000Y-83451000D01*
X146951000Y-83451000D01*
G37*
G36*
X136000443Y-81655519D02*
X136066627Y-81662037D01*
X136179853Y-81696384D01*
X136236467Y-81713557D01*
X136375087Y-81787652D01*
X136392991Y-81797222D01*
X136428729Y-81826552D01*
X136530186Y-81909814D01*
X136613448Y-82011271D01*
X136642778Y-82047009D01*
X136642779Y-82047011D01*
X136726443Y-82203533D01*
X136726443Y-82203534D01*
X136777963Y-82373373D01*
X136795359Y-82550000D01*
X136777963Y-82726627D01*
X136743616Y-82839853D01*
X136726443Y-82896467D01*
X136652348Y-83035087D01*
X136642778Y-83052991D01*
X136613448Y-83088729D01*
X136530186Y-83190186D01*
X136428729Y-83273448D01*
X136392991Y-83302778D01*
X136392989Y-83302779D01*
X136236467Y-83386443D01*
X136179853Y-83403616D01*
X136066627Y-83437963D01*
X136000443Y-83444481D01*
X135934260Y-83451000D01*
X135845740Y-83451000D01*
X135779557Y-83444481D01*
X135713373Y-83437963D01*
X135600147Y-83403616D01*
X135543533Y-83386443D01*
X135387011Y-83302779D01*
X135387009Y-83302778D01*
X135351271Y-83273448D01*
X135249814Y-83190186D01*
X135166552Y-83088729D01*
X135137222Y-83052991D01*
X135127652Y-83035087D01*
X135053557Y-82896467D01*
X135036384Y-82839853D01*
X135002037Y-82726627D01*
X134984641Y-82550000D01*
X135002037Y-82373373D01*
X135053557Y-82203534D01*
X135053557Y-82203533D01*
X135137221Y-82047011D01*
X135137222Y-82047009D01*
X135166552Y-82011271D01*
X135249814Y-81909814D01*
X135351271Y-81826552D01*
X135387009Y-81797222D01*
X135404913Y-81787652D01*
X135543533Y-81713557D01*
X135600147Y-81696384D01*
X135713373Y-81662037D01*
X135779557Y-81655519D01*
X135845740Y-81649000D01*
X135934260Y-81649000D01*
X136000443Y-81655519D01*
X136000443Y-81655519D01*
G37*
G36*
X152775256Y-78401298D02*
X152881579Y-78422447D01*
X153182042Y-78546903D01*
X153448852Y-78725180D01*
X153452454Y-78727587D01*
X153682413Y-78957546D01*
X153863098Y-79227960D01*
X153987553Y-79528422D01*
X154051000Y-79847389D01*
X154051000Y-80172611D01*
X153987553Y-80491578D01*
X153863098Y-80792040D01*
X153682413Y-81062454D01*
X153452454Y-81292413D01*
X153452451Y-81292415D01*
X153182042Y-81473097D01*
X152881579Y-81597553D01*
X152775256Y-81618702D01*
X152562611Y-81661000D01*
X152237389Y-81661000D01*
X152024744Y-81618702D01*
X151918421Y-81597553D01*
X151617958Y-81473097D01*
X151347549Y-81292415D01*
X151347546Y-81292413D01*
X151117587Y-81062454D01*
X150936902Y-80792040D01*
X150812447Y-80491578D01*
X150749000Y-80172611D01*
X150749000Y-79847389D01*
X150812447Y-79528422D01*
X150936902Y-79227960D01*
X151117587Y-78957546D01*
X151347546Y-78727587D01*
X151351148Y-78725180D01*
X151617958Y-78546903D01*
X151918421Y-78422447D01*
X152024744Y-78401298D01*
X152237389Y-78359000D01*
X152562611Y-78359000D01*
X152775256Y-78401298D01*
X152775256Y-78401298D01*
G37*
G36*
X66415256Y-78401298D02*
X66521579Y-78422447D01*
X66822042Y-78546903D01*
X67088852Y-78725180D01*
X67092454Y-78727587D01*
X67322413Y-78957546D01*
X67503098Y-79227960D01*
X67627553Y-79528422D01*
X67691000Y-79847389D01*
X67691000Y-80172611D01*
X67627553Y-80491578D01*
X67503098Y-80792040D01*
X67322413Y-81062454D01*
X67092454Y-81292413D01*
X67092451Y-81292415D01*
X66822042Y-81473097D01*
X66521579Y-81597553D01*
X66415256Y-81618702D01*
X66202611Y-81661000D01*
X65877389Y-81661000D01*
X65664744Y-81618702D01*
X65558421Y-81597553D01*
X65257958Y-81473097D01*
X64987549Y-81292415D01*
X64987546Y-81292413D01*
X64757587Y-81062454D01*
X64576902Y-80792040D01*
X64452447Y-80491578D01*
X64389000Y-80172611D01*
X64389000Y-79847389D01*
X64452447Y-79528422D01*
X64576902Y-79227960D01*
X64757587Y-78957546D01*
X64987546Y-78727587D01*
X64991148Y-78725180D01*
X65257958Y-78546903D01*
X65558421Y-78422447D01*
X65664744Y-78401298D01*
X65877389Y-78359000D01*
X66202611Y-78359000D01*
X66415256Y-78401298D01*
X66415256Y-78401298D01*
G37*
M02*
